LXGWWenKai-Bold.ufo
<glyph name="exclam" format="2">
  <advance height="1000" width="350"/>
  <unicode hex="0021"/>
  <outline>
    <contour>
      <point x="179" y="-15" type="qcurve"/>
      <point x="152" y="-15"/>
      <point x="117" y="27"/>
      <point x="117" y="51" type="qcurve"/>
      <point x="117" y="74"/>
      <point x="146" y="107"/>
      <point x="198" y="107"/>
      <point x="234" y="62"/>
      <point x="234" y="39" type="qcurve"/>
      <point x="234" y="-15"/>
    </contour>
    <contour>
      <point x="190" y="159" type="qcurve"/>
      <point x="174" y="159"/>
      <point x="140" y="173"/>
      <point x="140" y="188" type="qcurve"/>
      <point x="142" y="204"/>
      <point x="142" y="227" type="qcurve"/>
      <point x="135" y="668"/>
      <point x="131" y="694" type="qcurve"/>
      <point x="131" y="718"/>
      <point x="159" y="718" type="qcurve"/>
      <point x="182" y="718"/>
      <point x="228" y="698"/>
      <point x="228" y="680" type="qcurve"/>
      <point x="227" y="663"/>
      <point x="223" y="631"/>
      <point x="222" y="609" type="qcurve"/>
      <point x="210" y="223"/>
      <point x="210" y="173" type="qcurve"/>
      <point x="210" y="159"/>
    </contour>
  </outline>
</glyph>
<glyph name="quotedbl" format="2">
  <advance height="1000" width="350"/>
  <unicode hex="0022"/>
  <outline>
    <contour>
      <point x="148" y="470"/>
      <point x="74" y="470"/>
      <point x="74" y="492" type="qcurve"/>
      <point x="68" y="703" type="line"/>
      <point x="68" y="718"/>
      <point x="97" y="731"/>
      <point x="112" y="731" type="qcurve"/>
      <point x="126" y="731"/>
      <point x="154" y="718"/>
      <point x="154" y="703" type="qcurve"/>
      <point x="148" y="492" type="line"/>
    </contour>
    <contour>
      <point x="276" y="470"/>
      <point x="202" y="470"/>
      <point x="202" y="492" type="qcurve"/>
      <point x="196" y="703" type="line"/>
      <point x="196" y="718"/>
      <point x="225" y="731"/>
      <point x="240" y="731" type="qcurve"/>
      <point x="254" y="731"/>
      <point x="282" y="718"/>
      <point x="282" y="703" type="qcurve"/>
      <point x="276" y="492" type="line"/>
    </contour>
  </outline>
</glyph>
<glyph name="numbersign" format="2">
  <advance height="1000" width="600"/>
  <unicode hex="0023"/>
  <outline>
    <contour>
      <point x="362" y="274" type="line"/>
      <point x="387" y="459" type="line"/>
      <point x="249" y="459" type="line"/>
      <point x="244" y="415"/>
      <point x="231" y="325"/>
      <point x="224" y="274" type="qcurve"/>
    </contour>
    <contour>
      <point x="361" y="-13" type="qcurve"/>
      <point x="321" y="-13"/>
      <point x="321" y="7" type="qcurve"/>
      <point x="321" y="11"/>
      <point x="328" y="40" type="qcurve"/>
      <point x="333" y="56"/>
      <point x="352" y="204" type="qcurve"/>
      <point x="215" y="204" type="line"/>
      <point x="196" y="64"/>
      <point x="192" y="12" type="qcurve"/>
      <point x="188" y="-13"/>
      <point x="149" y="-13" type="qcurve"/>
      <point x="109" y="-13"/>
      <point x="109" y="7" type="qcurve"/>
      <point x="109" y="10"/>
      <point x="116" y="40" type="qcurve"/>
      <point x="121" y="61"/>
      <point x="140" y="204" type="qcurve"/>
      <point x="76" y="204"/>
      <point x="58" y="201" type="qcurve"/>
      <point x="44" y="201"/>
      <point x="31" y="232"/>
      <point x="31" y="246" type="qcurve"/>
      <point x="31" y="276"/>
      <point x="53" y="276" type="qcurve"/>
      <point x="83" y="274"/>
      <point x="150" y="274" type="qcurve"/>
      <point x="175" y="459" type="line"/>
      <point x="104" y="459"/>
      <point x="84" y="456" type="qcurve"/>
      <point x="71" y="456"/>
      <point x="57" y="487"/>
      <point x="57" y="501" type="qcurve"/>
      <point x="57" y="531"/>
      <point x="79" y="531" type="qcurve"/>
      <point x="109" y="529"/>
      <point x="185" y="529" type="qcurve"/>
      <point x="206" y="682"/>
      <point x="207" y="705" type="qcurve"/>
      <point x="207" y="723"/>
      <point x="233" y="723" type="qcurve"/>
      <point x="286" y="723"/>
      <point x="286" y="694" type="qcurve"/>
      <point x="284" y="684"/>
      <point x="279" y="667"/>
      <point x="259" y="529" type="qcurve"/>
      <point x="397" y="529" type="line"/>
      <point x="418" y="682"/>
      <point x="419" y="705" type="qcurve"/>
      <point x="419" y="723"/>
      <point x="445" y="723" type="qcurve"/>
      <point x="498" y="723"/>
      <point x="498" y="694" type="qcurve"/>
      <point x="491" y="671"/>
      <point x="489" y="659" type="qcurve"/>
      <point x="471" y="529" type="line"/>
      <point x="510" y="529"/>
      <point x="552" y="532" type="qcurve"/>
      <point x="567" y="532"/>
      <point x="581" y="503"/>
      <point x="581" y="490" type="qcurve"/>
      <point x="581" y="458"/>
      <point x="558" y="458" type="qcurve"/>
      <point x="536" y="459"/>
      <point x="461" y="459" type="qcurve"/>
      <point x="437" y="274" type="line"/>
      <point x="484" y="274"/>
      <point x="526" y="277" type="qcurve"/>
      <point x="541" y="277"/>
      <point x="555" y="248"/>
      <point x="555" y="236" type="qcurve"/>
      <point x="555" y="203"/>
      <point x="532" y="203" type="qcurve"/>
      <point x="510" y="204"/>
      <point x="427" y="204" type="qcurve"/>
      <point x="408" y="65"/>
      <point x="404" y="12" type="qcurve"/>
      <point x="400" y="-13"/>
    </contour>
  </outline>
</glyph>
<glyph name="dollar" format="2">
  <advance height="1000" width="600"/>
  <unicode hex="0024"/>
  <outline>
    <contour>
      <point x="342" y="56" type="line"/>
      <point x="399" y="65"/>
      <point x="474" y="136"/>
      <point x="474" y="190" type="qcurve"/>
      <point x="474" y="245"/>
      <point x="418" y="312"/>
      <point x="342" y="333" type="qcurve"/>
    </contour>
    <contour>
      <point x="264" y="432" type="qcurve"/>
      <point x="264" y="639" type="line"/>
      <point x="212" y="630"/>
      <point x="146" y="563"/>
      <point x="146" y="524" type="qcurve"/>
      <point x="146" y="477"/>
      <point x="188" y="457" type="qcurve"/>
      <point x="216" y="444"/>
    </contour>
    <contour>
      <point x="321" y="-129" type="qcurve"/>
      <point x="302" y="-129"/>
      <point x="262" y="-113"/>
      <point x="262" y="-98" type="qcurve"/>
      <point x="264" y="-21" type="line"/>
      <point x="129" y="-15"/>
      <point x="37" y="88" type="qcurve"/>
      <point x="29" y="96"/>
      <point x="29" y="128"/>
      <point x="58" y="165"/>
      <point x="71" y="165" type="qcurve"/>
      <point x="83" y="165"/>
      <point x="89" y="155" type="qcurve"/>
      <point x="130" y="93"/>
      <point x="198" y="69" type="qcurve"/>
      <point x="243" y="53"/>
      <point x="264" y="53" type="qcurve"/>
      <point x="264" y="354" type="line"/>
      <point x="225" y="364" type="line"/>
      <point x="150" y="385"/>
      <point x="62" y="457"/>
      <point x="62" y="526" type="qcurve"/>
      <point x="62" y="572"/>
      <point x="115" y="652"/>
      <point x="208" y="708"/>
      <point x="263" y="714" type="qcurve"/>
      <point x="261" y="739"/>
      <point x="261" y="761" type="qcurve"/>
      <point x="261" y="776"/>
      <point x="286" y="776" type="qcurve"/>
      <point x="305" y="776"/>
      <point x="344" y="762"/>
      <point x="344" y="747" type="qcurve"/>
      <point x="343" y="715" type="line"/>
      <point x="401" y="708"/>
      <point x="481" y="669"/>
      <point x="521" y="634"/>
      <point x="521" y="613" type="qcurve"/>
      <point x="521" y="594"/>
      <point x="505" y="556"/>
      <point x="490" y="556" type="qcurve"/>
      <point x="482" y="556"/>
      <point x="461" y="576" type="qcurve"/>
      <point x="424" y="625"/>
      <point x="342" y="640" type="qcurve"/>
      <point x="342" y="412" type="line"/>
      <point x="363" y="406" type="line"/>
      <point x="557" y="356"/>
      <point x="557" y="192" type="qcurve"/>
      <point x="557" y="138"/>
      <point x="505" y="48"/>
      <point x="407" y="-12"/>
      <point x="343" y="-19" type="qcurve"/>
      <point x="345" y="-41"/>
      <point x="345" y="-114" type="qcurve"/>
      <point x="345" y="-129"/>
    </contour>
  </outline>
</glyph>
<glyph name="percent" format="2">
  <advance height="1000" width="800"/>
  <unicode hex="0025"/>
  <outline>
    <contour>
      <point x="596" y="43" type="qcurve"/>
      <point x="679" y="43"/>
      <point x="679" y="162" type="qcurve"/>
      <point x="679" y="207"/>
      <point x="640" y="275"/>
      <point x="604" y="275" type="qcurve"/>
      <point x="567" y="275"/>
      <point x="512" y="220"/>
      <point x="512" y="90"/>
      <point x="547" y="59" type="qcurve"/>
      <point x="565" y="43"/>
    </contour>
    <contour>
      <point x="598" y="-24" type="qcurve"/>
      <point x="516" y="-24"/>
      <point x="438" y="78"/>
      <point x="438" y="158" type="qcurve"/>
      <point x="438" y="252"/>
      <point x="491" y="305" type="qcurve"/>
      <point x="499" y="315"/>
      <point x="510" y="315" type="qcurve"/>
      <point x="519" y="315"/>
      <point x="521" y="313" type="qcurve"/>
      <point x="550" y="342"/>
      <point x="601" y="342" type="qcurve"/>
      <point x="651" y="342"/>
      <point x="685" y="317" type="qcurve"/>
      <point x="752" y="266"/>
      <point x="752" y="158" type="qcurve"/>
      <point x="752" y="110"/>
      <point x="736" y="68" type="qcurve"/>
      <point x="699" y="-24"/>
    </contour>
    <contour>
      <point x="206" y="432" type="qcurve"/>
      <point x="248" y="432"/>
      <point x="289" y="495"/>
      <point x="289" y="546" type="qcurve"/>
      <point x="289" y="596"/>
      <point x="250" y="664"/>
      <point x="214" y="664" type="qcurve"/>
      <point x="177" y="664"/>
      <point x="122" y="607"/>
      <point x="122" y="547" type="qcurve"/>
      <point x="122" y="432"/>
    </contour>
    <contour>
      <point x="208" y="365" type="qcurve"/>
      <point x="126" y="365"/>
      <point x="48" y="467"/>
      <point x="48" y="547" type="qcurve"/>
      <point x="48" y="641"/>
      <point x="101" y="694" type="qcurve"/>
      <point x="109" y="704"/>
      <point x="120" y="704" type="qcurve"/>
      <point x="129" y="704"/>
      <point x="131" y="702" type="qcurve"/>
      <point x="160" y="731"/>
      <point x="211" y="731" type="qcurve"/>
      <point x="261" y="731"/>
      <point x="295" y="706" type="qcurve"/>
      <point x="362" y="655"/>
      <point x="362" y="547" type="qcurve"/>
      <point x="362" y="499"/>
      <point x="346" y="458" type="qcurve"/>
      <point x="309" y="365"/>
    </contour>
    <contour>
      <point x="179" y="-46" type="qcurve"/>
      <point x="166" y="-46"/>
      <point x="132" y="-8"/>
      <point x="132" y="6" type="qcurve"/>
      <point x="132" y="19"/>
      <point x="157" y="47"/>
      <point x="175" y="74" type="qcurve"/>
      <point x="575" y="701"/>
      <point x="587" y="726" type="qcurve"/>
      <point x="592" y="739"/>
      <point x="606" y="739" type="qcurve"/>
      <point x="617" y="739"/>
      <point x="630" y="728" type="qcurve"/>
      <point x="657" y="703"/>
      <point x="657" y="681" type="qcurve"/>
      <point x="657" y="678"/>
      <point x="654" y="672" type="qcurve"/>
      <point x="628" y="639"/>
      <point x="608" y="609" type="qcurve"/>
      <point x="222" y="7"/>
      <point x="197" y="-36" type="qcurve"/>
      <point x="191" y="-46"/>
    </contour>
  </outline>
</glyph>
<glyph name="ampersand" format="2">
  <advance height="1000" width="700"/>
  <unicode hex="0026"/>
  <outline>
    <contour>
      <point x="263" y="45" type="qcurve"/>
      <point x="305" y="45"/>
      <point x="400" y="85"/>
      <point x="438" y="122" type="qcurve"/>
      <point x="366" y="198"/>
      <point x="244" y="343" type="qcurve"/>
      <point x="124" y="262"/>
      <point x="124" y="162" type="qcurve"/>
      <point x="124" y="107"/>
      <point x="194" y="45"/>
    </contour>
    <contour>
      <point x="258" y="443" type="qcurve"/>
      <point x="306" y="474"/>
      <point x="369" y="554"/>
      <point x="369" y="588" type="qcurve"/>
      <point x="369" y="654"/>
      <point x="259" y="654"/>
      <point x="231" y="606" type="qcurve"/>
      <point x="218" y="583"/>
      <point x="218" y="556" type="qcurve"/>
      <point x="218" y="495"/>
    </contour>
    <contour>
      <point x="263" y="-23" type="qcurve"/>
      <point x="46" y="-23"/>
      <point x="46" y="154" type="qcurve"/>
      <point x="46" y="234"/>
      <point x="134" y="352"/>
      <point x="200" y="399" type="qcurve"/>
      <point x="140" y="479"/>
      <point x="140" y="558" type="qcurve"/>
      <point x="140" y="605"/>
      <point x="186" y="678"/>
      <point x="261" y="718"/>
      <point x="317" y="718" type="qcurve"/>
      <point x="372" y="718"/>
      <point x="448" y="654"/>
      <point x="448" y="591" type="qcurve"/>
      <point x="448" y="488"/>
      <point x="304" y="386" type="qcurve"/>
      <point x="405" y="261"/>
      <point x="483" y="180" type="qcurve"/>
      <point x="535" y="252"/>
      <point x="564" y="366" type="qcurve"/>
      <point x="569" y="384"/>
      <point x="578" y="410"/>
      <point x="591" y="410" type="qcurve"/>
      <point x="597" y="410"/>
      <point x="623" y="398"/>
      <point x="647" y="376"/>
      <point x="647" y="358" type="qcurve"/>
      <point x="647" y="341"/>
      <point x="576" y="184"/>
      <point x="536" y="127" type="qcurve"/>
      <point x="614" y="45"/>
      <point x="661" y="29" type="qcurve"/>
      <point x="710" y="8"/>
      <point x="710" y="-20"/>
      <point x="667" y="-20" type="qcurve"/>
      <point x="628" y="-20"/>
      <point x="567" y="0"/>
      <point x="517" y="43"/>
      <point x="488" y="70" type="qcurve"/>
      <point x="404" y="-23"/>
    </contour>
  </outline>
</glyph>
<glyph name="quotesingle" format="2">
  <advance height="1000" width="350"/>
  <unicode hex="0027"/>
  <outline>
    <contour>
      <point x="176" y="470" type="qcurve"/>
      <point x="141" y="470"/>
      <point x="138" y="492" type="qcurve"/>
      <point x="132" y="703" type="line"/>
      <point x="132" y="718"/>
      <point x="161" y="731"/>
      <point x="175" y="731" type="qcurve"/>
      <point x="218" y="731"/>
      <point x="218" y="704" type="qcurve"/>
      <point x="212" y="492" type="line"/>
      <point x="212" y="470"/>
    </contour>
  </outline>
</glyph>
<glyph name="parenleft" format="2">
  <advance height="1000" width="350"/>
  <unicode hex="0028"/>
  <outline>
    <contour>
      <point x="299" y="-165" type="qcurve"/>
      <point x="289" y="-165"/>
      <point x="264" y="-142" type="qcurve"/>
      <point x="206" y="-89"/>
      <point x="157" y="13" type="qcurve"/>
      <point x="94" y="140"/>
      <point x="94" y="289" type="qcurve"/>
      <point x="94" y="437"/>
      <point x="207" y="706"/>
      <point x="266" y="770" type="qcurve"/>
      <point x="291" y="797"/>
      <point x="304" y="797" type="qcurve"/>
      <point x="329" y="797"/>
      <point x="329" y="774" type="qcurve"/>
      <point x="329" y="764"/>
      <point x="322" y="757" type="qcurve"/>
      <point x="258" y="682"/>
      <point x="181" y="401"/>
      <point x="181" y="292" type="qcurve"/>
      <point x="181" y="182"/>
      <point x="252" y="-58"/>
      <point x="311" y="-117" type="qcurve"/>
      <point x="321" y="-127"/>
      <point x="321" y="-140" type="qcurve"/>
      <point x="321" y="-165"/>
    </contour>
  </outline>
</glyph>
<glyph name="parenright" format="2">
  <advance height="1000" width="350"/>
  <unicode hex="0029"/>
  <outline>
    <contour>
      <point x="50" y="-165" type="qcurve"/>
      <point x="28" y="-165"/>
      <point x="28" y="-140" type="qcurve"/>
      <point x="28" y="-127"/>
      <point x="38" y="-117" type="qcurve"/>
      <point x="97" y="-58"/>
      <point x="168" y="182"/>
      <point x="168" y="292" type="qcurve"/>
      <point x="168" y="401"/>
      <point x="91" y="682"/>
      <point x="27" y="757" type="qcurve"/>
      <point x="20" y="764"/>
      <point x="20" y="774" type="qcurve"/>
      <point x="20" y="797"/>
      <point x="45" y="797" type="qcurve"/>
      <point x="59" y="797"/>
      <point x="84" y="770" type="qcurve"/>
      <point x="142" y="706"/>
      <point x="194" y="586" type="qcurve"/>
      <point x="255" y="437"/>
      <point x="255" y="141"/>
      <point x="143" y="-90"/>
      <point x="85" y="-142" type="qcurve"/>
      <point x="60" y="-165"/>
    </contour>
  </outline>
</glyph>
<glyph name="asterisk" format="2">
  <advance height="1000" width="500"/>
  <unicode hex="002A"/>
  <outline>
    <contour>
      <point x="194" y="385"/>
      <point x="162" y="385"/>
      <point x="125" y="414"/>
      <point x="125" y="428" type="qcurve"/>
      <point x="125" y="441"/>
      <point x="137" y="456" type="qcurve"/>
      <point x="181" y="507"/>
      <point x="198" y="528" type="qcurve"/>
      <point x="156" y="533"/>
      <point x="106" y="536"/>
      <point x="78" y="543"/>
      <point x="78" y="565" type="qcurve"/>
      <point x="78" y="583"/>
      <point x="93" y="623"/>
      <point x="112" y="623" type="qcurve"/>
      <point x="118" y="623"/>
      <point x="191" y="593"/>
      <point x="218" y="584" type="qcurve"/>
      <point x="202" y="691" type="line"/>
      <point x="202" y="720"/>
      <point x="248" y="720" type="qcurve"/>
      <point x="288" y="720"/>
      <point x="288" y="690" type="qcurve"/>
      <point x="279" y="588" type="line"/>
      <point x="337" y="614"/>
      <point x="376" y="639"/>
      <point x="390" y="639" type="qcurve"/>
      <point x="406" y="639"/>
      <point x="425" y="601"/>
      <point x="425" y="584" type="qcurve"/>
      <point x="425" y="559"/>
      <point x="390" y="552" type="qcurve"/>
      <point x="298" y="533" type="line"/>
      <point x="336" y="484"/>
      <point x="359" y="460" type="qcurve"/>
      <point x="376" y="444"/>
      <point x="376" y="422"/>
      <point x="344" y="387"/>
      <point x="326" y="387" type="qcurve"/>
      <point x="307" y="387"/>
      <point x="294" y="407"/>
      <point x="284" y="431"/>
      <point x="258" y="480"/>
      <point x="250" y="495" type="qcurve"/>
      <point x="225" y="453"/>
      <point x="207" y="405"/>
    </contour>
  </outline>
</glyph>
<glyph name="plus" format="2">
  <advance height="1000" width="600"/>
  <unicode hex="002B"/>
  <outline>
    <contour>
      <point x="303" y="-9" type="qcurve"/>
      <point x="288" y="-9"/>
      <point x="262" y="7"/>
      <point x="262" y="23" type="qcurve"/>
      <point x="265" y="53"/>
      <point x="265" y="216" type="qcurve"/>
      <point x="94" y="216"/>
      <point x="75" y="213" type="qcurve"/>
      <point x="60" y="213"/>
      <point x="45" y="243"/>
      <point x="45" y="257" type="qcurve"/>
      <point x="45" y="288"/>
      <point x="71" y="288" type="qcurve"/>
      <point x="99" y="286"/>
      <point x="265" y="286" type="qcurve"/>
      <point x="265" y="447"/>
      <point x="263" y="475" type="qcurve"/>
      <point x="263" y="501"/>
      <point x="294" y="501" type="qcurve"/>
      <point x="308" y="501"/>
      <point x="338" y="486"/>
      <point x="338" y="471" type="qcurve"/>
      <point x="335" y="434"/>
      <point x="335" y="286" type="qcurve"/>
      <point x="462" y="286"/>
      <point x="522" y="289" type="qcurve"/>
      <point x="539" y="289"/>
      <point x="554" y="262"/>
      <point x="554" y="247" type="qcurve"/>
      <point x="554" y="215"/>
      <point x="528" y="215" type="qcurve"/>
      <point x="454" y="216"/>
      <point x="335" y="216" type="qcurve"/>
      <point x="335" y="91"/>
      <point x="336" y="17" type="qcurve"/>
      <point x="336" y="-9"/>
    </contour>
  </outline>
</glyph>
<glyph name="comma" format="2">
  <advance height="1000" width="350"/>
  <unicode hex="002C"/>
  <outline>
    <contour>
      <point x="114" y="-110" type="qcurve"/>
      <point x="95" y="-110"/>
      <point x="95" y="-90" type="qcurve"/>
      <point x="95" y="-77"/>
      <point x="120" y="-60"/>
      <point x="153" y="-21"/>
      <point x="156" y="-11" type="qcurve"/>
      <point x="111" y="7"/>
      <point x="111" y="50" type="qcurve"/>
      <point x="111" y="78"/>
      <point x="150" y="108"/>
      <point x="200" y="108"/>
      <point x="234" y="66"/>
      <point x="237" y="38" type="qcurve"/>
      <point x="237" y="-16"/>
      <point x="147" y="-110"/>
    </contour>
  </outline>
</glyph>
<glyph name="period" format="2">
  <advance height="1000" width="350"/>
  <unicode hex="002E"/>
  <outline>
    <contour>
      <point x="180" y="-20" type="qcurve"/>
      <point x="155" y="-20"/>
      <point x="117" y="28"/>
      <point x="117" y="54" type="qcurve"/>
      <point x="117" y="81"/>
      <point x="154" y="116"/>
      <point x="178" y="116" type="qcurve"/>
      <point x="203" y="116"/>
      <point x="244" y="69"/>
      <point x="244" y="43" type="qcurve"/>
      <point x="244" y="16"/>
      <point x="203" y="-20"/>
    </contour>
  </outline>
</glyph>
<glyph name="slash" format="2">
  <advance height="1000" width="350"/>
  <unicode hex="002F"/>
  <outline>
    <contour>
      <point x="47" y="-48" type="qcurve"/>
      <point x="32" y="-48"/>
      <point x="2" y="-22"/>
      <point x="2" y="-8" type="qcurve"/>
      <point x="2" y="4"/>
      <point x="6" y="12" type="qcurve"/>
      <point x="24" y="44"/>
      <point x="33" y="72" type="qcurve"/>
      <point x="247" y="662" type="line"/>
      <point x="262" y="704"/>
      <point x="271" y="739" type="qcurve"/>
      <point x="275" y="757"/>
      <point x="290" y="757" type="qcurve"/>
      <point x="301" y="757"/>
      <point x="313" y="749" type="qcurve"/>
      <point x="341" y="728"/>
      <point x="341" y="709" type="qcurve"/>
      <point x="341" y="705"/>
      <point x="325" y="674"/>
      <point x="312" y="638" type="qcurve"/>
      <point x="79" y="0"/>
      <point x="70" y="-31" type="qcurve"/>
      <point x="64" y="-48"/>
    </contour>
  </outline>
</glyph>
<glyph name="zero" format="2">
  <advance height="1000" width="600"/>
  <unicode hex="0030"/>
  <outline>
    <contour>
      <point x="302" y="51" type="qcurve"/>
      <point x="351" y="51"/>
      <point x="384" y="92" type="qcurve"/>
      <point x="450" y="171"/>
      <point x="450" y="366" type="qcurve"/>
      <point x="450" y="559"/>
      <point x="376" y="621" type="qcurve"/>
      <point x="349" y="644"/>
      <point x="318" y="644" type="qcurve"/>
      <point x="257" y="644"/>
      <point x="151" y="479"/>
      <point x="151" y="344" type="qcurve"/>
      <point x="151" y="207"/>
      <point x="179" y="136" type="qcurve"/>
      <point x="212" y="51"/>
    </contour>
    <contour>
      <point x="414" y="-24"/>
      <point x="178" y="-24"/>
      <point x="119" y="84" type="qcurve"/>
      <point x="67" y="178"/>
      <point x="67" y="321" type="qcurve"/>
      <point x="67" y="463"/>
      <point x="106" y="568" type="qcurve"/>
      <point x="123" y="613"/>
      <point x="159" y="665"/>
      <point x="187" y="665"/>
      <point x="194" y="656" type="qcurve"/>
      <point x="248" y="719"/>
      <point x="318" y="719" type="qcurve"/>
      <point x="387" y="719"/>
      <point x="437" y="670" type="qcurve"/>
      <point x="534" y="576"/>
      <point x="534" y="354" type="qcurve"/>
      <point x="534" y="198"/>
      <point x="477" y="91" type="qcurve"/>
    </contour>
  </outline>
</glyph>
<glyph name="one" format="2">
  <advance height="1000" width="600"/>
  <unicode hex="0031"/>
  <outline>
    <contour>
      <point x="335" y="-17" type="qcurve"/>
      <point x="315" y="-17"/>
      <point x="271" y="0"/>
      <point x="271" y="17" type="qcurve"/>
      <point x="273" y="105" type="line"/>
      <point x="273" y="596" type="line"/>
      <point x="245" y="579"/>
      <point x="186" y="566" type="qcurve"/>
      <point x="183" y="565"/>
      <point x="172" y="565" type="qcurve"/>
      <point x="160" y="565"/>
      <point x="127" y="583"/>
      <point x="127" y="607"/>
      <point x="142" y="613" type="qcurve"/>
      <point x="236" y="650"/>
      <point x="278" y="698" type="qcurve"/>
      <point x="294" y="716"/>
      <point x="309" y="716" type="qcurve"/>
      <point x="323" y="716"/>
      <point x="364" y="689"/>
      <point x="364" y="673" type="qcurve"/>
      <point x="364" y="659"/>
      <point x="358" y="622"/>
      <point x="358" y="600" type="qcurve"/>
      <point x="358" y="111"/>
      <point x="360" y="-1" type="qcurve"/>
      <point x="360" y="-17"/>
    </contour>
  </outline>
</glyph>
<glyph name="two" format="2">
  <advance height="1000" width="600"/>
  <unicode hex="0032"/>
  <outline>
    <contour>
      <point x="104" y="-10" type="qcurve"/>
      <point x="78" y="-10"/>
      <point x="51" y="26"/>
      <point x="51" y="54"/>
      <point x="62" y="72"/>
      <point x="74" y="85"/>
      <point x="78" y="91" type="qcurve"/>
      <point x="107" y="142"/>
      <point x="232" y="281"/>
      <point x="379" y="402"/>
      <point x="444" y="500"/>
      <point x="444" y="545" type="qcurve"/>
      <point x="444" y="589"/>
      <point x="388" y="643"/>
      <point x="329" y="643" type="qcurve"/>
      <point x="213" y="643"/>
      <point x="177" y="549" type="qcurve"/>
      <point x="165" y="519"/>
      <point x="135" y="519" type="qcurve"/>
      <point x="119" y="519"/>
      <point x="92" y="558"/>
      <point x="92" y="571" type="qcurve"/>
      <point x="92" y="583"/>
      <point x="121" y="631"/>
      <point x="150" y="656" type="qcurve"/>
      <point x="222" y="719"/>
      <point x="422" y="719"/>
      <point x="530" y="624"/>
      <point x="530" y="552" type="qcurve"/>
      <point x="530" y="481"/>
      <point x="441" y="355"/>
      <point x="366" y="292" type="qcurve"/>
      <point x="219" y="173"/>
      <point x="156" y="71" type="qcurve"/>
      <point x="195" y="75"/>
      <point x="294" y="75" type="qcurve"/>
      <point x="440" y="74" type="line"/>
      <point x="505" y="75" type="line"/>
      <point x="521" y="75"/>
      <point x="545" y="35"/>
      <point x="545" y="16" type="qcurve"/>
      <point x="545" y="-7"/>
      <point x="524" y="-7" type="qcurve"/>
      <point x="514" y="-7"/>
      <point x="439" y="1"/>
      <point x="245" y="1" type="qcurve"/>
      <point x="165" y="1"/>
    </contour>
  </outline>
</glyph>
<glyph name="three" format="2">
  <advance height="1000" width="600"/>
  <unicode hex="0033"/>
  <outline>
    <contour>
      <point x="285" y="-24" type="qcurve"/>
      <point x="205" y="-24"/>
      <point x="105" y="18"/>
      <point x="63" y="59" type="qcurve"/>
      <point x="53" y="69"/>
      <point x="53" y="87" type="qcurve"/>
      <point x="53" y="104"/>
      <point x="77" y="143"/>
      <point x="89" y="143" type="qcurve"/>
      <point x="99" y="143"/>
      <point x="107" y="135" type="qcurve"/>
      <point x="139" y="96"/>
      <point x="216" y="51"/>
      <point x="278" y="51" type="qcurve"/>
      <point x="339" y="51"/>
      <point x="422" y="97"/>
      <point x="460" y="173"/>
      <point x="460" y="217" type="qcurve"/>
      <point x="460" y="275"/>
      <point x="379" y="346"/>
      <point x="315" y="346" type="qcurve"/>
      <point x="279" y="346"/>
      <point x="234" y="337" type="qcurve"/>
      <point x="216" y="337"/>
      <point x="193" y="373"/>
      <point x="193" y="390" type="qcurve"/>
      <point x="193" y="410"/>
      <point x="210" y="411" type="qcurve"/>
      <point x="341" y="424"/>
      <point x="401" y="485" type="qcurve"/>
      <point x="429" y="514"/>
      <point x="429" y="551" type="qcurve"/>
      <point x="429" y="645"/>
      <point x="318" y="645" type="qcurve"/>
      <point x="228" y="645"/>
      <point x="155" y="566" type="qcurve"/>
      <point x="144" y="551"/>
      <point x="129" y="551" type="qcurve"/>
      <point x="125" y="551"/>
      <point x="89" y="575"/>
      <point x="89" y="617"/>
      <point x="102" y="627" type="qcurve"/>
      <point x="189" y="719"/>
      <point x="316" y="719" type="qcurve"/>
      <point x="403" y="719"/>
      <point x="511" y="634"/>
      <point x="511" y="564" type="qcurve"/>
      <point x="511" y="428"/>
      <point x="413" y="398" type="qcurve"/>
      <point x="421" y="398"/>
      <point x="497" y="353"/>
      <point x="543" y="273"/>
      <point x="543" y="213" type="qcurve"/>
      <point x="543" y="154"/>
      <point x="485" y="43"/>
      <point x="366" y="-24"/>
    </contour>
  </outline>
</glyph>
<glyph name="four" format="2">
  <advance height="1000" width="600"/>
  <unicode hex="0034"/>
  <outline>
    <contour>
      <point x="433" y="-17" type="qcurve"/>
      <point x="413" y="-17"/>
      <point x="370" y="0"/>
      <point x="370" y="17" type="qcurve"/>
      <point x="372" y="87"/>
      <point x="372" y="151" type="qcurve"/>
      <point x="124" y="138"/>
      <point x="103" y="132"/>
      <point x="92" y="132" type="qcurve"/>
      <point x="79" y="132"/>
      <point x="45" y="164"/>
      <point x="45" y="182" type="qcurve"/>
      <point x="45" y="198"/>
      <point x="62" y="223"/>
      <point x="81" y="246"/>
      <point x="88" y="255" type="qcurve"/>
      <point x="275" y="550"/>
      <point x="335" y="662"/>
      <point x="353" y="706" type="qcurve"/>
      <point x="358" y="717"/>
      <point x="370" y="717" type="qcurve"/>
      <point x="380" y="717"/>
      <point x="394" y="707" type="qcurve"/>
      <point x="426" y="683"/>
      <point x="426" y="657" type="qcurve"/>
      <point x="426" y="651"/>
      <point x="404" y="617" type="qcurve"/>
      <point x="220" y="319"/>
      <point x="147" y="213" type="qcurve"/>
      <point x="372" y="223" type="line"/>
      <point x="372" y="418"/>
      <point x="369" y="525" type="qcurve"/>
      <point x="369" y="541"/>
      <point x="394" y="541" type="qcurve"/>
      <point x="413" y="541"/>
      <point x="455" y="524"/>
      <point x="455" y="507" type="qcurve"/>
      <point x="453" y="418"/>
      <point x="453" y="226" type="qcurve"/>
      <point x="506" y="230" type="line"/>
      <point x="528" y="233"/>
      <point x="540" y="233" type="qcurve"/>
      <point x="555" y="233"/>
      <point x="576" y="191"/>
      <point x="576" y="175" type="qcurve"/>
      <point x="576" y="153"/>
      <point x="559" y="153" type="qcurve"/>
      <point x="466" y="155" type="line"/>
      <point x="453" y="154" type="line"/>
      <point x="453" y="80"/>
      <point x="457" y="-1" type="qcurve"/>
      <point x="457" y="-17"/>
    </contour>
  </outline>
</glyph>
<glyph name="five" format="2">
  <advance height="1000" width="600"/>
  <unicode hex="0035"/>
  <outline>
    <contour>
      <point x="291" y="-25" type="qcurve"/>
      <point x="155" y="-25"/>
      <point x="68" y="70" type="qcurve"/>
      <point x="59" y="79"/>
      <point x="59" y="98" type="qcurve"/>
      <point x="59" y="116"/>
      <point x="83" y="157"/>
      <point x="96" y="157" type="qcurve"/>
      <point x="108" y="157"/>
      <point x="114" y="147" type="qcurve"/>
      <point x="179" y="53"/>
      <point x="279" y="51" type="qcurve"/>
      <point x="342" y="51"/>
      <point x="422" y="98"/>
      <point x="462" y="177"/>
      <point x="462" y="223" type="qcurve"/>
      <point x="462" y="296"/>
      <point x="376" y="375"/>
      <point x="311" y="376" type="qcurve"/>
      <point x="248" y="376"/>
      <point x="176" y="332"/>
      <point x="142" y="302" type="qcurve"/>
      <point x="137" y="297"/>
      <point x="126" y="297" type="qcurve"/>
      <point x="114" y="297"/>
      <point x="85" y="329"/>
      <point x="85" y="345" type="qcurve"/>
      <point x="85" y="359"/>
      <point x="96" y="397" type="qcurve"/>
      <point x="134" y="637" type="line"/>
      <point x="136" y="648"/>
      <point x="136" y="679" type="qcurve"/>
      <point x="136" y="698"/>
      <point x="160" y="698" type="qcurve"/>
      <point x="178" y="698"/>
      <point x="200" y="687" type="qcurve"/>
      <point x="462" y="706"/>
      <point x="475" y="708" type="qcurve"/>
      <point x="491" y="708"/>
      <point x="512" y="669"/>
      <point x="512" y="652" type="qcurve"/>
      <point x="512" y="631"/>
      <point x="481" y="630"/>
      <point x="459" y="630" type="qcurve"/>
      <point x="208" y="611" type="line"/>
      <point x="174" y="407" type="line"/>
      <point x="225" y="448"/>
      <point x="313" y="448" type="qcurve"/>
      <point x="378" y="448"/>
      <point x="480" y="394"/>
      <point x="543" y="295"/>
      <point x="543" y="159"/>
      <point x="488" y="45"/>
      <point x="371" y="-25"/>
    </contour>
  </outline>
</glyph>
<glyph name="six" format="2">
  <advance height="1000" width="600"/>
  <unicode hex="0036"/>
  <outline>
    <contour>
      <point x="303" y="50" type="qcurve"/>
      <point x="381" y="50"/>
      <point x="464" y="148"/>
      <point x="464" y="224" type="qcurve"/>
      <point x="464" y="263"/>
      <point x="428" y="330"/>
      <point x="362" y="370"/>
      <point x="312" y="370" type="qcurve"/>
      <point x="261" y="370"/>
      <point x="182" y="323"/>
      <point x="140" y="245"/>
      <point x="140" y="197" type="qcurve"/>
      <point x="140" y="133"/>
      <point x="224" y="50"/>
    </contour>
    <contour>
      <point x="384" y="-23"/>
      <point x="228" y="-23"/>
      <point x="118" y="35"/>
      <point x="57" y="135"/>
      <point x="57" y="199" type="qcurve"/>
      <point x="57" y="262"/>
      <point x="107" y="403"/>
      <point x="206" y="572"/>
      <point x="281" y="685"/>
      <point x="287" y="700"/>
      <point x="291" y="706" type="qcurve"/>
      <point x="298" y="720"/>
      <point x="326" y="720" type="qcurve"/>
      <point x="350" y="720"/>
      <point x="382" y="704"/>
      <point x="382" y="689" type="qcurve"/>
      <point x="382" y="676"/>
      <point x="370" y="664" type="qcurve"/>
      <point x="255" y="532"/>
      <point x="192" y="407" type="qcurve"/>
      <point x="232" y="442"/>
      <point x="320" y="442" type="qcurve"/>
      <point x="382" y="442"/>
      <point x="485" y="387"/>
      <point x="547" y="289"/>
      <point x="547" y="161"/>
      <point x="493" y="46"/>
    </contour>
  </outline>
</glyph>
<glyph name="seven" format="2">
  <advance height="1000" width="600"/>
  <unicode hex="0037"/>
  <outline>
    <contour>
      <point x="221" y="-17" type="qcurve"/>
      <point x="188" y="-17"/>
      <point x="172" y="9"/>
      <point x="172" y="23" type="qcurve"/>
      <point x="172" y="35"/>
      <point x="326" y="413"/>
      <point x="432" y="628" type="qcurve"/>
      <point x="154" y="604"/>
      <point x="136" y="600"/>
      <point x="122" y="600" type="qcurve"/>
      <point x="105" y="600"/>
      <point x="81" y="630"/>
      <point x="71" y="662"/>
      <point x="71" y="665" type="qcurve"/>
      <point x="71" y="680"/>
      <point x="83" y="680" type="qcurve"/>
      <point x="119" y="678" type="line"/>
      <point x="450" y="702"/>
      <point x="472" y="708"/>
      <point x="484" y="708" type="qcurve"/>
      <point x="501" y="707"/>
      <point x="536" y="674"/>
      <point x="536" y="656" type="qcurve"/>
      <point x="532" y="641"/>
      <point x="509" y="605"/>
      <point x="485" y="557" type="qcurve"/>
      <point x="318" y="217"/>
      <point x="260" y="4" type="qcurve"/>
      <point x="256" y="-17"/>
    </contour>
  </outline>
</glyph>
<glyph name="eight" format="2">
  <advance height="1000" width="600"/>
  <unicode hex="0038"/>
  <outline>
    <contour>
      <point x="281" y="52" type="qcurve"/>
      <point x="360" y="52"/>
      <point x="451" y="118"/>
      <point x="451" y="228"/>
      <point x="413" y="288"/>
      <point x="337" y="331"/>
      <point x="284" y="353" type="qcurve"/>
      <point x="213" y="303"/>
      <point x="134" y="224"/>
      <point x="134" y="176" type="qcurve"/>
      <point x="134" y="145"/>
      <point x="149" y="116" type="qcurve"/>
      <point x="184" y="52"/>
    </contour>
    <contour>
      <point x="277" y="435" type="qcurve"/>
      <point x="365" y="491"/>
      <point x="419" y="534" type="qcurve"/>
      <point x="457" y="553"/>
      <point x="457" y="557" type="qcurve"/>
      <point x="457" y="558"/>
      <point x="455" y="558" type="qcurve"/>
      <point x="442" y="558"/>
      <point x="431" y="575" type="qcurve"/>
      <point x="387" y="647"/>
      <point x="303" y="647" type="qcurve"/>
      <point x="241" y="647"/>
      <point x="167" y="585"/>
      <point x="167" y="548" type="qcurve"/>
      <point x="167" y="510"/>
      <point x="221" y="461"/>
    </contour>
    <contour>
      <point x="281" y="-23" type="qcurve"/>
      <point x="212" y="-23"/>
      <point x="108" y="28"/>
      <point x="51" y="118"/>
      <point x="51" y="173" type="qcurve"/>
      <point x="51" y="285"/>
      <point x="210" y="389" type="qcurve"/>
      <point x="85" y="456"/>
      <point x="85" y="543" type="qcurve"/>
      <point x="85" y="591"/>
      <point x="139" y="670"/>
      <point x="237" y="718"/>
      <point x="294" y="718" type="qcurve"/>
      <point x="350" y="718"/>
      <point x="424" y="688"/>
      <point x="474" y="645"/>
      <point x="499" y="607"/>
      <point x="499" y="598" type="qcurve"/>
      <point x="499" y="596"/>
      <point x="500" y="596" type="qcurve"/>
      <point x="502" y="596"/>
      <point x="509" y="609" type="qcurve"/>
      <point x="509" y="606"/>
      <point x="518" y="606" type="qcurve"/>
      <point x="540" y="606"/>
      <point x="540" y="584" type="qcurve"/>
      <point x="540" y="552"/>
      <point x="399" y="440" type="qcurve"/>
      <point x="366" y="414"/>
      <point x="350" y="403" type="qcurve"/>
      <point x="535" y="332"/>
      <point x="535" y="176" type="qcurve"/>
      <point x="535" y="87"/>
      <point x="399" y="-23"/>
    </contour>
    <contour>
      <point x="509" y="609" type="qcurve"/>
      <point x="510" y="611"/>
      <point x="511" y="613" type="qcurve"/>
      <point x="509" y="611"/>
    </contour>
  </outline>
</glyph>
<glyph name="nine" format="2">
  <advance height="1000" width="600"/>
  <unicode hex="0039"/>
  <outline>
    <contour>
      <point x="227" y="331" type="qcurve"/>
      <point x="310" y="331"/>
      <point x="370" y="395" type="qcurve"/>
      <point x="411" y="439"/>
      <point x="436" y="504" type="qcurve"/>
      <point x="453" y="547"/>
      <point x="453" y="561" type="qcurve"/>
      <point x="435" y="561"/>
      <point x="423" y="590"/>
      <point x="409" y="606" type="qcurve"/>
      <point x="377" y="644"/>
      <point x="318" y="644" type="qcurve"/>
      <point x="243" y="644"/>
      <point x="134" y="514"/>
      <point x="134" y="453" type="qcurve"/>
      <point x="134" y="331"/>
    </contour>
    <contour>
      <point x="379" y="-19" type="qcurve"/>
      <point x="345" y="-19"/>
      <point x="345" y="9" type="qcurve"/>
      <point x="345" y="20"/>
      <point x="396" y="262" type="qcurve"/>
      <point x="410" y="330"/>
      <point x="410" y="337" type="qcurve"/>
      <point x="409" y="334" type="line"/>
      <point x="389" y="309"/>
      <point x="282" y="254"/>
      <point x="232" y="254" type="qcurve"/>
      <point x="180" y="254"/>
      <point x="101" y="299"/>
      <point x="53" y="383"/>
      <point x="53" y="439" type="qcurve"/>
      <point x="53" y="546"/>
      <point x="208" y="718"/>
      <point x="313" y="718" type="qcurve"/>
      <point x="397" y="718"/>
      <point x="450" y="668" type="qcurve"/>
      <point x="471" y="648"/>
      <point x="472" y="646" type="qcurve"/>
      <point x="473" y="652"/>
      <point x="477" y="689"/>
      <point x="497" y="689" type="qcurve"/>
      <point x="521" y="687"/>
      <point x="557" y="657"/>
      <point x="557" y="643" type="qcurve"/>
      <point x="522" y="553"/>
      <point x="458" y="177" type="qcurve"/>
      <point x="440" y="68"/>
      <point x="433" y="8" type="qcurve"/>
      <point x="430" y="-17"/>
    </contour>
  </outline>
</glyph>
<glyph name="colon" format="2">
  <advance height="1000" width="350"/>
  <unicode hex="003A"/>
  <outline>
    <contour>
      <point x="208" y="-13"/>
      <point x="154" y="-13"/>
      <point x="119" y="32"/>
      <point x="119" y="80"/>
      <point x="153" y="107"/>
      <point x="176" y="107" type="qcurve"/>
      <point x="200" y="107"/>
      <point x="236" y="62"/>
      <point x="236" y="40" type="qcurve"/>
      <point x="236" y="17"/>
    </contour>
    <contour>
      <point x="208" y="358"/>
      <point x="154" y="358"/>
      <point x="119" y="403"/>
      <point x="119" y="451"/>
      <point x="153" y="478"/>
      <point x="176" y="478" type="qcurve"/>
      <point x="200" y="478"/>
      <point x="236" y="433"/>
      <point x="236" y="411" type="qcurve"/>
      <point x="236" y="388"/>
    </contour>
  </outline>
</glyph>
<glyph name="semicolon" format="2">
  <advance height="1000" width="350"/>
  <unicode hex="003B"/>
  <outline>
    <contour>
      <point x="120" y="-106" type="qcurve"/>
      <point x="100" y="-106"/>
      <point x="100" y="-86" type="qcurve"/>
      <point x="100" y="-75"/>
      <point x="109" y="-69" type="qcurve"/>
      <point x="127" y="-57"/>
      <point x="143" y="-38" type="qcurve"/>
      <point x="158" y="-19"/>
      <point x="162" y="-7" type="qcurve"/>
      <point x="150" y="-7"/>
      <point x="140" y="1" type="qcurve"/>
      <point x="116" y="23"/>
      <point x="116" y="50" type="qcurve"/>
      <point x="116" y="76"/>
      <point x="152" y="103"/>
      <point x="198" y="103"/>
      <point x="229" y="63"/>
      <point x="233" y="28" type="qcurve"/>
      <point x="233" y="-8"/>
      <point x="173" y="-85"/>
      <point x="131" y="-103" type="qcurve"/>
      <point x="125" y="-106"/>
    </contour>
    <contour>
      <point x="208" y="358"/>
      <point x="154" y="358"/>
      <point x="119" y="403"/>
      <point x="119" y="451"/>
      <point x="153" y="478"/>
      <point x="176" y="478" type="qcurve"/>
      <point x="200" y="478"/>
      <point x="236" y="433"/>
      <point x="236" y="411" type="qcurve"/>
      <point x="236" y="388"/>
    </contour>
  </outline>
</glyph>
<glyph name="less" format="2">
  <advance height="1000" width="600"/>
  <unicode hex="003C"/>
  <outline>
    <contour>
      <point x="483" y="-22" type="qcurve"/>
      <point x="479" y="-22"/>
      <point x="473" y="-18" type="qcurve"/>
      <point x="378" y="54"/>
      <point x="199" y="151" type="qcurve"/>
      <point x="137" y="184"/>
      <point x="129" y="185" type="qcurve"/>
      <point x="87" y="194"/>
      <point x="87" y="248" type="qcurve"/>
      <point x="87" y="261"/>
      <point x="97" y="278"/>
      <point x="131" y="289"/>
      <point x="175" y="313" type="qcurve"/>
      <point x="236" y="344"/>
      <point x="422" y="453"/>
      <point x="473" y="494" type="qcurve"/>
      <point x="479" y="498"/>
      <point x="484" y="498" type="qcurve"/>
      <point x="498" y="498"/>
      <point x="513" y="462"/>
      <point x="513" y="444" type="qcurve"/>
      <point x="513" y="422"/>
      <point x="501" y="416" type="qcurve"/>
      <point x="467" y="397"/>
      <point x="292" y="292"/>
      <point x="179" y="236" type="qcurve"/>
      <point x="329" y="162"/>
      <point x="463" y="81" type="qcurve"/>
      <point x="479" y="72"/>
      <point x="508" y="54"/>
      <point x="508" y="32" type="qcurve"/>
      <point x="508" y="-22"/>
    </contour>
  </outline>
</glyph>
<glyph name="equal" format="2">
  <advance height="1000" width="600"/>
  <unicode hex="003D"/>
  <outline>
    <contour>
      <point x="81" y="118" type="qcurve"/>
      <point x="67" y="118"/>
      <point x="54" y="149"/>
      <point x="54" y="163" type="qcurve"/>
      <point x="54" y="193"/>
      <point x="76" y="193" type="qcurve"/>
      <point x="106" y="191"/>
      <point x="302" y="191" type="qcurve"/>
      <point x="474" y="191"/>
      <point x="516" y="194" type="qcurve"/>
      <point x="546" y="194"/>
      <point x="546" y="144" type="qcurve"/>
      <point x="546" y="119"/>
      <point x="525" y="119" type="qcurve"/>
      <point x="444" y="121" type="line"/>
      <point x="99" y="121"/>
    </contour>
    <contour>
      <point x="81" y="306" type="qcurve"/>
      <point x="67" y="306"/>
      <point x="54" y="337"/>
      <point x="54" y="351" type="qcurve"/>
      <point x="54" y="381"/>
      <point x="76" y="381" type="qcurve"/>
      <point x="106" y="379"/>
      <point x="302" y="379" type="qcurve"/>
      <point x="474" y="379"/>
      <point x="516" y="382" type="qcurve"/>
      <point x="546" y="382"/>
      <point x="546" y="332" type="qcurve"/>
      <point x="546" y="307"/>
      <point x="525" y="307" type="qcurve"/>
      <point x="444" y="309" type="line"/>
      <point x="99" y="309"/>
    </contour>
  </outline>
</glyph>
<glyph name="greater" format="2">
  <advance height="1000" width="600"/>
  <unicode hex="003E"/>
  <outline>
    <contour>
      <point x="120" y="-21" type="qcurve"/>
      <point x="106" y="-21"/>
      <point x="91" y="15"/>
      <point x="91" y="34" type="qcurve"/>
      <point x="91" y="56"/>
      <point x="103" y="61" type="qcurve"/>
      <point x="137" y="80"/>
      <point x="307" y="181"/>
      <point x="426" y="241" type="qcurve"/>
      <point x="233" y="340"/>
      <point x="124" y="406"/>
      <point x="96" y="423"/>
      <point x="96" y="446" type="qcurve"/>
      <point x="96" y="499"/>
      <point x="121" y="499" type="qcurve"/>
      <point x="126" y="499"/>
      <point x="205" y="439"/>
      <point x="458" y="295"/>
      <point x="485" y="290"/>
      <point x="505" y="278"/>
      <point x="517" y="243"/>
      <point x="517" y="230" type="qcurve"/>
      <point x="517" y="216"/>
      <point x="508" y="200"/>
      <point x="492" y="194" type="qcurve"/>
      <point x="447" y="179"/>
      <point x="182" y="24"/>
      <point x="132" y="-17" type="qcurve"/>
      <point x="126" y="-21"/>
    </contour>
  </outline>
</glyph>
<glyph name="question" format="2">
  <advance height="1000" width="600"/>
  <unicode hex="003F"/>
  <outline>
    <contour>
      <point x="294" y="-15" type="qcurve"/>
      <point x="267" y="-15"/>
      <point x="232" y="27"/>
      <point x="232" y="51" type="qcurve"/>
      <point x="232" y="74"/>
      <point x="261" y="107"/>
      <point x="313" y="107"/>
      <point x="349" y="62"/>
      <point x="349" y="39" type="qcurve"/>
      <point x="349" y="-15"/>
    </contour>
    <contour>
      <point x="298" y="162" type="qcurve"/>
      <point x="261" y="162"/>
      <point x="247" y="200"/>
      <point x="247" y="224" type="qcurve"/>
      <point x="247" y="247"/>
      <point x="257" y="316"/>
      <point x="301" y="375"/>
      <point x="356" y="423"/>
      <point x="383" y="446" type="qcurve"/>
      <point x="443" y="500"/>
      <point x="443" y="568" type="qcurve"/>
      <point x="443" y="602"/>
      <point x="400" y="648"/>
      <point x="353" y="648" type="qcurve"/>
      <point x="304" y="648"/>
      <point x="223" y="611"/>
      <point x="173" y="560"/>
      <point x="161" y="517" type="qcurve"/>
      <point x="155" y="500"/>
      <point x="137" y="500" type="qcurve"/>
      <point x="120" y="500"/>
      <point x="84" y="530"/>
      <point x="84" y="544" type="qcurve"/>
      <point x="84" y="556"/>
      <point x="87" y="560" type="qcurve"/>
      <point x="177" y="719"/>
      <point x="350" y="719" type="qcurve"/>
      <point x="434" y="719"/>
      <point x="528" y="642"/>
      <point x="528" y="581" type="qcurve"/>
      <point x="528" y="521"/>
      <point x="508" y="483" type="qcurve"/>
      <point x="480" y="430"/>
      <point x="402" y="369" type="qcurve"/>
      <point x="372" y="346"/>
      <point x="326" y="291"/>
      <point x="326" y="254" type="qcurve"/>
      <point x="326" y="225"/>
      <point x="336" y="185" type="qcurve"/>
      <point x="336" y="162"/>
    </contour>
  </outline>
</glyph>
<glyph name="at" format="2">
  <advance height="1000" width="784"/>
  <unicode hex="0040"/>
  <outline>
    <contour>
      <point x="332" y="219" type="qcurve"/>
      <point x="397" y="219"/>
      <point x="445" y="287" type="qcurve"/>
      <point x="492" y="352"/>
      <point x="492" y="426" type="qcurve"/>
      <point x="492" y="461"/>
      <point x="456" y="497"/>
      <point x="390" y="497"/>
      <point x="322" y="444"/>
      <point x="278" y="356"/>
      <point x="278" y="302" type="qcurve"/>
      <point x="278" y="219"/>
    </contour>
    <contour>
      <point x="393" y="-23" type="qcurve"/>
      <point x="284" y="-23"/>
      <point x="121" y="55"/>
      <point x="30" y="203"/>
      <point x="30" y="296" type="qcurve"/>
      <point x="30" y="470"/>
      <point x="254" y="718"/>
      <point x="428" y="718" type="qcurve"/>
      <point x="519" y="718"/>
      <point x="670" y="647"/>
      <point x="755" y="515"/>
      <point x="755" y="429" type="qcurve"/>
      <point x="755" y="344"/>
      <point x="703" y="215"/>
      <point x="619" y="142"/>
      <point x="571" y="142" type="qcurve"/>
      <point x="486" y="142"/>
      <point x="486" y="236" type="qcurve"/>
      <point x="486" y="241"/>
      <point x="484" y="241"/>
      <point x="481" y="224" type="qcurve"/>
      <point x="430" y="143"/>
      <point x="332" y="143" type="qcurve"/>
      <point x="269" y="143"/>
      <point x="194" y="226"/>
      <point x="194" y="298" type="qcurve"/>
      <point x="194" y="369"/>
      <point x="255" y="491"/>
      <point x="359" y="566"/>
      <point x="424" y="566" type="qcurve"/>
      <point x="490" y="566"/>
      <point x="514" y="532" type="qcurve"/>
      <point x="514" y="545" type="line"/>
      <point x="514" y="556"/>
      <point x="532" y="556" type="qcurve"/>
      <point x="545" y="556"/>
      <point x="576" y="544"/>
      <point x="601" y="524"/>
      <point x="601" y="511" type="qcurve"/>
      <point x="600" y="506" type="line"/>
      <point x="559" y="385"/>
      <point x="559" y="252" type="qcurve"/>
      <point x="559" y="211"/>
      <point x="573" y="211" type="qcurve"/>
      <point x="597" y="211"/>
      <point x="646" y="260"/>
      <point x="681" y="356"/>
      <point x="681" y="428" type="qcurve"/>
      <point x="681" y="498"/>
      <point x="613" y="599"/>
      <point x="495" y="651"/>
      <point x="426" y="651" type="qcurve"/>
      <point x="295" y="651"/>
      <point x="108" y="444"/>
      <point x="108" y="313" type="qcurve"/>
      <point x="108" y="179"/>
      <point x="262" y="48"/>
      <point x="508" y="48"/>
      <point x="620" y="119" type="qcurve"/>
      <point x="671" y="152"/>
      <point x="705" y="190" type="qcurve"/>
      <point x="718" y="205"/>
      <point x="730" y="205" type="qcurve"/>
      <point x="750" y="205"/>
      <point x="750" y="183" type="qcurve"/>
      <point x="750" y="175"/>
      <point x="744" y="163" type="qcurve"/>
      <point x="709" y="109"/>
      <point x="654" y="67" type="qcurve"/>
      <point x="536" y="-23"/>
    </contour>
  </outline>
</glyph>
<glyph name="B" format="2">
  <advance height="1000" width="650"/>
  <unicode hex="0042"/>
  <outline>
    <contour>
      <point x="182" y="45" type="line"/>
      <point x="419" y="45"/>
      <point x="490" y="127" type="qcurve"/>
      <point x="522" y="163"/>
      <point x="522" y="207" type="qcurve"/>
      <point x="522" y="284"/>
      <point x="463" y="320" type="qcurve"/>
      <point x="415" y="350"/>
      <point x="346" y="352" type="qcurve"/>
      <point x="253" y="352"/>
      <point x="182" y="346" type="qcurve"/>
    </contour>
    <contour>
      <point x="189" y="414" type="line"/>
      <point x="263" y="414"/>
      <point x="349" y="430"/>
      <point x="419" y="464"/>
      <point x="466" y="517"/>
      <point x="466" y="551" type="qcurve"/>
      <point x="466" y="644"/>
      <point x="308" y="644" type="qcurve"/>
      <point x="239" y="644"/>
      <point x="182" y="628" type="qcurve"/>
      <point x="182" y="414" type="line"/>
    </contour>
    <contour>
      <point x="227" y="-16" type="qcurve"/>
      <point x="47" y="-16"/>
      <point x="47" y="17" type="qcurve"/>
      <point x="47" y="26"/>
      <point x="63" y="40"/>
      <point x="97" y="40"/>
      <point x="100" y="41" type="qcurve"/>
      <point x="100" y="621" type="line"/>
      <point x="90" y="624"/>
      <point x="60" y="655"/>
      <point x="60" y="667" type="qcurve"/>
      <point x="60" y="680"/>
      <point x="71" y="685" type="qcurve"/>
      <point x="97" y="695"/>
      <point x="252" y="717"/>
      <point x="326" y="717" type="qcurve"/>
      <point x="401" y="717"/>
      <point x="451" y="696" type="qcurve"/>
      <point x="549" y="655"/>
      <point x="549" y="557" type="qcurve"/>
      <point x="549" y="478"/>
      <point x="480" y="425" type="qcurve"/>
      <point x="450" y="404"/>
      <point x="444" y="401" type="qcurve"/>
      <point x="469" y="399"/>
      <point x="553" y="348"/>
      <point x="605" y="267"/>
      <point x="605" y="208" type="qcurve"/>
      <point x="605" y="148"/>
      <point x="577" y="105" type="qcurve"/>
      <point x="499" y="-16"/>
    </contour>
  </outline>
</glyph>
<glyph name="C" format="2">
  <advance height="1000" width="703"/>
  <unicode hex="0043"/>
  <outline>
    <contour>
      <point x="357" y="-24" type="qcurve"/>
      <point x="269" y="-24"/>
      <point x="127" y="41"/>
      <point x="45" y="181"/>
      <point x="45" y="282" type="qcurve"/>
      <point x="45" y="472"/>
      <point x="253" y="719"/>
      <point x="408" y="719" type="qcurve"/>
      <point x="560" y="719"/>
      <point x="633" y="632" type="qcurve"/>
      <point x="637" y="626"/>
      <point x="637" y="614" type="qcurve"/>
      <point x="637" y="601"/>
      <point x="608" y="563"/>
      <point x="594" y="563" type="qcurve"/>
      <point x="579" y="563"/>
      <point x="571" y="575" type="qcurve"/>
      <point x="527" y="643"/>
      <point x="410" y="643" type="qcurve"/>
      <point x="292" y="643"/>
      <point x="213" y="546" type="qcurve"/>
      <point x="129" y="447"/>
      <point x="129" y="289" type="qcurve"/>
      <point x="129" y="132"/>
      <point x="241" y="77" type="qcurve"/>
      <point x="293" y="51"/>
      <point x="351" y="51" type="qcurve"/>
      <point x="408" y="51"/>
      <point x="508" y="85"/>
      <point x="601" y="148"/>
      <point x="631" y="189" type="qcurve"/>
      <point x="645" y="206"/>
      <point x="661" y="206" type="qcurve"/>
      <point x="680" y="206"/>
      <point x="680" y="187" type="qcurve"/>
      <point x="680" y="172"/>
      <point x="665" y="147" type="qcurve"/>
      <point x="631" y="87"/>
      <point x="559" y="39" type="qcurve"/>
      <point x="469" y="-24"/>
    </contour>
  </outline>
</glyph>
<glyph name="E" format="2">
  <advance height="1000" width="638"/>
  <unicode hex="0045"/>
  <outline>
    <contour>
      <point x="142" y="-16" type="qcurve"/>
      <point x="124" y="-16"/>
      <point x="93" y="23"/>
      <point x="93" y="37" type="qcurve"/>
      <point x="100" y="84" type="line"/>
      <point x="100" y="340" type="line"/>
      <point x="90" y="346"/>
      <point x="73" y="381"/>
      <point x="73" y="393" type="qcurve"/>
      <point x="73" y="410"/>
      <point x="89" y="410" type="qcurve"/>
      <point x="100" y="408" type="line"/>
      <point x="100" y="634" type="line"/>
      <point x="96" y="685" type="line"/>
      <point x="96" y="705"/>
      <point x="116" y="705" type="qcurve"/>
      <point x="131" y="705"/>
      <point x="151" y="699" type="qcurve"/>
      <point x="171" y="692" type="line"/>
      <point x="453" y="711"/>
      <point x="488" y="715" type="qcurve"/>
      <point x="514" y="718"/>
      <point x="526" y="718" type="qcurve"/>
      <point x="540" y="718"/>
      <point x="563" y="679"/>
      <point x="563" y="662" type="qcurve"/>
      <point x="563" y="640"/>
      <point x="544" y="640" type="qcurve"/>
      <point x="456" y="640"/>
      <point x="180" y="621" type="qcurve"/>
      <point x="180" y="409" type="line"/>
      <point x="397" y="423"/>
      <point x="433" y="427" type="qcurve"/>
      <point x="459" y="430"/>
      <point x="471" y="430" type="qcurve"/>
      <point x="485" y="430"/>
      <point x="508" y="391"/>
      <point x="508" y="373" type="qcurve"/>
      <point x="508" y="351"/>
      <point x="489" y="351" type="qcurve"/>
      <point x="404" y="351"/>
      <point x="180" y="338" type="qcurve"/>
      <point x="180" y="65" type="line"/>
      <point x="523" y="71"/>
      <point x="555" y="73" type="qcurve"/>
      <point x="573" y="73"/>
      <point x="594" y="31"/>
      <point x="594" y="14" type="qcurve"/>
      <point x="594" y="-8"/>
      <point x="576" y="-8" type="qcurve"/>
      <point x="552" y="-5"/>
      <point x="473" y="-5" type="qcurve"/>
      <point x="179" y="-9"/>
      <point x="157" y="-16"/>
    </contour>
  </outline>
</glyph>
<glyph name="O" format="2">
  <advance height="1000" width="745"/>
  <unicode hex="004F"/>
  <outline>
    <contour>
      <point x="354" y="52" type="qcurve"/>
      <point x="495" y="52"/>
      <point x="560" y="148" type="qcurve"/>
      <point x="619" y="236"/>
      <point x="619" y="371" type="qcurve"/>
      <point x="619" y="481"/>
      <point x="503" y="647"/>
      <point x="399" y="647" type="qcurve"/>
      <point x="357" y="647"/>
      <point x="262" y="608"/>
      <point x="180" y="530"/>
      <point x="128" y="415"/>
      <point x="128" y="338" type="qcurve"/>
      <point x="128" y="260"/>
      <point x="177" y="130"/>
      <point x="278" y="52"/>
    </contour>
    <contour>
      <point x="366" y="-24" type="qcurve"/>
      <point x="257" y="-24"/>
      <point x="115" y="71"/>
      <point x="47" y="234"/>
      <point x="47" y="320" type="qcurve"/>
      <point x="47" y="405"/>
      <point x="80" y="523"/>
      <point x="129" y="613"/>
      <point x="179" y="664"/>
      <point x="198" y="664" type="qcurve"/>
      <point x="216" y="664"/>
      <point x="224" y="655" type="qcurve"/>
      <point x="297" y="719"/>
      <point x="497" y="719"/>
      <point x="630" y="626"/>
      <point x="701" y="465"/>
      <point x="701" y="375" type="qcurve"/>
      <point x="701" y="198"/>
      <point x="621" y="91" type="qcurve"/>
      <point x="532" y="-24"/>
    </contour>
  </outline>
</glyph>
<glyph name="Q" format="2">
  <advance height="1000" width="745"/>
  <unicode hex="0051"/>
  <outline>
    <contour>
      <point x="358" y="51" type="qcurve"/>
      <point x="407" y="51"/>
      <point x="439" y="61" type="qcurve"/>
      <point x="346" y="146"/>
      <point x="328" y="153"/>
      <point x="324" y="166" type="qcurve"/>
      <point x="324" y="185"/>
      <point x="363" y="202" type="qcurve"/>
      <point x="378" y="208"/>
      <point x="390" y="208" type="qcurve"/>
      <point x="411" y="205"/>
      <point x="419" y="196" type="qcurve"/>
      <point x="438" y="169"/>
      <point x="512" y="95" type="qcurve"/>
      <point x="617" y="167"/>
      <point x="617" y="371" type="qcurve"/>
      <point x="617" y="481"/>
      <point x="563" y="561" type="qcurve"/>
      <point x="505" y="648"/>
      <point x="399" y="648" type="qcurve"/>
      <point x="302" y="648"/>
      <point x="218" y="566" type="qcurve"/>
      <point x="129" y="478"/>
      <point x="129" y="339" type="qcurve"/>
      <point x="129" y="260"/>
      <point x="176" y="129"/>
      <point x="277" y="51"/>
    </contour>
    <contour>
      <point x="666" y="-77" type="qcurve"/>
      <point x="630" y="-77"/>
      <point x="583" y="-63"/>
      <point x="537" y="-28"/>
      <point x="504" y="2" type="qcurve"/>
      <point x="446" y="-24"/>
      <point x="366" y="-24" type="qcurve"/>
      <point x="257" y="-24"/>
      <point x="115" y="71"/>
      <point x="47" y="234"/>
      <point x="47" y="320" type="qcurve"/>
      <point x="47" y="405"/>
      <point x="80" y="523"/>
      <point x="129" y="613"/>
      <point x="179" y="664"/>
      <point x="198" y="664" type="qcurve"/>
      <point x="216" y="664"/>
      <point x="224" y="655" type="qcurve"/>
      <point x="297" y="719"/>
      <point x="397" y="719" type="qcurve"/>
      <point x="496" y="719"/>
      <point x="629" y="626"/>
      <point x="701" y="465"/>
      <point x="701" y="364" type="qcurve"/>
      <point x="701" y="262"/>
      <point x="633" y="87"/>
      <point x="567" y="39" type="qcurve"/>
      <point x="617" y="-10"/>
      <point x="652" y="-23" type="qcurve"/>
      <point x="707" y="-46"/>
      <point x="707" y="-62" type="qcurve"/>
      <point x="707" y="-77"/>
    </contour>
  </outline>
</glyph>
<glyph name="S" format="2">
  <advance height="1000" width="617"/>
  <unicode hex="0053"/>
  <outline>
    <contour>
      <point x="300" y="-24" type="qcurve"/>
      <point x="141" y="-24"/>
      <point x="43" y="87" type="qcurve"/>
      <point x="36" y="94"/>
      <point x="36" y="126"/>
      <point x="65" y="165"/>
      <point x="79" y="165" type="qcurve"/>
      <point x="92" y="165"/>
      <point x="98" y="155" type="qcurve"/>
      <point x="162" y="51"/>
      <point x="302" y="51" type="qcurve"/>
      <point x="350" y="51"/>
      <point x="432" y="87"/>
      <point x="483" y="147"/>
      <point x="483" y="184" type="qcurve"/>
      <point x="483" y="246"/>
      <point x="416" y="316"/>
      <point x="349" y="333" type="qcurve"/>
      <point x="233" y="364" type="line"/>
      <point x="158" y="381"/>
      <point x="69" y="456"/>
      <point x="69" y="526" type="qcurve"/>
      <point x="69" y="576"/>
      <point x="133" y="665"/>
      <point x="244" y="719"/>
      <point x="308" y="719" type="qcurve"/>
      <point x="371" y="719"/>
      <point x="469" y="685"/>
      <point x="531" y="637"/>
      <point x="531" y="612" type="qcurve"/>
      <point x="531" y="588"/>
      <point x="510" y="555"/>
      <point x="490" y="555"/>
      <point x="475" y="570"/>
      <point x="469" y="576" type="qcurve"/>
      <point x="436" y="618"/>
      <point x="368" y="636" type="qcurve"/>
      <point x="339" y="644"/>
      <point x="305" y="644" type="qcurve"/>
      <point x="270" y="644"/>
      <point x="195" y="608"/>
      <point x="152" y="554"/>
      <point x="152" y="523" type="qcurve"/>
      <point x="152" y="461"/>
      <point x="262" y="436" type="qcurve"/>
      <point x="371" y="408" type="line"/>
      <point x="566" y="358"/>
      <point x="566" y="192" type="qcurve"/>
      <point x="566" y="132"/>
      <point x="503" y="33"/>
      <point x="385" y="-24"/>
    </contour>
  </outline>
</glyph>
<glyph name="T" format="2">
  <advance height="1000" width="577"/>
  <unicode hex="0054"/>
  <outline>
    <contour>
      <point x="307" y="-17" type="qcurve"/>
      <point x="286" y="-17"/>
      <point x="243" y="1"/>
      <point x="243" y="18" type="qcurve"/>
      <point x="245" y="107" type="line"/>
      <point x="246" y="626" type="line"/>
      <point x="97" y="617"/>
      <point x="78" y="615" type="qcurve"/>
      <point x="55" y="611"/>
      <point x="43" y="610" type="qcurve"/>
      <point x="25" y="610"/>
      <point x="3" y="650"/>
      <point x="3" y="669" type="qcurve"/>
      <point x="3" y="691"/>
      <point x="22" y="691" type="qcurve"/>
      <point x="93" y="689" type="line"/>
      <point x="494" y="711"/>
      <point x="531" y="716" type="qcurve"/>
      <point x="549" y="716"/>
      <point x="569" y="675"/>
      <point x="569" y="658" type="qcurve"/>
      <point x="569" y="635"/>
      <point x="551" y="635" type="qcurve"/>
      <point x="471" y="638" type="line"/>
      <point x="328" y="630" type="line"/>
      <point x="329" y="106"/>
      <point x="332" y="0" type="qcurve"/>
      <point x="332" y="-17"/>
    </contour>
  </outline>
</glyph>
<glyph name="W" format="2">
  <advance height="1000" width="880"/>
  <unicode hex="0057"/>
  <outline>
    <contour>
      <point x="640" y="-24" type="qcurve"/>
      <point x="617" y="-24"/>
      <point x="576" y="11"/>
      <point x="567" y="45" type="qcurve"/>
      <point x="490" y="377"/>
      <point x="439" y="560" type="qcurve"/>
      <point x="411" y="470"/>
      <point x="324" y="157"/>
      <point x="297" y="62"/>
      <point x="289" y="26"/>
      <point x="272" y="-23"/>
      <point x="250" y="-23" type="qcurve"/>
      <point x="229" y="-23"/>
      <point x="190" y="12"/>
      <point x="181" y="45" type="qcurve"/>
      <point x="56" y="560"/>
      <point x="5" y="681" type="qcurve"/>
      <point x="3" y="685"/>
      <point x="3" y="689" type="qcurve"/>
      <point x="3" y="711"/>
      <point x="49" y="711" type="qcurve"/>
      <point x="93" y="711"/>
      <point x="105" y="660"/>
      <point x="112" y="634" type="qcurve"/>
      <point x="176" y="416"/>
      <point x="236" y="127" type="qcurve"/>
      <point x="265" y="247"/>
      <point x="341" y="505"/>
      <point x="382" y="645"/>
      <point x="384" y="696"/>
      <point x="427" y="696" type="qcurve"/>
      <point x="446" y="696"/>
      <point x="485" y="682"/>
      <point x="489" y="655"/>
      <point x="510" y="587"/>
      <point x="597" y="256"/>
      <point x="626" y="124" type="qcurve"/>
      <point x="701" y="399"/>
      <point x="774" y="638"/>
      <point x="790" y="703" type="qcurve"/>
      <point x="795" y="717"/>
      <point x="813" y="717" type="qcurve"/>
      <point x="827" y="717"/>
      <point x="842" y="712" type="qcurve"/>
      <point x="880" y="696"/>
      <point x="880" y="673" type="qcurve"/>
      <point x="880" y="669"/>
      <point x="874" y="654" type="qcurve"/>
      <point x="825" y="539"/>
      <point x="689" y="77" type="qcurve"/>
      <point x="672" y="6" type="line"/>
      <point x="665" y="-24"/>
    </contour>
  </outline>
</glyph>
<glyph name="Y" format="2">
  <advance height="1000" width="600"/>
  <unicode hex="0059"/>
  <outline>
    <contour>
      <point x="314" y="-15" type="qcurve"/>
      <point x="294" y="-15"/>
      <point x="250" y="2"/>
      <point x="250" y="19" type="qcurve"/>
      <point x="252" y="108" type="line"/>
      <point x="252" y="290" type="line"/>
      <point x="157" y="463"/>
      <point x="47" y="623" type="qcurve"/>
      <point x="26" y="652"/>
      <point x="9" y="674"/>
      <point x="9" y="679" type="qcurve"/>
      <point x="9" y="694"/>
      <point x="51" y="707"/>
      <point x="71" y="707" type="qcurve"/>
      <point x="93" y="707"/>
      <point x="99" y="698" type="qcurve"/>
      <point x="107" y="685"/>
      <point x="125" y="650"/>
      <point x="174" y="570"/>
      <point x="259" y="433"/>
      <point x="294" y="372" type="qcurve"/>
      <point x="378" y="508"/>
      <point x="485" y="678"/>
      <point x="498" y="702" type="qcurve"/>
      <point x="506" y="715"/>
      <point x="527" y="715" type="qcurve"/>
      <point x="546" y="715"/>
      <point x="588" y="696"/>
      <point x="588" y="682" type="qcurve"/>
      <point x="585" y="675" type="line"/>
      <point x="510" y="584"/>
      <point x="365" y="342" type="qcurve"/>
      <point x="336" y="292" type="line"/>
      <point x="336" y="107"/>
      <point x="339" y="1" type="qcurve"/>
      <point x="339" y="-15"/>
    </contour>
  </outline>
</glyph>
<glyph name="bracketleft" format="2">
  <advance height="1000" width="350"/>
  <unicode hex="005B"/>
  <outline>
    <contour>
      <point x="191" y="-157" type="qcurve"/>
      <point x="174" y="-157"/>
      <point x="149" y="-127"/>
      <point x="149" y="-114" type="qcurve"/>
      <point x="152" y="-51"/>
      <point x="152" y="678" type="qcurve"/>
      <point x="147" y="737" type="line"/>
      <point x="147" y="754"/>
      <point x="168" y="770"/>
      <point x="196" y="770" type="qcurve"/>
      <point x="300" y="772" type="line"/>
      <point x="317" y="772"/>
      <point x="336" y="743"/>
      <point x="336" y="726" type="qcurve"/>
      <point x="336" y="705"/>
      <point x="315" y="705" type="qcurve"/>
      <point x="225" y="705" type="line"/>
      <point x="225" y="-89" type="line"/>
      <point x="303" y="-86" type="line"/>
      <point x="314" y="-86"/>
      <point x="333" y="-116"/>
      <point x="333" y="-132" type="qcurve"/>
      <point x="333" y="-153"/>
      <point x="313" y="-153" type="qcurve"/>
      <point x="226" y="-153" type="line"/>
      <point x="211" y="-153"/>
    </contour>
  </outline>
</glyph>
<glyph name="backslash" format="2">
  <advance height="1000" width="350"/>
  <unicode hex="005C"/>
  <outline>
    <contour>
      <point x="297" y="-48" type="qcurve"/>
      <point x="280" y="-48"/>
      <point x="273" y="-28" type="qcurve"/>
      <point x="265" y="-1"/>
      <point x="248" y="45" type="qcurve"/>
      <point x="25" y="658"/>
      <point x="12" y="685" type="qcurve"/>
      <point x="3" y="705"/>
      <point x="3" y="719"/>
      <point x="20" y="740"/>
      <point x="44" y="757"/>
      <point x="55" y="757" type="qcurve"/>
      <point x="69" y="757"/>
      <point x="82" y="705"/>
      <point x="97" y="662" type="qcurve"/>
      <point x="321" y="44"/>
      <point x="342" y="5"/>
      <point x="342" y="-8" type="qcurve"/>
      <point x="342" y="-22"/>
      <point x="312" y="-48"/>
    </contour>
  </outline>
</glyph>
<glyph name="bracketright" format="2">
  <advance height="1000" width="350"/>
  <unicode hex="005D"/>
  <outline>
    <contour>
      <point x="50" y="-156" type="qcurve"/>
      <point x="33" y="-156"/>
      <point x="14" y="-127"/>
      <point x="14" y="-110" type="qcurve"/>
      <point x="14" y="-89"/>
      <point x="35" y="-89" type="qcurve"/>
      <point x="125" y="-89" type="line"/>
      <point x="125" y="705" type="line"/>
      <point x="48" y="702" type="line"/>
      <point x="36" y="702"/>
      <point x="17" y="732"/>
      <point x="17" y="749" type="qcurve"/>
      <point x="17" y="769"/>
      <point x="37" y="769" type="qcurve"/>
      <point x="124" y="769" type="line"/>
      <point x="139" y="769"/>
      <point x="159" y="773" type="qcurve"/>
      <point x="177" y="773"/>
      <point x="201" y="743"/>
      <point x="201" y="730" type="qcurve"/>
      <point x="198" y="667"/>
      <point x="198" y="-62" type="qcurve"/>
      <point x="203" y="-121" type="line"/>
      <point x="203" y="-154"/>
      <point x="154" y="-154" type="qcurve"/>
      <point x="56" y="-155"/>
    </contour>
  </outline>
</glyph>
<glyph name="asciicircum" format="2">
  <advance height="1000" width="600"/>
  <unicode hex="005E"/>
  <outline>
    <contour>
      <point x="125" y="266" type="qcurve"/>
      <point x="109" y="266"/>
      <point x="71" y="283"/>
      <point x="71" y="297" type="qcurve"/>
      <point x="71" y="301"/>
      <point x="77" y="313" type="qcurve"/>
      <point x="91" y="336"/>
      <point x="255" y="676" type="qcurve"/>
      <point x="260" y="688"/>
      <point x="262" y="700" type="qcurve"/>
      <point x="266" y="723"/>
      <point x="312" y="723" type="qcurve"/>
      <point x="326" y="723"/>
      <point x="338" y="700"/>
      <point x="423" y="525" type="qcurve"/>
      <point x="515" y="334"/>
      <point x="536" y="294"/>
      <point x="536" y="291" type="qcurve"/>
      <point x="536" y="268"/>
      <point x="484" y="268" type="qcurve"/>
      <point x="459" y="268"/>
      <point x="453" y="284" type="qcurve"/>
      <point x="441" y="326"/>
      <point x="433" y="343" type="qcurve"/>
      <point x="303" y="616" type="line"/>
      <point x="173" y="343" type="line"/>
      <point x="160" y="313"/>
      <point x="149" y="278" type="qcurve"/>
      <point x="144" y="266"/>
    </contour>
  </outline>
</glyph>
<glyph name="grave" format="2">
  <advance height="1000" width="350"/>
  <unicode hex="0060"/>
  <unicode hex="0300"/>
  <unicode hex="02CB"/>
  <outline>
    <contour>
      <point x="246" y="558"/>
      <point x="218" y="558"/>
      <point x="209" y="567" type="qcurve"/>
      <point x="89" y="670" type="line"/>
      <point x="79" y="679"/>
      <point x="79" y="709"/>
      <point x="113" y="738"/>
      <point x="130" y="738" type="qcurve"/>
      <point x="148" y="738"/>
      <point x="157" y="727" type="qcurve"/>
      <point x="260" y="621" type="line"/>
      <point x="269" y="612"/>
      <point x="269" y="599" type="qcurve"/>
      <point x="269" y="585"/>
    </contour>
  </outline>
</glyph>
<glyph name="a" format="2">
  <advance height="1000" width="575"/>
  <unicode hex="0061"/>
  <outline>
    <contour>
      <point x="220" y="48" type="qcurve"/>
      <point x="262" y="48"/>
      <point x="303" y="79" type="qcurve"/>
      <point x="405" y="153"/>
      <point x="405" y="330" type="qcurve"/>
      <point x="406" y="365" type="line"/>
      <point x="397" y="365" type="line"/>
      <point x="388" y="365"/>
      <point x="383" y="372" type="qcurve"/>
      <point x="354" y="422"/>
      <point x="298" y="422" type="qcurve"/>
      <point x="241" y="422"/>
      <point x="130" y="282"/>
      <point x="130" y="180" type="qcurve"/>
      <point x="130" y="48"/>
    </contour>
    <contour>
      <point x="217" y="-24" type="qcurve"/>
      <point x="141" y="-24"/>
      <point x="50" y="79"/>
      <point x="50" y="175" type="qcurve"/>
      <point x="50" y="302"/>
      <point x="206" y="492"/>
      <point x="303" y="492" type="qcurve"/>
      <point x="385" y="492"/>
      <point x="407" y="446" type="qcurve"/>
      <point x="407" y="475" type="line"/>
      <point x="407" y="491"/>
      <point x="432" y="491" type="qcurve"/>
      <point x="452" y="491"/>
      <point x="495" y="475"/>
      <point x="495" y="458" type="qcurve"/>
      <point x="482" y="368"/>
      <point x="482" y="195" type="qcurve"/>
      <point x="482" y="92"/>
      <point x="516" y="38" type="qcurve"/>
      <point x="519" y="32"/>
      <point x="519" y="25" type="qcurve"/>
      <point x="519" y="16"/>
      <point x="489" y="-19"/>
      <point x="470" y="-19" type="qcurve"/>
      <point x="424" y="-19"/>
      <point x="411" y="98" type="qcurve"/>
      <point x="383" y="44"/>
      <point x="275" y="-24"/>
    </contour>
  </outline>
</glyph>
<glyph name="b" format="2">
  <advance height="1000" width="573"/>
  <unicode hex="0062"/>
  <outline>
    <contour>
      <point x="219" y="47"/>
      <point x="331" y="47"/>
      <point x="443" y="171"/>
      <point x="443" y="272" type="qcurve"/>
      <point x="443" y="420"/>
      <point x="338" y="420" type="qcurve"/>
      <point x="306" y="420"/>
      <point x="233" y="377"/>
      <point x="171" y="287"/>
      <point x="165" y="209" type="qcurve"/>
      <point x="162" y="167"/>
      <point x="162" y="111" type="qcurve"/>
      <point x="161" y="110" type="line"/>
      <point x="161" y="109"/>
      <point x="163" y="109" type="qcurve"/>
      <point x="177" y="109"/>
      <point x="194" y="84" type="qcurve"/>
    </contour>
    <contour>
      <point x="272" y="-23" type="qcurve"/>
      <point x="231" y="-23"/>
      <point x="168" y="13"/>
      <point x="158" y="27" type="qcurve"/>
      <point x="158" y="30" type="line"/>
      <point x="157" y="21" type="line"/>
      <point x="155" y="12"/>
      <point x="122" y="-11"/>
      <point x="107" y="-11" type="qcurve"/>
      <point x="84" y="-11"/>
      <point x="84" y="15" type="qcurve"/>
      <point x="86" y="106" type="line"/>
      <point x="86" y="593"/>
      <point x="83" y="699" type="qcurve"/>
      <point x="83" y="715"/>
      <point x="107" y="715" type="qcurve"/>
      <point x="126" y="715"/>
      <point x="168" y="698"/>
      <point x="168" y="681" type="qcurve"/>
      <point x="164" y="592" type="line"/>
      <point x="164" y="391" type="line"/>
      <point x="194" y="442"/>
      <point x="290" y="492"/>
      <point x="346" y="492" type="qcurve"/>
      <point x="424" y="492"/>
      <point x="523" y="382"/>
      <point x="523" y="287" type="qcurve"/>
      <point x="523" y="193"/>
      <point x="456" y="56"/>
      <point x="342" y="-23"/>
    </contour>
  </outline>
</glyph>
<glyph name="c" format="2">
  <advance height="1000" width="530"/>
  <unicode hex="0063"/>
  <outline>
    <contour>
      <point x="250" y="-24" type="qcurve"/>
      <point x="196" y="-24"/>
      <point x="105" y="27"/>
      <point x="50" y="124"/>
      <point x="50" y="190" type="qcurve"/>
      <point x="50" y="255"/>
      <point x="96" y="363"/>
      <point x="171" y="445"/>
      <point x="266" y="492"/>
      <point x="311" y="492" type="qcurve"/>
      <point x="355" y="492"/>
      <point x="413" y="468"/>
      <point x="448" y="435"/>
      <point x="464" y="406"/>
      <point x="464" y="401" type="qcurve"/>
      <point x="464" y="383"/>
      <point x="430" y="349"/>
      <point x="419" y="349" type="qcurve"/>
      <point x="407" y="349"/>
      <point x="402" y="357" type="qcurve"/>
      <point x="383" y="395"/>
      <point x="372" y="402" type="qcurve"/>
      <point x="344" y="421"/>
      <point x="315" y="421" type="qcurve"/>
      <point x="254" y="421"/>
      <point x="192" y="356" type="qcurve"/>
      <point x="130" y="286"/>
      <point x="130" y="199" type="qcurve"/>
      <point x="130" y="149"/>
      <point x="149" y="115" type="qcurve"/>
      <point x="187" y="46"/>
      <point x="257" y="46" type="qcurve"/>
      <point x="351" y="46"/>
      <point x="449" y="144" type="qcurve"/>
      <point x="466" y="161"/>
      <point x="477" y="161" type="qcurve"/>
      <point x="492" y="161"/>
      <point x="492" y="146" type="qcurve"/>
      <point x="492" y="135"/>
      <point x="463" y="82"/>
      <point x="433" y="52" type="qcurve"/>
      <point x="360" y="-24"/>
    </contour>
  </outline>
</glyph>
<glyph name="d" format="2">
  <advance height="1000" width="575"/>
  <unicode hex="0064"/>
  <outline>
    <contour>
      <point x="214" y="48" type="qcurve"/>
      <point x="283" y="48"/>
      <point x="411" y="186"/>
      <point x="411" y="276" type="qcurve"/>
      <point x="411" y="367" type="line"/>
      <point x="412" y="369" type="line"/>
      <point x="412" y="371"/>
      <point x="408" y="371" type="qcurve"/>
      <point x="399" y="371"/>
      <point x="393" y="378" type="qcurve"/>
      <point x="362" y="422"/>
      <point x="300" y="422" type="qcurve"/>
      <point x="271" y="422"/>
      <point x="207" y="383"/>
      <point x="183" y="349" type="qcurve"/>
      <point x="130" y="274"/>
      <point x="130" y="118"/>
      <point x="180" y="48"/>
    </contour>
    <contour>
      <point x="213" y="-24" type="qcurve"/>
      <point x="144" y="-24"/>
      <point x="50" y="86"/>
      <point x="50" y="186" type="qcurve"/>
      <point x="50" y="306"/>
      <point x="205" y="492"/>
      <point x="305" y="492" type="qcurve"/>
      <point x="384" y="492"/>
      <point x="411" y="453" type="qcurve"/>
      <point x="411" y="593"/>
      <point x="407" y="699" type="qcurve"/>
      <point x="407" y="715"/>
      <point x="431" y="715" type="qcurve"/>
      <point x="450" y="715"/>
      <point x="491" y="698"/>
      <point x="491" y="681" type="qcurve"/>
      <point x="489" y="592"/>
      <point x="489" y="185" type="qcurve"/>
      <point x="489" y="143"/>
      <point x="507" y="62"/>
      <point x="522" y="42" type="qcurve"/>
      <point x="525" y="36"/>
      <point x="525" y="28" type="qcurve"/>
      <point x="525" y="18"/>
      <point x="494" y="-18"/>
      <point x="477" y="-18" type="qcurve"/>
      <point x="449" y="-18"/>
      <point x="414" y="90"/>
      <point x="414" y="96" type="qcurve"/>
      <point x="342" y="-24"/>
    </contour>
  </outline>
</glyph>
<glyph name="f" format="2">
  <advance height="1000" width="370"/>
  <unicode hex="0066"/>
  <outline>
    <contour>
      <point x="180" y="-17" type="qcurve"/>
      <point x="161" y="-17"/>
      <point x="119" y="0"/>
      <point x="119" y="17" type="qcurve"/>
      <point x="121" y="116" type="line"/>
      <point x="121" y="417" type="line"/>
      <point x="50" y="413" type="line"/>
      <point x="34" y="413"/>
      <point x="11" y="447"/>
      <point x="11" y="463" type="qcurve"/>
      <point x="11" y="482"/>
      <point x="29" y="482" type="qcurve"/>
      <point x="103" y="482"/>
      <point x="121" y="483" type="qcurve"/>
      <point x="121" y="589" type="line"/>
      <point x="121" y="668"/>
      <point x="185" y="699" type="qcurve"/>
      <point x="215" y="714"/>
      <point x="283" y="714"/>
      <point x="334" y="691"/>
      <point x="361" y="659"/>
      <point x="361" y="629"/>
      <point x="338" y="594"/>
      <point x="326" y="594" type="qcurve"/>
      <point x="313" y="594"/>
      <point x="304" y="608" type="qcurve"/>
      <point x="286" y="641"/>
      <point x="244" y="641" type="qcurve"/>
      <point x="227" y="641"/>
      <point x="201" y="615"/>
      <point x="201" y="585" type="qcurve"/>
      <point x="201" y="485" type="line"/>
      <point x="205" y="485"/>
      <point x="228" y="487"/>
      <point x="263" y="489"/>
      <point x="295" y="492"/>
      <point x="303" y="492" type="qcurve"/>
      <point x="319" y="492"/>
      <point x="341" y="458"/>
      <point x="341" y="442" type="qcurve"/>
      <point x="341" y="422"/>
      <point x="323" y="422" type="qcurve"/>
      <point x="259" y="422"/>
      <point x="201" y="420" type="qcurve"/>
      <point x="201" y="105"/>
      <point x="204" y="-1" type="qcurve"/>
      <point x="204" y="-17"/>
    </contour>
  </outline>
</glyph>
<glyph name="g" format="2">
  <advance height="1000" width="580"/>
  <unicode hex="0067"/>
  <outline>
    <contour>
      <point x="222" y="73" type="qcurve"/>
      <point x="310" y="73"/>
      <point x="372" y="142" type="qcurve"/>
      <point x="415" y="190"/>
      <point x="418" y="263" type="qcurve"/>
      <point x="419" y="290"/>
      <point x="419" y="372" type="qcurve"/>
      <point x="419" y="373"/>
      <point x="395" y="373"/>
      <point x="388" y="381" type="qcurve"/>
      <point x="359" y="421"/>
      <point x="294" y="421" type="qcurve"/>
      <point x="264" y="421"/>
      <point x="203" y="385"/>
      <point x="181" y="354" type="qcurve"/>
      <point x="131" y="289"/>
      <point x="131" y="212" type="qcurve"/>
      <point x="131" y="73"/>
    </contour>
    <contour>
      <point x="242" y="-181" type="qcurve"/>
      <point x="172" y="-181"/>
      <point x="87" y="-132"/>
      <point x="59" y="-88" type="qcurve"/>
      <point x="55" y="-82"/>
      <point x="55" y="-70" type="qcurve"/>
      <point x="55" y="-59"/>
      <point x="89" y="-22"/>
      <point x="119" y="-22"/>
      <point x="125" y="-36" type="qcurve"/>
      <point x="142" y="-75"/>
      <point x="194" y="-108"/>
      <point x="294" y="-108"/>
      <point x="372" y="-69"/>
      <point x="418" y="2"/>
      <point x="418" y="51" type="qcurve"/>
      <point x="418" y="97" type="line"/>
      <point x="359" y="1"/>
      <point x="230" y="1" type="qcurve"/>
      <point x="148" y="1"/>
      <point x="51" y="109"/>
      <point x="51" y="317"/>
      <point x="199" y="492"/>
      <point x="391" y="492"/>
      <point x="418" y="447" type="qcurve"/>
      <point x="416" y="475" type="line"/>
      <point x="416" y="491"/>
      <point x="440" y="491" type="qcurve"/>
      <point x="458" y="491"/>
      <point x="499" y="474"/>
      <point x="499" y="457" type="qcurve"/>
      <point x="495" y="381"/>
      <point x="495" y="358" type="qcurve"/>
      <point x="495" y="50" type="line"/>
      <point x="495" y="-25"/>
      <point x="425" y="-128"/>
      <point x="311" y="-181"/>
    </contour>
  </outline>
</glyph>
<glyph name="h" format="2">
  <advance height="1000" width="588"/>
  <unicode hex="0068"/>
  <outline>
    <contour>
      <point x="482" y="-17" type="qcurve"/>
      <point x="463" y="-17"/>
      <point x="422" y="0"/>
      <point x="422" y="17" type="qcurve"/>
      <point x="424" y="34"/>
      <point x="424" y="293" type="qcurve"/>
      <point x="424" y="351"/>
      <point x="394" y="417"/>
      <point x="348" y="417" type="qcurve"/>
      <point x="169" y="417"/>
      <point x="166" y="162" type="qcurve"/>
      <point x="164" y="97" type="line"/>
      <point x="164" y="59"/>
      <point x="167" y="-1" type="qcurve"/>
      <point x="167" y="-17"/>
      <point x="144" y="-17" type="qcurve"/>
      <point x="125" y="-17"/>
      <point x="84" y="0"/>
      <point x="84" y="17" type="qcurve"/>
      <point x="86" y="115" type="line"/>
      <point x="86" y="590"/>
      <point x="83" y="697" type="qcurve"/>
      <point x="83" y="713"/>
      <point x="107" y="713" type="qcurve"/>
      <point x="125" y="713"/>
      <point x="166" y="696"/>
      <point x="166" y="679" type="qcurve"/>
      <point x="164" y="580"/>
      <point x="164" y="398" type="qcurve"/>
      <point x="186" y="433"/>
      <point x="291" y="491"/>
      <point x="344" y="491" type="qcurve"/>
      <point x="440" y="491"/>
      <point x="475" y="425" type="qcurve"/>
      <point x="502" y="378"/>
      <point x="502" y="297" type="qcurve"/>
      <point x="502" y="105"/>
      <point x="505" y="-1" type="qcurve"/>
      <point x="505" y="-17"/>
    </contour>
  </outline>
</glyph>
<glyph name="k" format="2">
  <advance height="1000" width="510"/>
  <unicode hex="006B"/>
  <outline>
    <contour>
      <point x="478" y="-20"/>
      <point x="430" y="-20"/>
      <point x="308" y="115" type="qcurve"/>
      <point x="227" y="205"/>
      <point x="181" y="250" type="qcurve"/>
      <point x="164" y="240" type="line"/>
      <point x="164" y="106" type="line"/>
      <point x="169" y="0" type="line"/>
      <point x="169" y="-16"/>
      <point x="145" y="-16" type="qcurve"/>
      <point x="126" y="-16"/>
      <point x="84" y="1"/>
      <point x="84" y="18" type="qcurve"/>
      <point x="86" y="106" type="line"/>
      <point x="86" y="590"/>
      <point x="83" y="697" type="qcurve"/>
      <point x="83" y="713"/>
      <point x="107" y="713" type="qcurve"/>
      <point x="126" y="713"/>
      <point x="168" y="696"/>
      <point x="168" y="679" type="qcurve"/>
      <point x="164" y="590" type="line"/>
      <point x="164" y="325" type="line"/>
      <point x="343" y="449" type="line"/>
      <point x="358" y="460"/>
      <point x="382" y="483" type="qcurve"/>
      <point x="387" y="490"/>
      <point x="402" y="490" type="qcurve"/>
      <point x="415" y="490"/>
      <point x="430" y="485" type="qcurve"/>
      <point x="468" y="471"/>
      <point x="468" y="452" type="qcurve"/>
      <point x="468" y="443"/>
      <point x="399" y="403"/>
      <point x="240" y="292" type="qcurve"/>
      <point x="264" y="269"/>
      <point x="341" y="187"/>
      <point x="421" y="105"/>
      <point x="452" y="73" type="qcurve"/>
      <point x="481" y="47"/>
      <point x="507" y="36" type="qcurve"/>
      <point x="516" y="32"/>
      <point x="516" y="22" type="qcurve"/>
      <point x="516" y="13"/>
      <point x="504" y="3" type="qcurve"/>
    </contour>
  </outline>
</glyph>
<glyph name="l" format="2">
  <advance height="1000" width="263"/>
  <unicode hex="006C"/>
  <outline>
    <contour>
      <point x="176" y="-27" type="qcurve"/>
      <point x="93" y="-27"/>
      <point x="91" y="75" type="qcurve"/>
      <point x="91" y="590"/>
      <point x="88" y="697" type="qcurve"/>
      <point x="88" y="713"/>
      <point x="113" y="713" type="qcurve"/>
      <point x="132" y="713"/>
      <point x="174" y="696"/>
      <point x="174" y="679" type="qcurve"/>
      <point x="172" y="590"/>
      <point x="172" y="78" type="qcurve"/>
      <point x="172" y="53"/>
      <point x="178" y="46"/>
      <point x="184" y="46" type="qcurve"/>
      <point x="203" y="47"/>
      <point x="228" y="72" type="qcurve"/>
      <point x="242" y="85"/>
      <point x="254" y="85" type="qcurve"/>
      <point x="269" y="85"/>
      <point x="269" y="63" type="qcurve"/>
      <point x="269" y="45"/>
      <point x="241" y="9" type="qcurve"/>
      <point x="209" y="-27"/>
    </contour>
  </outline>
</glyph>
<glyph name="m" format="2">
  <advance height="1000" width="816"/>
  <unicode hex="006D"/>
  <outline>
    <contour>
      <point x="709" y="-17" type="qcurve"/>
      <point x="690" y="-17"/>
      <point x="648" y="0"/>
      <point x="648" y="17" type="qcurve"/>
      <point x="652" y="105" type="line"/>
      <point x="652" y="293" type="line"/>
      <point x="652" y="420"/>
      <point x="574" y="420" type="qcurve"/>
      <point x="546" y="420"/>
      <point x="485" y="378"/>
      <point x="444" y="308"/>
      <point x="444" y="268" type="qcurve"/>
      <point x="444" y="105" type="line"/>
      <point x="449" y="-1" type="line"/>
      <point x="449" y="-17"/>
      <point x="425" y="-17" type="qcurve"/>
      <point x="406" y="-17"/>
      <point x="365" y="0"/>
      <point x="365" y="17" type="qcurve"/>
      <point x="369" y="105" type="line"/>
      <point x="369" y="293" type="line"/>
      <point x="369" y="420"/>
      <point x="301" y="420" type="qcurve"/>
      <point x="252" y="420"/>
      <point x="215" y="376" type="qcurve"/>
      <point x="169" y="320"/>
      <point x="166" y="210" type="qcurve"/>
      <point x="163" y="105" type="line"/>
      <point x="168" y="-1" type="line"/>
      <point x="168" y="-17"/>
      <point x="144" y="-17" type="qcurve"/>
      <point x="125" y="-17"/>
      <point x="83" y="0"/>
      <point x="83" y="17" type="qcurve"/>
      <point x="85" y="105" type="line"/>
      <point x="85" y="356"/>
      <point x="82" y="472" type="qcurve"/>
      <point x="82" y="488"/>
      <point x="106" y="488" type="qcurve"/>
      <point x="125" y="488"/>
      <point x="167" y="471"/>
      <point x="167" y="455" type="qcurve"/>
      <point x="166" y="424" type="line"/>
      <point x="175" y="442"/>
      <point x="255" y="492"/>
      <point x="359" y="492"/>
      <point x="420" y="433"/>
      <point x="426" y="409" type="qcurve"/>
      <point x="446" y="443"/>
      <point x="532" y="492"/>
      <point x="582" y="492" type="qcurve"/>
      <point x="631" y="492"/>
      <point x="665" y="463" type="qcurve"/>
      <point x="730" y="408"/>
      <point x="730" y="297" type="qcurve"/>
      <point x="730" y="105"/>
      <point x="733" y="-1" type="qcurve"/>
      <point x="733" y="-17"/>
    </contour>
  </outline>
</glyph>
<glyph name="o" format="2">
  <advance height="1000" width="562"/>
  <unicode hex="006F"/>
  <outline>
    <contour>
      <point x="267" y="49" type="qcurve"/>
      <point x="314" y="49"/>
      <point x="388" y="100"/>
      <point x="433" y="189"/>
      <point x="433" y="258" type="qcurve"/>
      <point x="433" y="326"/>
      <point x="371" y="420"/>
      <point x="231" y="420"/>
      <point x="129" y="287"/>
      <point x="129" y="208" type="qcurve"/>
      <point x="129" y="49"/>
    </contour>
    <contour>
      <point x="273" y="-24" type="qcurve"/>
      <point x="164" y="-24"/>
      <point x="50" y="101"/>
      <point x="50" y="207" type="qcurve"/>
      <point x="50" y="289"/>
      <point x="101" y="377" type="qcurve"/>
      <point x="121" y="414"/>
      <point x="163" y="460"/>
      <point x="177" y="460" type="qcurve"/>
      <point x="190" y="460"/>
      <point x="195" y="453" type="qcurve"/>
      <point x="247" y="492"/>
      <point x="371" y="492"/>
      <point x="416" y="462" type="qcurve"/>
      <point x="512" y="399"/>
      <point x="512" y="245" type="qcurve"/>
      <point x="512" y="141"/>
      <point x="449" y="62" type="qcurve"/>
      <point x="381" y="-24"/>
    </contour>
  </outline>
</glyph>
<glyph name="p" format="2">
  <advance height="1000" width="572"/>
  <unicode hex="0070"/>
  <outline>
    <contour>
      <point x="220" y="47"/>
      <point x="332" y="47"/>
      <point x="444" y="171"/>
      <point x="444" y="272" type="qcurve"/>
      <point x="444" y="371"/>
      <point x="393" y="405" type="qcurve"/>
      <point x="371" y="420"/>
      <point x="307" y="420"/>
      <point x="234" y="377"/>
      <point x="172" y="287"/>
      <point x="166" y="209" type="qcurve"/>
      <point x="163" y="167"/>
      <point x="163" y="111" type="qcurve"/>
      <point x="162" y="110" type="line"/>
      <point x="162" y="109"/>
      <point x="164" y="109" type="qcurve"/>
      <point x="178" y="109"/>
      <point x="195" y="84" type="qcurve"/>
    </contour>
    <contour>
      <point x="145" y="-178" type="qcurve"/>
      <point x="126" y="-178"/>
      <point x="84" y="-161"/>
      <point x="84" y="-144" type="qcurve"/>
      <point x="86" y="-55" type="line"/>
      <point x="86" y="421"/>
      <point x="83" y="472" type="qcurve"/>
      <point x="83" y="488"/>
      <point x="107" y="488" type="qcurve"/>
      <point x="126" y="488"/>
      <point x="169" y="471"/>
      <point x="169" y="454" type="qcurve"/>
      <point x="166" y="393" type="line"/>
      <point x="195" y="442"/>
      <point x="291" y="492"/>
      <point x="347" y="492" type="qcurve"/>
      <point x="425" y="492"/>
      <point x="524" y="382"/>
      <point x="524" y="287" type="qcurve"/>
      <point x="524" y="193"/>
      <point x="460" y="56"/>
      <point x="349" y="-23"/>
      <point x="279" y="-23" type="qcurve"/>
      <point x="243" y="-23"/>
      <point x="170" y="12"/>
      <point x="164" y="20" type="qcurve"/>
      <point x="164" y="-56" type="line"/>
      <point x="169" y="-162" type="line"/>
      <point x="169" y="-178"/>
    </contour>
  </outline>
</glyph>
<glyph name="q" format="2">
  <advance height="1000" width="576"/>
  <unicode hex="0071"/>
  <outline>
    <contour>
      <point x="213" y="48" type="qcurve"/>
      <point x="282" y="48"/>
      <point x="410" y="186"/>
      <point x="410" y="276" type="qcurve"/>
      <point x="410" y="367" type="line"/>
      <point x="411" y="369" type="line"/>
      <point x="411" y="371"/>
      <point x="407" y="371" type="qcurve"/>
      <point x="398" y="371"/>
      <point x="392" y="378" type="qcurve"/>
      <point x="361" y="422"/>
      <point x="300" y="422" type="qcurve"/>
      <point x="270" y="422"/>
      <point x="206" y="383"/>
      <point x="182" y="349" type="qcurve"/>
      <point x="129" y="274"/>
      <point x="129" y="118"/>
      <point x="179" y="48"/>
    </contour>
    <contour>
      <point x="469" y="-182" type="qcurve"/>
      <point x="450" y="-182"/>
      <point x="408" y="-165"/>
      <point x="408" y="-148" type="qcurve"/>
      <point x="412" y="-59"/>
      <point x="413" y="89" type="qcurve"/>
      <point x="351" y="-24"/>
      <point x="212" y="-24" type="qcurve"/>
      <point x="143" y="-24"/>
      <point x="49" y="86"/>
      <point x="49" y="186" type="qcurve"/>
      <point x="49" y="306"/>
      <point x="204" y="492"/>
      <point x="304" y="492" type="qcurve"/>
      <point x="343" y="492"/>
      <point x="406" y="462"/>
      <point x="410" y="456" type="qcurve"/>
      <point x="408" y="475" type="line"/>
      <point x="408" y="491"/>
      <point x="432" y="491" type="qcurve"/>
      <point x="451" y="491"/>
      <point x="492" y="474"/>
      <point x="492" y="457" type="qcurve"/>
      <point x="490" y="368" type="line"/>
      <point x="490" y="-60"/>
      <point x="493" y="-166" type="qcurve"/>
      <point x="493" y="-182"/>
    </contour>
  </outline>
</glyph>
<glyph name="r" format="2">
  <advance height="1000" width="430"/>
  <unicode hex="0072"/>
  <outline>
    <contour>
      <point x="147" y="-16" type="qcurve"/>
      <point x="128" y="-16"/>
      <point x="86" y="1"/>
      <point x="86" y="18" type="qcurve"/>
      <point x="88" y="106" type="line"/>
      <point x="88" y="367"/>
      <point x="85" y="474" type="qcurve"/>
      <point x="85" y="490"/>
      <point x="109" y="490" type="qcurve"/>
      <point x="128" y="490"/>
      <point x="170" y="473"/>
      <point x="170" y="458" type="qcurve"/>
      <point x="170" y="436"/>
      <point x="169" y="428" type="qcurve"/>
      <point x="180" y="444"/>
      <point x="215" y="467" type="qcurve"/>
      <point x="253" y="492"/>
      <point x="296" y="492" type="qcurve"/>
      <point x="338" y="492"/>
      <point x="392" y="471"/>
      <point x="428" y="441"/>
      <point x="428" y="424" type="qcurve"/>
      <point x="428" y="408"/>
      <point x="402" y="368"/>
      <point x="389" y="368" type="qcurve"/>
      <point x="375" y="368"/>
      <point x="367" y="381" type="qcurve"/>
      <point x="358" y="398"/>
      <point x="318" y="415"/>
      <point x="304" y="415" type="qcurve"/>
      <point x="264" y="415"/>
      <point x="230" y="390" type="qcurve"/>
      <point x="180" y="354"/>
      <point x="170" y="265" type="qcurve"/>
      <point x="166" y="230"/>
      <point x="166" y="106" type="qcurve"/>
      <point x="171" y="0" type="line"/>
      <point x="171" y="-16"/>
    </contour>
  </outline>
</glyph>
<glyph name="t" format="2">
  <advance height="1000" width="360"/>
  <unicode hex="0074"/>
  <outline>
    <contour>
      <point x="204" y="-24" type="qcurve"/>
      <point x="107" y="-24"/>
      <point x="107" y="110" type="qcurve"/>
      <point x="107" y="418" type="line"/>
      <point x="47" y="414" type="line"/>
      <point x="30" y="414"/>
      <point x="9" y="448"/>
      <point x="9" y="464" type="qcurve"/>
      <point x="9" y="483"/>
      <point x="26" y="483" type="qcurve"/>
      <point x="107" y="483" type="line"/>
      <point x="107" y="556"/>
      <point x="105" y="635" type="qcurve"/>
      <point x="105" y="651"/>
      <point x="129" y="651" type="qcurve"/>
      <point x="148" y="651"/>
      <point x="189" y="634"/>
      <point x="189" y="617" type="qcurve"/>
      <point x="187" y="552"/>
      <point x="187" y="486" type="qcurve"/>
      <point x="233" y="488"/>
      <point x="285" y="493" type="qcurve"/>
      <point x="302" y="493"/>
      <point x="324" y="459"/>
      <point x="324" y="443" type="qcurve"/>
      <point x="324" y="423"/>
      <point x="307" y="423" type="qcurve"/>
      <point x="259" y="423"/>
      <point x="187" y="421" type="qcurve"/>
      <point x="187" y="108" type="line"/>
      <point x="187" y="70"/>
      <point x="198" y="52"/>
      <point x="214" y="52" type="qcurve"/>
      <point x="254" y="52"/>
      <point x="306" y="92" type="qcurve"/>
      <point x="325" y="106"/>
      <point x="337" y="106" type="qcurve"/>
      <point x="353" y="106"/>
      <point x="353" y="90" type="qcurve"/>
      <point x="353" y="66"/>
      <point x="306" y="22" type="qcurve"/>
      <point x="254" y="-24"/>
    </contour>
  </outline>
</glyph>
<glyph name="u" format="2">
  <advance height="1000" width="590"/>
  <unicode hex="0075"/>
  <outline>
    <contour>
      <point x="306" y="-24"/>
      <point x="182" y="-24"/>
      <point x="148" y="4" type="qcurve"/>
      <point x="86" y="55"/>
      <point x="86" y="171" type="qcurve"/>
      <point x="86" y="368"/>
      <point x="83" y="474" type="qcurve"/>
      <point x="83" y="490"/>
      <point x="107" y="490" type="qcurve"/>
      <point x="126" y="490"/>
      <point x="168" y="473"/>
      <point x="168" y="456" type="qcurve"/>
      <point x="166" y="368"/>
      <point x="166" y="175" type="qcurve"/>
      <point x="166" y="119"/>
      <point x="206" y="48"/>
      <point x="243" y="48" type="qcurve"/>
      <point x="281" y="48"/>
      <point x="359" y="112"/>
      <point x="420" y="236"/>
      <point x="420" y="342" type="qcurve"/>
      <point x="420" y="475" type="line"/>
      <point x="420" y="491"/>
      <point x="445" y="491" type="qcurve"/>
      <point x="465" y="491"/>
      <point x="506" y="475"/>
      <point x="506" y="458" type="qcurve"/>
      <point x="494" y="385"/>
      <point x="494" y="241" type="qcurve"/>
      <point x="494" y="99"/>
      <point x="531" y="38" type="qcurve"/>
      <point x="533" y="34"/>
      <point x="533" y="26" type="qcurve"/>
      <point x="533" y="16"/>
      <point x="503" y="-19"/>
      <point x="485" y="-19" type="qcurve"/>
      <point x="455" y="-19"/>
      <point x="429" y="74"/>
      <point x="428" y="92" type="qcurve"/>
      <point x="410" y="55"/>
    </contour>
  </outline>
</glyph>
<glyph name="w" format="2">
  <advance height="1000" width="730"/>
  <unicode hex="0077"/>
  <outline>
    <contour>
      <point x="515" y="-24" type="qcurve"/>
      <point x="501" y="-24"/>
      <point x="486" y="-17" type="qcurve"/>
      <point x="457" y="-5"/>
      <point x="453" y="20" type="qcurve"/>
      <point x="452" y="29"/>
      <point x="361" y="347" type="qcurve"/>
      <point x="258" y="44"/>
      <point x="252" y="19"/>
      <point x="238" y="-24"/>
      <point x="182" y="-24"/>
      <point x="163" y="-2" type="qcurve"/>
      <point x="155" y="6"/>
      <point x="152" y="17" type="qcurve"/>
      <point x="42" y="397" type="line"/>
      <point x="19" y="459"/>
      <point x="19" y="462" type="qcurve"/>
      <point x="19" y="484"/>
      <point x="60" y="484" type="qcurve"/>
      <point x="109" y="484"/>
      <point x="111" y="458" type="qcurve"/>
      <point x="113" y="448"/>
      <point x="117" y="421"/>
      <point x="201" y="104" type="qcurve"/>
      <point x="307" y="409"/>
      <point x="310" y="441"/>
      <point x="312" y="452" type="qcurve"/>
      <point x="315" y="474"/>
      <point x="342" y="474" type="qcurve"/>
      <point x="365" y="474"/>
      <point x="410" y="458"/>
      <point x="414" y="435"/>
      <point x="416" y="414"/>
      <point x="508" y="104" type="qcurve"/>
      <point x="609" y="408" type="line"/>
      <point x="614" y="422"/>
      <point x="626" y="475" type="qcurve"/>
      <point x="630" y="491"/>
      <point x="653" y="491" type="qcurve"/>
      <point x="672" y="491"/>
      <point x="711" y="474"/>
      <point x="711" y="459" type="qcurve"/>
      <point x="711" y="455"/>
      <point x="700" y="430"/>
      <point x="683" y="385" type="qcurve"/>
      <point x="567" y="55"/>
      <point x="557" y="20"/>
      <point x="552" y="5" type="qcurve"/>
      <point x="544" y="-24"/>
    </contour>
  </outline>
</glyph>
<glyph name="x" format="2">
  <advance height="1000" width="500"/>
  <unicode hex="0078"/>
  <outline>
    <contour>
      <point x="87" y="-18" type="qcurve"/>
      <point x="67" y="-18"/>
      <point x="28" y="-3"/>
      <point x="28" y="10" type="qcurve"/>
      <point x="28" y="15"/>
      <point x="54" y="41"/>
      <point x="96" y="94" type="qcurve"/>
      <point x="207" y="244" type="line"/>
      <point x="102" y="388" type="line"/>
      <point x="77" y="423"/>
      <point x="46" y="451"/>
      <point x="46" y="457" type="qcurve"/>
      <point x="46" y="469"/>
      <point x="89" y="486"/>
      <point x="107" y="486" type="qcurve"/>
      <point x="126" y="486"/>
      <point x="133" y="475" type="qcurve"/>
      <point x="148" y="448"/>
      <point x="163" y="428" type="qcurve"/>
      <point x="252" y="305" type="line"/>
      <point x="354" y="445"/>
      <point x="370" y="472"/>
      <point x="381" y="490"/>
      <point x="400" y="490" type="qcurve"/>
      <point x="417" y="490"/>
      <point x="459" y="473"/>
      <point x="459" y="461" type="qcurve"/>
      <point x="459" y="455"/>
      <point x="433" y="431"/>
      <point x="403" y="392" type="qcurve"/>
      <point x="295" y="245" type="line"/>
      <point x="405" y="96" type="line"/>
      <point x="417" y="80"/>
      <point x="471" y="19"/>
      <point x="471" y="13" type="qcurve"/>
      <point x="471" y="0"/>
      <point x="432" y="-15"/>
      <point x="412" y="-15" type="qcurve"/>
      <point x="389" y="-15"/>
      <point x="381" y="-2" type="qcurve"/>
      <point x="360" y="33"/>
      <point x="251" y="184" type="qcurve"/>
      <point x="145" y="39"/>
      <point x="125" y="6"/>
      <point x="119" y="-2" type="qcurve"/>
      <point x="109" y="-18"/>
    </contour>
  </outline>
</glyph>
<glyph name="y" format="2">
  <advance height="1000" width="500"/>
  <unicode hex="0079"/>
  <outline>
    <contour>
      <point x="116" y="-170" type="qcurve"/>
      <point x="106" y="-170" type="line"/>
      <point x="47" y="-170"/>
      <point x="12" y="-141" type="qcurve"/>
      <point x="5" y="-134"/>
      <point x="5" y="-108"/>
      <point x="28" y="-69"/>
      <point x="54" y="-69"/>
      <point x="79" y="-95"/>
      <point x="127" y="-95"/>
      <point x="155" y="-73"/>
      <point x="169" y="-43" type="qcurve"/>
      <point x="211" y="46" type="line"/>
      <point x="48" y="416"/>
      <point x="34" y="441" type="qcurve"/>
      <point x="23" y="460"/>
      <point x="23" y="464" type="qcurve"/>
      <point x="23" y="486"/>
      <point x="67" y="486" type="qcurve"/>
      <point x="108" y="486"/>
      <point x="116" y="466" type="qcurve"/>
      <point x="127" y="435"/>
      <point x="254" y="139" type="qcurve"/>
      <point x="372" y="386" type="line"/>
      <point x="391" y="424"/>
      <point x="407" y="478" type="qcurve"/>
      <point x="412" y="491"/>
      <point x="431" y="491" type="qcurve"/>
      <point x="447" y="491"/>
      <point x="485" y="466"/>
      <point x="485" y="452" type="qcurve"/>
      <point x="485" y="440"/>
      <point x="473" y="417"/>
      <point x="462" y="397" type="qcurve"/>
      <point x="448" y="369"/>
      <point x="231" y="-85" type="qcurve"/>
      <point x="211" y="-128"/>
      <point x="157" y="-170"/>
    </contour>
  </outline>
</glyph>
<glyph name="braceleft" format="2">
  <advance height="1000" width="350"/>
  <unicode hex="007B"/>
  <outline>
    <contour>
      <point x="318" y="-165" type="qcurve"/>
      <point x="311" y="-165"/>
      <point x="302" y="-163" type="qcurve"/>
      <point x="170" y="-126"/>
      <point x="170" y="-4" type="qcurve"/>
      <point x="170" y="28"/>
      <point x="185" y="117"/>
      <point x="185" y="164" type="qcurve"/>
      <point x="185" y="210"/>
      <point x="178" y="231" type="qcurve"/>
      <point x="164" y="278"/>
      <point x="106" y="282" type="qcurve"/>
      <point x="90" y="283"/>
      <point x="70" y="312"/>
      <point x="70" y="330" type="qcurve"/>
      <point x="70" y="352"/>
      <point x="92" y="352" type="qcurve"/>
      <point x="103" y="352" type="line"/>
      <point x="184" y="352"/>
      <point x="184" y="472" type="qcurve"/>
      <point x="178" y="629" type="line"/>
      <point x="178" y="673"/>
      <point x="232" y="749"/>
      <point x="302" y="782" type="qcurve"/>
      <point x="311" y="785"/>
      <point x="318" y="785" type="qcurve"/>
      <point x="337" y="785"/>
      <point x="337" y="762" type="qcurve"/>
      <point x="337" y="752"/>
      <point x="324" y="744" type="qcurve"/>
      <point x="255" y="706"/>
      <point x="255" y="627" type="qcurve"/>
      <point x="261" y="469" type="line"/>
      <point x="261" y="348"/>
      <point x="198" y="314" type="qcurve"/>
      <point x="223" y="306"/>
      <point x="261" y="234"/>
      <point x="261" y="193" type="qcurve"/>
      <point x="261" y="114"/>
      <point x="246" y="11"/>
      <point x="246" y="-4" type="qcurve"/>
      <point x="246" y="-45"/>
      <point x="282" y="-103"/>
      <point x="323" y="-126" type="qcurve"/>
      <point x="338" y="-135"/>
      <point x="338" y="-148" type="qcurve"/>
      <point x="338" y="-165"/>
    </contour>
  </outline>
</glyph>
<glyph name="bar" format="2">
  <advance height="1000" width="350"/>
  <unicode hex="007C"/>
  <outline>
    <contour>
      <point x="215" y="-23" type="line"/>
      <point x="134" y="-23" type="line"/>
      <point x="134" y="724" type="line"/>
      <point x="215" y="724" type="line"/>
    </contour>
  </outline>
</glyph>
<glyph name="braceright" format="2">
  <advance height="1000" width="350"/>
  <unicode hex="007D"/>
  <outline>
    <contour>
      <point x="33" y="-162" type="qcurve"/>
      <point x="12" y="-162"/>
      <point x="12" y="-144" type="qcurve"/>
      <point x="12" y="-128"/>
      <point x="26" y="-121" type="qcurve"/>
      <point x="95" y="-82"/>
      <point x="95" y="-4" type="qcurve"/>
      <point x="89" y="154" type="line"/>
      <point x="89" y="274"/>
      <point x="153" y="309" type="qcurve"/>
      <point x="127" y="317"/>
      <point x="89" y="389"/>
      <point x="89" y="430" type="qcurve"/>
      <point x="89" y="509"/>
      <point x="104" y="612"/>
      <point x="104" y="627" type="qcurve"/>
      <point x="104" y="668"/>
      <point x="68" y="726"/>
      <point x="27" y="749" type="qcurve"/>
      <point x="12" y="758"/>
      <point x="12" y="772" type="qcurve"/>
      <point x="12" y="788"/>
      <point x="35" y="788" type="qcurve"/>
      <point x="43" y="788"/>
      <point x="48" y="786" type="qcurve"/>
      <point x="180" y="749"/>
      <point x="180" y="627" type="qcurve"/>
      <point x="180" y="595"/>
      <point x="165" y="507"/>
      <point x="165" y="461" type="qcurve"/>
      <point x="165" y="414"/>
      <point x="172" y="392" type="qcurve"/>
      <point x="186" y="345"/>
      <point x="244" y="341" type="qcurve"/>
      <point x="261" y="340"/>
      <point x="280" y="311"/>
      <point x="280" y="293" type="qcurve"/>
      <point x="280" y="271"/>
      <point x="258" y="271" type="qcurve"/>
      <point x="247" y="271" type="line"/>
      <point x="166" y="271"/>
      <point x="166" y="151" type="qcurve"/>
      <point x="172" y="-6" type="line"/>
      <point x="172" y="-79"/>
      <point x="105" y="-127" type="qcurve"/>
      <point x="79" y="-145"/>
      <point x="36" y="-162"/>
    </contour>
  </outline>
</glyph>
<glyph name="exclamdown" format="2">
  <advance height="1000" width="350"/>
  <unicode hex="00A1"/>
  <outline>
    <contour>
      <point x="193" y="-216" type="qcurve"/>
      <point x="170" y="-216"/>
      <point x="124" y="-196"/>
      <point x="124" y="-178" type="qcurve"/>
      <point x="128" y="-142"/>
      <point x="130" y="-107" type="qcurve"/>
      <point x="142" y="279"/>
      <point x="142" y="329" type="qcurve"/>
      <point x="142" y="343"/>
      <point x="163" y="343" type="qcurve"/>
      <point x="178" y="343"/>
      <point x="212" y="329"/>
      <point x="212" y="314" type="qcurve"/>
      <point x="210" y="300"/>
      <point x="210" y="275" type="qcurve"/>
      <point x="217" y="-166"/>
      <point x="221" y="-192" type="qcurve"/>
      <point x="221" y="-216"/>
    </contour>
    <contour>
      <point x="206" y="395"/>
      <point x="154" y="395"/>
      <point x="118" y="440"/>
      <point x="118" y="464" type="qcurve"/>
      <point x="118" y="487"/>
      <point x="146" y="517"/>
      <point x="200" y="517"/>
      <point x="235" y="475"/>
      <point x="235" y="452" type="qcurve"/>
      <point x="235" y="428"/>
    </contour>
  </outline>
</glyph>
<glyph name="cent" format="2">
  <advance height="1000" width="556"/>
  <unicode hex="00A2"/>
  <outline>
    <contour>
      <point x="198" y="72" type="qcurve"/>
      <point x="331" y="425" type="line"/>
      <point x="268" y="425"/>
      <point x="131" y="287"/>
      <point x="131" y="113"/>
    </contour>
    <contour>
      <point x="203" y="-90" type="qcurve"/>
      <point x="190" y="-90"/>
      <point x="154" y="-63"/>
      <point x="154" y="-45" type="qcurve"/>
      <point x="154" y="-42"/>
      <point x="161" y="-26"/>
      <point x="166" y="-10" type="qcurve"/>
      <point x="170" y="0" type="line"/>
      <point x="123" y="21"/>
      <point x="51" y="122"/>
      <point x="51" y="190" type="qcurve"/>
      <point x="51" y="256"/>
      <point x="101" y="365"/>
      <point x="182" y="448"/>
      <point x="281" y="496"/>
      <point x="328" y="496" type="qcurve"/>
      <point x="346" y="496"/>
      <point x="358" y="495" type="qcurve"/>
      <point x="371" y="532"/>
      <point x="381" y="570" type="qcurve"/>
      <point x="386" y="582"/>
      <point x="401" y="582" type="qcurve"/>
      <point x="413" y="582"/>
      <point x="449" y="550"/>
      <point x="449" y="537" type="qcurve"/>
      <point x="449" y="526"/>
      <point x="430" y="479" type="qcurve"/>
      <point x="470" y="464"/>
      <point x="509" y="416"/>
      <point x="509" y="386"/>
      <point x="476" y="351"/>
      <point x="465" y="351" type="qcurve"/>
      <point x="453" y="351"/>
      <point x="448" y="359" type="qcurve"/>
      <point x="424" y="408"/>
      <point x="405" y="413" type="qcurve"/>
      <point x="395" y="389"/>
      <point x="277" y="71"/>
      <point x="267" y="47" type="qcurve"/>
      <point x="408" y="48"/>
      <point x="478" y="124" type="qcurve"/>
      <point x="493" y="141"/>
      <point x="506" y="141" type="qcurve"/>
      <point x="521" y="141"/>
      <point x="521" y="124" type="qcurve"/>
      <point x="521" y="110"/>
      <point x="491" y="63"/>
      <point x="460" y="37" type="qcurve"/>
      <point x="387" y="-23"/>
      <point x="271" y="-23" type="qcurve"/>
      <point x="255" y="-23"/>
      <point x="241" y="-21" type="qcurve"/>
      <point x="223" y="-78" type="line"/>
      <point x="218" y="-90"/>
    </contour>
  </outline>
</glyph>
<glyph name="sterling" format="2">
  <advance height="1000" width="713"/>
  <unicode hex="00A3"/>
  <outline>
    <contour>
      <point x="533" y="-23" type="qcurve"/>
      <point x="492" y="-23"/>
      <point x="390" y="-7"/>
      <point x="280" y="9"/>
      <point x="235" y="9" type="qcurve"/>
      <point x="191" y="9"/>
      <point x="140" y="-7"/>
      <point x="93" y="-23"/>
      <point x="51" y="-23"/>
      <point x="31" y="-18"/>
      <point x="31" y="-6" type="qcurve"/>
      <point x="31" y="1"/>
      <point x="34" y="13" type="qcurve"/>
      <point x="42" y="54"/>
      <point x="67" y="54" type="qcurve"/>
      <point x="76" y="54" type="line"/>
      <point x="181" y="54"/>
      <point x="181" y="260" type="qcurve"/>
      <point x="181" y="274"/>
      <point x="177" y="310" type="qcurve"/>
      <point x="81" y="304" type="line"/>
      <point x="64" y="304"/>
      <point x="43" y="342"/>
      <point x="43" y="359" type="qcurve"/>
      <point x="43" y="379"/>
      <point x="61" y="379" type="qcurve"/>
      <point x="171" y="378" type="line"/>
      <point x="164" y="470"/>
      <point x="164" y="478" type="qcurve"/>
      <point x="164" y="550"/>
      <point x="216" y="659"/>
      <point x="309" y="720"/>
      <point x="371" y="720" type="qcurve"/>
      <point x="431" y="720"/>
      <point x="478" y="706" type="qcurve"/>
      <point x="558" y="682"/>
      <point x="600" y="644" type="qcurve"/>
      <point x="608" y="638"/>
      <point x="608" y="610"/>
      <point x="574" y="578"/>
      <point x="548" y="578"/>
      <point x="541" y="585" type="qcurve"/>
      <point x="475" y="647"/>
      <point x="379" y="647" type="qcurve"/>
      <point x="284" y="647"/>
      <point x="258" y="556" type="qcurve"/>
      <point x="246" y="517"/>
      <point x="246" y="487" type="qcurve"/>
      <point x="246" y="455"/>
      <point x="252" y="380" type="qcurve"/>
      <point x="488" y="388"/>
      <point x="522" y="391" type="qcurve"/>
      <point x="540" y="391"/>
      <point x="560" y="352"/>
      <point x="560" y="337" type="qcurve"/>
      <point x="560" y="316"/>
      <point x="543" y="316" type="qcurve"/>
      <point x="530" y="317"/>
      <point x="502" y="317" type="qcurve"/>
      <point x="440" y="317"/>
      <point x="258" y="311" type="qcurve"/>
      <point x="260" y="289"/>
      <point x="260" y="267" type="qcurve"/>
      <point x="260" y="150"/>
      <point x="226" y="81" type="qcurve"/>
      <point x="257" y="81"/>
      <point x="505" y="46"/>
      <point x="527" y="46" type="qcurve"/>
      <point x="591" y="46"/>
      <point x="630" y="67" type="qcurve"/>
      <point x="644" y="75"/>
      <point x="659" y="75" type="qcurve"/>
      <point x="678" y="75"/>
      <point x="678" y="58" type="qcurve"/>
      <point x="678" y="44"/>
      <point x="639" y="7"/>
      <point x="575" y="-23"/>
    </contour>
  </outline>
</glyph>
<glyph name="currency" format="2">
  <advance height="1000" width="530"/>
  <unicode hex="00A4"/>
  <outline>
    <contour>
      <point x="274" y="219" type="qcurve"/>
      <point x="320" y="219"/>
      <point x="385" y="284"/>
      <point x="385" y="332" type="qcurve"/>
      <point x="385" y="379"/>
      <point x="321" y="443"/>
      <point x="274" y="443" type="qcurve"/>
      <point x="226" y="443"/>
      <point x="161" y="378"/>
      <point x="161" y="332" type="qcurve"/>
      <point x="161" y="284"/>
      <point x="226" y="219"/>
    </contour>
    <contour>
      <point x="448" y="116" type="qcurve"/>
      <point x="435" y="116"/>
      <point x="427" y="123" type="qcurve"/>
      <point x="406" y="153"/>
      <point x="378" y="178" type="qcurve"/>
      <point x="335" y="146"/>
      <point x="274" y="146" type="qcurve"/>
      <point x="212" y="146"/>
      <point x="163" y="182" type="qcurve"/>
      <point x="129" y="149"/>
      <point x="110" y="123" type="qcurve"/>
      <point x="102" y="116"/>
      <point x="90" y="116" type="qcurve"/>
      <point x="77" y="116"/>
      <point x="38" y="148"/>
      <point x="38" y="161" type="qcurve"/>
      <point x="38" y="172"/>
      <point x="45" y="179" type="qcurve"/>
      <point x="90" y="215"/>
      <point x="113" y="239" type="qcurve"/>
      <point x="88" y="277"/>
      <point x="88" y="331" type="qcurve"/>
      <point x="88" y="384"/>
      <point x="111" y="419" type="qcurve"/>
      <point x="83" y="449"/>
      <point x="50" y="473" type="qcurve"/>
      <point x="43" y="479"/>
      <point x="43" y="505"/>
      <point x="82" y="536"/>
      <point x="95" y="536" type="qcurve"/>
      <point x="109" y="536"/>
      <point x="118" y="525" type="qcurve"/>
      <point x="137" y="499"/>
      <point x="160" y="478" type="qcurve"/>
      <point x="209" y="516"/>
      <point x="335" y="516"/>
      <point x="380" y="481" type="qcurve"/>
      <point x="393" y="493"/>
      <point x="423" y="529" type="qcurve"/>
      <point x="430" y="536"/>
      <point x="443" y="536" type="qcurve"/>
      <point x="455" y="536"/>
      <point x="494" y="506"/>
      <point x="494" y="493" type="qcurve"/>
      <point x="494" y="479"/>
      <point x="461" y="452"/>
      <point x="432" y="425" type="qcurve"/>
      <point x="458" y="384"/>
      <point x="458" y="330" type="qcurve"/>
      <point x="458" y="275"/>
      <point x="430" y="234" type="qcurve"/>
      <point x="443" y="221"/>
      <point x="483" y="188"/>
      <point x="499" y="174"/>
      <point x="499" y="148"/>
      <point x="460" y="116"/>
    </contour>
  </outline>
</glyph>
<glyph name="yen" format="2">
  <advance height="1000" width="600"/>
  <unicode hex="00A5"/>
  <outline>
    <contour>
      <point x="314" y="-15" type="qcurve"/>
      <point x="294" y="-15"/>
      <point x="250" y="2"/>
      <point x="250" y="19" type="qcurve"/>
      <point x="252" y="95"/>
      <point x="252" y="165" type="qcurve"/>
      <point x="113" y="156" type="line"/>
      <point x="96" y="156"/>
      <point x="72" y="196"/>
      <point x="72" y="212" type="qcurve"/>
      <point x="72" y="231"/>
      <point x="89" y="231" type="qcurve"/>
      <point x="114" y="229"/>
      <point x="158" y="229" type="qcurve"/>
      <point x="177" y="229"/>
      <point x="252" y="232" type="qcurve"/>
      <point x="252" y="304" type="line"/>
      <point x="221" y="304"/>
      <point x="113" y="296" type="qcurve"/>
      <point x="96" y="296"/>
      <point x="72" y="336"/>
      <point x="72" y="352" type="qcurve"/>
      <point x="72" y="371"/>
      <point x="89" y="371" type="qcurve"/>
      <point x="114" y="369"/>
      <point x="157" y="369" type="qcurve"/>
      <point x="231" y="371" type="line"/>
      <point x="93" y="597"/>
      <point x="32" y="667" type="qcurve"/>
      <point x="28" y="671"/>
      <point x="28" y="676" type="qcurve"/>
      <point x="28" y="689"/>
      <point x="72" y="708"/>
      <point x="91" y="708" type="qcurve"/>
      <point x="112" y="708"/>
      <point x="129" y="680"/>
      <point x="146" y="647"/>
      <point x="196" y="569"/>
      <point x="293" y="410" type="qcurve"/>
      <point x="360" y="518"/>
      <point x="446" y="654"/>
      <point x="463" y="687"/>
      <point x="480" y="715"/>
      <point x="501" y="715" type="qcurve"/>
      <point x="520" y="715"/>
      <point x="563" y="696"/>
      <point x="563" y="683" type="qcurve"/>
      <point x="563" y="678"/>
      <point x="553" y="666" type="qcurve"/>
      <point x="497" y="601"/>
      <point x="359" y="376" type="qcurve"/>
      <point x="413" y="378"/>
      <point x="446" y="382" type="qcurve"/>
      <point x="474" y="385"/>
      <point x="486" y="385" type="qcurve"/>
      <point x="501" y="385"/>
      <point x="523" y="351"/>
      <point x="523" y="335" type="qcurve"/>
      <point x="523" y="314"/>
      <point x="505" y="314" type="qcurve"/>
      <point x="335" y="308" type="line"/>
      <point x="335" y="235" type="line"/>
      <point x="416" y="239"/>
      <point x="474" y="245"/>
      <point x="486" y="245" type="qcurve"/>
      <point x="501" y="245"/>
      <point x="523" y="211"/>
      <point x="523" y="195" type="qcurve"/>
      <point x="523" y="174"/>
      <point x="505" y="174" type="qcurve"/>
      <point x="335" y="168" type="line"/>
      <point x="335" y="146"/>
      <point x="339" y="1" type="qcurve"/>
      <point x="339" y="-15"/>
    </contour>
  </outline>
</glyph>
<glyph name="section" format="2">
  <advance height="1000" width="675"/>
  <unicode hex="00A7"/>
  <outline>
    <contour>
      <point x="457" y="272" type="qcurve"/>
      <point x="521" y="300"/>
      <point x="521" y="368" type="qcurve"/>
      <point x="521" y="420"/>
      <point x="452" y="469"/>
      <point x="370" y="486" type="qcurve"/>
      <point x="329" y="494" type="line"/>
      <point x="206" y="494"/>
      <point x="170" y="448" type="qcurve"/>
      <point x="154" y="428"/>
      <point x="154" y="407" type="qcurve"/>
      <point x="154" y="384"/>
      <point x="161" y="369" type="qcurve"/>
      <point x="178" y="335"/>
      <point x="272" y="316" type="qcurve"/>
      <point x="377" y="295" type="line"/>
      <point x="422" y="287"/>
    </contour>
    <contour>
      <point x="324" y="-85" type="qcurve"/>
      <point x="238" y="-85"/>
      <point x="111" y="-33"/>
      <point x="58" y="20" type="qcurve"/>
      <point x="49" y="29"/>
      <point x="49" y="61"/>
      <point x="77" y="98"/>
      <point x="90" y="98" type="qcurve"/>
      <point x="102" y="98"/>
      <point x="110" y="89" type="qcurve"/>
      <point x="128" y="60"/>
      <point x="164" y="37" type="qcurve"/>
      <point x="235" y="-10"/>
      <point x="322" y="-10" type="qcurve"/>
      <point x="408" y="-10"/>
      <point x="501" y="52"/>
      <point x="501" y="102" type="qcurve"/>
      <point x="501" y="151"/>
      <point x="428" y="205"/>
      <point x="350" y="222" type="qcurve"/>
      <point x="244" y="244" type="line"/>
      <point x="67" y="281"/>
      <point x="67" y="399" type="qcurve"/>
      <point x="67" y="501"/>
      <point x="172" y="536" type="qcurve"/>
      <point x="87" y="570"/>
      <point x="87" y="660" type="qcurve"/>
      <point x="87" y="702"/>
      <point x="147" y="775"/>
      <point x="256" y="820"/>
      <point x="328" y="820" type="qcurve"/>
      <point x="466" y="820"/>
      <point x="553" y="752" type="qcurve"/>
      <point x="565" y="741"/>
      <point x="565" y="705"/>
      <point x="543" y="670"/>
      <point x="532" y="670" type="qcurve"/>
      <point x="520" y="670"/>
      <point x="510" y="681" type="qcurve"/>
      <point x="449" y="746"/>
      <point x="336" y="746" type="qcurve"/>
      <point x="249" y="746"/>
      <point x="174" y="693"/>
      <point x="174" y="663" type="qcurve"/>
      <point x="174" y="642"/>
      <point x="181" y="628" type="qcurve"/>
      <point x="197" y="599"/>
      <point x="292" y="580" type="qcurve"/>
      <point x="397" y="559" type="line"/>
      <point x="608" y="519"/>
      <point x="608" y="369" type="qcurve"/>
      <point x="608" y="325"/>
      <point x="562" y="250"/>
      <point x="530" y="229" type="qcurve"/>
      <point x="588" y="183"/>
      <point x="588" y="102" type="qcurve"/>
      <point x="588" y="47"/>
      <point x="555" y="4" type="qcurve"/>
      <point x="485" y="-85"/>
    </contour>
  </outline>
</glyph>
<glyph name="copyright" format="2">
  <advance height="1000" width="780"/>
  <unicode hex="00A9"/>
  <outline>
    <contour>
      <point x="379" y="115" type="qcurve"/>
      <point x="321" y="115"/>
      <point x="240" y="161"/>
      <point x="191" y="246"/>
      <point x="191" y="304" type="qcurve"/>
      <point x="191" y="412"/>
      <point x="337" y="567"/>
      <point x="425" y="567" type="qcurve"/>
      <point x="474" y="567"/>
      <point x="532" y="533"/>
      <point x="559" y="494"/>
      <point x="559" y="482" type="qcurve"/>
      <point x="559" y="469"/>
      <point x="529" y="435"/>
      <point x="518" y="435" type="qcurve"/>
      <point x="506" y="435"/>
      <point x="494" y="455"/>
      <point x="484" y="475"/>
      <point x="452" y="498"/>
      <point x="421" y="498" type="qcurve"/>
      <point x="389" y="498"/>
      <point x="317" y="449"/>
      <point x="269" y="364"/>
      <point x="269" y="315" type="qcurve"/>
      <point x="269" y="265"/>
      <point x="285" y="237" type="qcurve"/>
      <point x="315" y="183"/>
      <point x="385" y="183" type="qcurve"/>
      <point x="457" y="183"/>
      <point x="524" y="238" type="qcurve"/>
      <point x="536" y="247"/>
      <point x="546" y="247" type="qcurve"/>
      <point x="564" y="247"/>
      <point x="564" y="230" type="qcurve"/>
      <point x="564" y="220"/>
      <point x="556" y="209" type="qcurve"/>
      <point x="493" y="115"/>
    </contour>
    <contour>
      <point x="274" y="52"/>
      <point x="510" y="52"/>
      <point x="676" y="218"/>
      <point x="676" y="454"/>
      <point x="510" y="620"/>
      <point x="274" y="620"/>
      <point x="108" y="454"/>
      <point x="108" y="218"/>
    </contour>
    <contour>
      <point x="535" y="-13"/>
      <point x="247" y="-13"/>
      <point x="42" y="192"/>
      <point x="42" y="480"/>
      <point x="247" y="685"/>
      <point x="535" y="685"/>
      <point x="741" y="479"/>
      <point x="741" y="193"/>
    </contour>
  </outline>
</glyph>
<glyph name="ordfeminine" format="2">
  <advance height="1000" width="320"/>
  <unicode hex="00AA"/>
  <outline>
    <contour>
      <point x="129" y="529" type="qcurve"/>
      <point x="160" y="529"/>
      <point x="205" y="581"/>
      <point x="209" y="630" type="qcurve"/>
      <point x="209" y="650"/>
      <point x="210" y="665" type="qcurve"/>
      <point x="205" y="667"/>
      <point x="199" y="673" type="qcurve"/>
      <point x="190" y="688"/>
      <point x="174" y="688" type="qcurve"/>
      <point x="156" y="688"/>
      <point x="140" y="674" type="qcurve"/>
      <point x="101" y="642"/>
      <point x="101" y="584" type="qcurve"/>
      <point x="101" y="529"/>
    </contour>
    <contour>
      <point x="130" y="462" type="qcurve"/>
      <point x="85" y="462"/>
      <point x="29" y="522"/>
      <point x="29" y="628"/>
      <point x="72" y="706"/>
      <point x="139" y="754"/>
      <point x="166" y="754" type="qcurve"/>
      <point x="209" y="754"/>
      <point x="223" y="740" type="qcurve"/>
      <point x="223" y="753" type="line"/>
      <point x="227" y="746"/>
      <point x="237" y="746" type="qcurve"/>
      <point x="254" y="746"/>
      <point x="286" y="733"/>
      <point x="286" y="718" type="qcurve"/>
      <point x="279" y="623"/>
      <point x="279" y="598" type="qcurve"/>
      <point x="279" y="572"/>
      <point x="283" y="540"/>
      <point x="296" y="514"/>
      <point x="296" y="506" type="qcurve"/>
      <point x="296" y="496"/>
      <point x="272" y="464"/>
      <point x="258" y="464" type="qcurve"/>
      <point x="232" y="464"/>
      <point x="222" y="508" type="qcurve"/>
      <point x="212" y="492"/>
      <point x="157" y="462"/>
    </contour>
    <contour>
      <point x="223" y="753" type="qcurve"/>
      <point x="223" y="786" type="line"/>
      <point x="220" y="774"/>
      <point x="220" y="758"/>
    </contour>
  </outline>
</glyph>
<glyph name="guillemotleft" format="2">
  <advance height="1000" width="530"/>
  <unicode hex="00AB"/>
  <outline>
    <contour>
      <point x="266" y="-22" type="qcurve"/>
      <point x="259" y="-22"/>
      <point x="241" y="0"/>
      <point x="216" y="32"/>
      <point x="94" y="162"/>
      <point x="36" y="204" type="qcurve"/>
      <point x="20" y="216"/>
      <point x="20" y="251" type="qcurve"/>
      <point x="20" y="265"/>
      <point x="26" y="271" type="qcurve"/>
      <point x="173" y="389"/>
      <point x="252" y="490" type="qcurve"/>
      <point x="257" y="496"/>
      <point x="264" y="496" type="qcurve"/>
      <point x="277" y="496"/>
      <point x="299" y="459"/>
      <point x="299" y="443" type="qcurve"/>
      <point x="299" y="426"/>
      <point x="286" y="415"/>
      <point x="162" y="295"/>
      <point x="102" y="241" type="qcurve"/>
      <point x="176" y="174"/>
      <point x="244" y="104" type="qcurve"/>
      <point x="291" y="58" type="line"/>
      <point x="299" y="50"/>
      <point x="299" y="34" type="qcurve"/>
      <point x="299" y="19"/>
      <point x="280" y="-22"/>
    </contour>
    <contour>
      <point x="471" y="-22" type="qcurve"/>
      <point x="464" y="-22"/>
      <point x="446" y="0"/>
      <point x="421" y="32"/>
      <point x="382" y="74" type="qcurve"/>
      <point x="299" y="162"/>
      <point x="241" y="204" type="qcurve"/>
      <point x="225" y="216"/>
      <point x="225" y="251" type="qcurve"/>
      <point x="225" y="265"/>
      <point x="231" y="271" type="qcurve"/>
      <point x="378" y="389"/>
      <point x="457" y="490" type="qcurve"/>
      <point x="462" y="496"/>
      <point x="469" y="496" type="qcurve"/>
      <point x="482" y="496"/>
      <point x="504" y="459"/>
      <point x="504" y="443" type="qcurve"/>
      <point x="504" y="426"/>
      <point x="491" y="415"/>
      <point x="367" y="295"/>
      <point x="307" y="241" type="qcurve"/>
      <point x="381" y="174"/>
      <point x="449" y="104" type="qcurve"/>
      <point x="496" y="58" type="line"/>
      <point x="504" y="50"/>
      <point x="504" y="34" type="qcurve"/>
      <point x="504" y="19"/>
      <point x="485" y="-22"/>
    </contour>
  </outline>
</glyph>
<glyph name="logicalnot" format="2">
  <advance height="1000" width="590"/>
  <unicode hex="00AC"/>
  <outline>
    <contour>
      <point x="490" y="94"/>
      <point x="462" y="94"/>
      <point x="438" y="107"/>
      <point x="438" y="121" type="qcurve"/>
      <point x="438" y="303" type="line"/>
      <point x="70" y="303" type="line"/>
      <point x="56" y="303"/>
      <point x="43" y="327"/>
      <point x="43" y="355"/>
      <point x="56" y="379"/>
      <point x="70" y="379" type="qcurve"/>
      <point x="457" y="379" type="line"/>
      <point x="483" y="379"/>
      <point x="514" y="348"/>
      <point x="514" y="322" type="qcurve"/>
      <point x="514" y="121" type="line"/>
      <point x="514" y="107"/>
    </contour>
  </outline>
</glyph>
<glyph name="uni00AD" format="2">
  <advance height="1000" width="500"/>
  <unicode hex="00AD"/>
  <outline>
    <contour>
      <point x="65" y="211" type="qcurve"/>
      <point x="52" y="211"/>
      <point x="39" y="244"/>
      <point x="39" y="265" type="qcurve"/>
      <point x="39" y="291"/>
      <point x="60" y="291" type="qcurve"/>
      <point x="90" y="289"/>
      <point x="250" y="289" type="qcurve"/>
      <point x="393" y="289"/>
      <point x="431" y="291" type="qcurve"/>
      <point x="444" y="291"/>
      <point x="457" y="258"/>
      <point x="457" y="238" type="qcurve"/>
      <point x="457" y="212"/>
      <point x="437" y="212" type="qcurve"/>
      <point x="359" y="214" type="line"/>
      <point x="83" y="214"/>
    </contour>
  </outline>
</glyph>
<glyph name="registered" format="2">
  <advance height="1000" width="780"/>
  <unicode hex="00AE"/>
  <outline>
    <contour>
      <point x="362" y="382" type="qcurve"/>
      <point x="423" y="382"/>
      <point x="481" y="429"/>
      <point x="481" y="456" type="qcurve"/>
      <point x="481" y="505"/>
      <point x="404" y="505" type="qcurve"/>
      <point x="357" y="505"/>
      <point x="331" y="496" type="qcurve"/>
      <point x="331" y="390" type="line"/>
      <point x="328" y="387"/>
      <point x="328" y="383"/>
    </contour>
    <contour>
      <point x="556" y="114" type="qcurve"/>
      <point x="518" y="114"/>
      <point x="488" y="137" type="qcurve"/>
      <point x="449" y="170"/>
      <point x="338" y="308"/>
      <point x="331" y="311" type="qcurve"/>
      <point x="331" y="203"/>
      <point x="332" y="133" type="qcurve"/>
      <point x="332" y="117"/>
      <point x="309" y="117" type="qcurve"/>
      <point x="290" y="117"/>
      <point x="257" y="130"/>
      <point x="257" y="144" type="qcurve"/>
      <point x="258" y="203"/>
      <point x="258" y="492" type="qcurve"/>
      <point x="251" y="496"/>
      <point x="238" y="523"/>
      <point x="238" y="536" type="qcurve"/>
      <point x="238" y="552"/>
      <point x="254" y="554" type="qcurve"/>
      <point x="287" y="559"/>
      <point x="349" y="573"/>
      <point x="459" y="573"/>
      <point x="492" y="556" type="qcurve"/>
      <point x="554" y="525"/>
      <point x="554" y="458" type="qcurve"/>
      <point x="554" y="419"/>
      <point x="531" y="390" type="qcurve"/>
      <point x="485" y="330"/>
      <point x="406" y="325" type="qcurve"/>
      <point x="459" y="265" type="line"/>
      <point x="537" y="171"/>
      <point x="568" y="160" type="qcurve"/>
      <point x="592" y="152"/>
      <point x="597" y="139" type="qcurve"/>
      <point x="676" y="221"/>
      <point x="676" y="336" type="qcurve"/>
      <point x="676" y="454"/>
      <point x="510" y="620"/>
      <point x="274" y="620"/>
      <point x="108" y="454"/>
      <point x="108" y="218"/>
      <point x="274" y="52"/>
      <point x="392" y="52" type="qcurve"/>
      <point x="495" y="52"/>
      <point x="571" y="115" type="qcurve"/>
      <point x="564" y="114"/>
    </contour>
    <contour>
      <point x="535" y="-13"/>
      <point x="247" y="-13"/>
      <point x="42" y="192"/>
      <point x="42" y="480"/>
      <point x="247" y="685"/>
      <point x="535" y="685"/>
      <point x="741" y="479"/>
      <point x="741" y="193"/>
    </contour>
  </outline>
</glyph>
<glyph name="degree" format="2">
  <advance height="1000" width="320"/>
  <unicode hex="00B0"/>
  <outline>
    <contour>
      <point x="130" y="539"/>
      <point x="188" y="539"/>
      <point x="230" y="581"/>
      <point x="230" y="639"/>
      <point x="190" y="679"/>
      <point x="162" y="679" type="qcurve"/>
      <point x="132" y="679"/>
      <point x="90" y="640"/>
      <point x="90" y="611" type="qcurve"/>
      <point x="90" y="581"/>
    </contour>
    <contour>
      <point x="199" y="471"/>
      <point x="123" y="471"/>
      <point x="60" y="508"/>
      <point x="22" y="570"/>
      <point x="22" y="609" type="qcurve"/>
      <point x="22" y="647"/>
      <point x="59" y="709"/>
      <point x="121" y="747"/>
      <point x="160" y="747" type="qcurve"/>
      <point x="198" y="747"/>
      <point x="260" y="709"/>
      <point x="298" y="648"/>
      <point x="298" y="572"/>
      <point x="261" y="509"/>
    </contour>
  </outline>
</glyph>
<glyph name="plusminus" format="2">
  <advance height="1000" width="600"/>
  <unicode hex="00B1"/>
  <outline>
    <contour>
      <point x="64" y="2" type="qcurve"/>
      <point x="49" y="2"/>
      <point x="34" y="34"/>
      <point x="34" y="49" type="qcurve"/>
      <point x="34" y="81"/>
      <point x="59" y="81" type="qcurve"/>
      <point x="89" y="79"/>
      <point x="301" y="79" type="qcurve"/>
      <point x="467" y="79"/>
      <point x="530" y="82" type="qcurve"/>
      <point x="547" y="82"/>
      <point x="564" y="50"/>
      <point x="564" y="34" type="qcurve"/>
      <point x="564" y="3"/>
      <point x="540" y="3" type="qcurve"/>
      <point x="459" y="5" type="line"/>
      <point x="83" y="5"/>
    </contour>
    <contour>
      <point x="302" y="103" type="qcurve"/>
      <point x="288" y="103"/>
      <point x="258" y="117"/>
      <point x="258" y="134" type="qcurve"/>
      <point x="261" y="166"/>
      <point x="261" y="279" type="qcurve"/>
      <point x="83" y="279"/>
      <point x="64" y="276" type="qcurve"/>
      <point x="49" y="276"/>
      <point x="34" y="308"/>
      <point x="34" y="323" type="qcurve"/>
      <point x="34" y="355"/>
      <point x="59" y="355" type="qcurve"/>
      <point x="89" y="353"/>
      <point x="261" y="353" type="qcurve"/>
      <point x="261" y="452"/>
      <point x="259" y="482" type="qcurve"/>
      <point x="259" y="507"/>
      <point x="291" y="507" type="qcurve"/>
      <point x="306" y="507"/>
      <point x="338" y="493"/>
      <point x="338" y="477" type="qcurve"/>
      <point x="335" y="440"/>
      <point x="335" y="353" type="qcurve"/>
      <point x="467" y="353"/>
      <point x="530" y="356" type="qcurve"/>
      <point x="547" y="356"/>
      <point x="564" y="324"/>
      <point x="564" y="308" type="qcurve"/>
      <point x="564" y="277"/>
      <point x="540" y="277" type="qcurve"/>
      <point x="459" y="279"/>
      <point x="335" y="279" type="qcurve"/>
      <point x="336" y="128" type="line"/>
      <point x="336" y="103"/>
    </contour>
  </outline>
</glyph>
<glyph name="uni00B2" format="2">
  <advance height="1000" width="380"/>
  <unicode hex="00B2"/>
  <outline>
    <contour>
      <point x="87" y="320" type="qcurve"/>
      <point x="68" y="320"/>
      <point x="46" y="353"/>
      <point x="46" y="379"/>
      <point x="56" y="392"/>
      <point x="61" y="396"/>
      <point x="78" y="426"/>
      <point x="147" y="497"/>
      <point x="216" y="553"/>
      <point x="255" y="593"/>
      <point x="255" y="613" type="qcurve"/>
      <point x="255" y="632"/>
      <point x="232" y="645"/>
      <point x="206" y="645" type="qcurve"/>
      <point x="161" y="645"/>
      <point x="125" y="576"/>
      <point x="109" y="576" type="qcurve"/>
      <point x="99" y="576"/>
      <point x="70" y="603"/>
      <point x="70" y="619" type="qcurve"/>
      <point x="70" y="633"/>
      <point x="102" y="677"/>
      <point x="163" y="715"/>
      <point x="267" y="715"/>
      <point x="328" y="661"/>
      <point x="328" y="573"/>
      <point x="270" y="506"/>
      <point x="167" y="425"/>
      <point x="145" y="395" type="qcurve"/>
      <point x="163" y="396" type="line"/>
      <point x="262" y="395" type="line"/>
      <point x="295" y="397" type="line"/>
      <point x="311" y="397"/>
      <point x="329" y="367"/>
      <point x="329" y="352" type="qcurve"/>
      <point x="329" y="324"/>
      <point x="305" y="324" type="qcurve"/>
      <point x="183" y="327" type="line"/>
      <point x="122" y="327"/>
    </contour>
  </outline>
</glyph>
<glyph name="mu" format="2">
  <advance height="1000" width="590"/>
  <unicode hex="00B5"/>
  <outline>
    <contour>
      <point x="143" y="-185" type="qcurve"/>
      <point x="124" y="-185"/>
      <point x="84" y="-168"/>
      <point x="84" y="-151" type="qcurve"/>
      <point x="86" y="-63" type="line"/>
      <point x="86" y="368"/>
      <point x="83" y="474" type="qcurve"/>
      <point x="83" y="490"/>
      <point x="107" y="490" type="qcurve"/>
      <point x="126" y="490"/>
      <point x="167" y="473"/>
      <point x="167" y="456" type="qcurve"/>
      <point x="165" y="368"/>
      <point x="165" y="183" type="qcurve"/>
      <point x="165" y="104"/>
      <point x="201" y="68" type="qcurve"/>
      <point x="219" y="50"/>
      <point x="291" y="50"/>
      <point x="328" y="81" type="qcurve"/>
      <point x="415" y="155"/>
      <point x="420" y="342" type="qcurve"/>
      <point x="421" y="475" type="line"/>
      <point x="421" y="491"/>
      <point x="446" y="491" type="qcurve"/>
      <point x="465" y="491"/>
      <point x="506" y="475"/>
      <point x="506" y="458" type="qcurve"/>
      <point x="494" y="385"/>
      <point x="494" y="241" type="qcurve"/>
      <point x="494" y="99"/>
      <point x="531" y="38" type="qcurve"/>
      <point x="534" y="32"/>
      <point x="534" y="25" type="qcurve"/>
      <point x="534" y="16"/>
      <point x="504" y="-19"/>
      <point x="485" y="-19" type="qcurve"/>
      <point x="465" y="-19"/>
      <point x="453" y="4" type="qcurve"/>
      <point x="428" y="46"/>
      <point x="425" y="86" type="qcurve"/>
      <point x="407" y="50"/>
      <point x="313" y="-24"/>
      <point x="248" y="-24" type="qcurve"/>
      <point x="191" y="-24"/>
      <point x="164" y="13" type="qcurve"/>
      <point x="164" y="-69"/>
      <point x="167" y="-169" type="qcurve"/>
      <point x="167" y="-185"/>
    </contour>
  </outline>
</glyph>
<glyph name="paragraph" format="2">
  <advance height="1000" width="638"/>
  <unicode hex="00B6"/>
  <outline>
    <contour>
      <point x="306" y="-146" type="qcurve"/>
      <point x="291" y="-146"/>
      <point x="259" y="-133"/>
      <point x="259" y="-118" type="qcurve"/>
      <point x="262" y="-86"/>
      <point x="262" y="381" type="qcurve"/>
      <point x="241" y="377"/>
      <point x="181" y="377"/>
      <point x="103" y="414"/>
      <point x="54" y="489"/>
      <point x="54" y="551" type="qcurve"/>
      <point x="54" y="612"/>
      <point x="115" y="710"/>
      <point x="215" y="768"/>
      <point x="274" y="770" type="qcurve"/>
      <point x="484" y="780" type="line"/>
      <point x="514" y="780"/>
      <point x="542" y="747"/>
      <point x="542" y="726" type="qcurve"/>
      <point x="542" y="-89"/>
      <point x="543" y="-113" type="qcurve"/>
      <point x="543" y="-135"/>
      <point x="509" y="-135" type="qcurve"/>
      <point x="494" y="-135"/>
      <point x="462" y="-122"/>
      <point x="462" y="-107" type="qcurve"/>
      <point x="465" y="-76"/>
      <point x="465" y="708" type="qcurve"/>
      <point x="339" y="701" type="line"/>
      <point x="339" y="-101"/>
      <point x="340" y="-124" type="qcurve"/>
      <point x="340" y="-146"/>
    </contour>
  </outline>
</glyph>
<glyph name="cedilla" format="2">
  <advance height="1000" width="500"/>
  <unicode hex="00B8"/>
  <unicode hex="0327"/>
  <outline>
    <contour>
      <point x="306" y="-186"/>
      <point x="208" y="-186"/>
      <point x="162" y="-163" type="qcurve"/>
      <point x="149" y="-155"/>
      <point x="149" y="-136" type="qcurve"/>
      <point x="149" y="-120"/>
      <point x="161" y="-91"/>
      <point x="171" y="-91" type="qcurve"/>
      <point x="178" y="-91"/>
      <point x="191" y="-100" type="qcurve"/>
      <point x="218" y="-119"/>
      <point x="274" y="-119"/>
      <point x="291" y="-110"/>
      <point x="291" y="-98" type="qcurve"/>
      <point x="291" y="-78"/>
      <point x="260" y="-78" type="qcurve"/>
      <point x="247" y="-78"/>
      <point x="224" y="-82" type="qcurve"/>
      <point x="206" y="-82"/>
      <point x="183" y="-61"/>
      <point x="183" y="-49" type="qcurve"/>
      <point x="183" y="-40"/>
      <point x="189" y="-24" type="qcurve"/>
      <point x="197" y="-2"/>
      <point x="207" y="29" type="qcurve"/>
      <point x="285" y="23" type="line"/>
      <point x="271" y="-19" type="line"/>
      <point x="270" y="-19" type="line"/>
      <point x="270" y="-20"/>
      <point x="282" y="-20" type="qcurve"/>
      <point x="366" y="-20"/>
      <point x="366" y="-99" type="qcurve"/>
      <point x="366" y="-139"/>
    </contour>
  </outline>
</glyph>
<glyph name="uni00B9" format="2">
  <advance height="1000" width="380"/>
  <unicode hex="00B9"/>
  <outline>
    <contour>
      <point x="219" y="320" type="qcurve"/>
      <point x="200" y="320"/>
      <point x="167" y="340"/>
      <point x="167" y="357" type="qcurve"/>
      <point x="169" y="427"/>
      <point x="169" y="607" type="qcurve"/>
      <point x="140" y="588"/>
      <point x="104" y="588"/>
      <point x="77" y="609"/>
      <point x="77" y="620" type="qcurve"/>
      <point x="77" y="632"/>
      <point x="90" y="638" type="qcurve"/>
      <point x="112" y="646"/>
      <point x="161" y="684" type="qcurve"/>
      <point x="166" y="688"/>
      <point x="188" y="716"/>
      <point x="201" y="716" type="qcurve"/>
      <point x="212" y="716"/>
      <point x="244" y="692"/>
      <point x="244" y="676" type="qcurve"/>
      <point x="240" y="619" type="line"/>
      <point x="240" y="386"/>
      <point x="242" y="342" type="qcurve"/>
      <point x="242" y="320"/>
    </contour>
  </outline>
</glyph>
<glyph name="ordmasculine" format="2">
  <advance height="1000" width="320"/>
  <unicode hex="00BA"/>
  <outline>
    <contour>
      <point x="156" y="529" type="qcurve"/>
      <point x="183" y="529"/>
      <point x="223" y="580"/>
      <point x="223" y="648"/>
      <point x="199" y="688"/>
      <point x="176" y="688" type="qcurve"/>
      <point x="152" y="688"/>
      <point x="119" y="660"/>
      <point x="100" y="617"/>
      <point x="100" y="590" type="qcurve"/>
      <point x="100" y="564"/>
      <point x="128" y="529"/>
    </contour>
    <contour>
      <point x="148" y="462" type="qcurve"/>
      <point x="95" y="462"/>
      <point x="29" y="536"/>
      <point x="29" y="596" type="qcurve"/>
      <point x="29" y="627"/>
      <point x="54" y="692"/>
      <point x="91" y="739"/>
      <point x="105" y="739" type="qcurve"/>
      <point x="118" y="739"/>
      <point x="119" y="738" type="qcurve"/>
      <point x="140" y="754"/>
      <point x="228" y="754"/>
      <point x="294" y="681"/>
      <point x="294" y="615" type="qcurve"/>
      <point x="294" y="578"/>
      <point x="262" y="507"/>
      <point x="199" y="462"/>
    </contour>
  </outline>
</glyph>
<glyph name="guillemotright" format="2">
  <advance height="1000" width="530"/>
  <unicode hex="00BB"/>
  <outline>
    <contour>
      <point x="58" y="-28" type="qcurve"/>
      <point x="44" y="-28"/>
      <point x="25" y="13"/>
      <point x="25" y="28" type="qcurve"/>
      <point x="25" y="44"/>
      <point x="33" y="52" type="qcurve"/>
      <point x="80" y="98" type="line"/>
      <point x="148" y="168"/>
      <point x="222" y="235" type="qcurve"/>
      <point x="92" y="355"/>
      <point x="34" y="413" type="qcurve"/>
      <point x="25" y="420"/>
      <point x="25" y="437" type="qcurve"/>
      <point x="25" y="453"/>
      <point x="47" y="490"/>
      <point x="60" y="490" type="qcurve"/>
      <point x="67" y="490"/>
      <point x="72" y="484" type="qcurve"/>
      <point x="151" y="383"/>
      <point x="298" y="265" type="qcurve"/>
      <point x="304" y="259"/>
      <point x="304" y="246" type="qcurve"/>
      <point x="304" y="210"/>
      <point x="288" y="198" type="qcurve"/>
      <point x="236" y="160"/>
      <point x="122" y="42" type="qcurve"/>
      <point x="108" y="26"/>
      <point x="83" y="-6"/>
      <point x="65" y="-28"/>
    </contour>
    <contour>
      <point x="263" y="-28" type="qcurve"/>
      <point x="249" y="-28"/>
      <point x="230" y="13"/>
      <point x="230" y="28" type="qcurve"/>
      <point x="230" y="44"/>
      <point x="238" y="52" type="qcurve"/>
      <point x="285" y="98" type="line"/>
      <point x="353" y="168"/>
      <point x="427" y="235" type="qcurve"/>
      <point x="297" y="355"/>
      <point x="239" y="413" type="qcurve"/>
      <point x="230" y="420"/>
      <point x="230" y="437" type="qcurve"/>
      <point x="230" y="453"/>
      <point x="252" y="490"/>
      <point x="265" y="490" type="qcurve"/>
      <point x="272" y="490"/>
      <point x="277" y="484" type="qcurve"/>
      <point x="356" y="383"/>
      <point x="503" y="265" type="qcurve"/>
      <point x="509" y="259"/>
      <point x="509" y="246" type="qcurve"/>
      <point x="509" y="210"/>
      <point x="493" y="198" type="qcurve"/>
      <point x="441" y="160"/>
      <point x="327" y="42" type="qcurve"/>
      <point x="313" y="26"/>
      <point x="288" y="-6"/>
      <point x="270" y="-28"/>
    </contour>
  </outline>
</glyph>
<glyph name="onequarter" format="2">
  <advance height="1000" width="1000"/>
  <unicode hex="00BC"/>
  <outline>
    <contour>
      <point x="259" y="336" type="qcurve"/>
      <point x="246" y="336"/>
      <point x="213" y="356"/>
      <point x="213" y="372" type="qcurve"/>
      <point x="215" y="443" type="line"/>
      <point x="215" y="683" type="line"/>
      <point x="183" y="664"/>
      <point x="164" y="664" type="qcurve"/>
      <point x="144" y="664"/>
      <point x="116" y="684"/>
      <point x="116" y="695" type="qcurve"/>
      <point x="116" y="706"/>
      <point x="130" y="712" type="qcurve"/>
      <point x="156" y="721"/>
      <point x="212" y="762"/>
      <point x="235" y="790"/>
      <point x="249" y="790" type="qcurve"/>
      <point x="261" y="790"/>
      <point x="291" y="766"/>
      <point x="291" y="750" type="qcurve"/>
      <point x="287" y="693" type="line"/>
      <point x="287" y="402"/>
      <point x="289" y="358" type="qcurve"/>
      <point x="289" y="336"/>
    </contour>
    <contour>
      <point x="83" y="-93" type="qcurve"/>
      <point x="71" y="-93"/>
      <point x="48" y="-55"/>
      <point x="48" y="-41" type="qcurve"/>
      <point x="48" y="-26"/>
      <point x="55" y="-20" type="qcurve"/>
      <point x="90" y="7"/>
      <point x="137" y="54" type="qcurve"/>
      <point x="828" y="749" type="line"/>
      <point x="887" y="812"/>
      <point x="909" y="840" type="qcurve"/>
      <point x="917" y="849"/>
      <point x="929" y="849" type="qcurve"/>
      <point x="941" y="849"/>
      <point x="964" y="811"/>
      <point x="964" y="797" type="qcurve"/>
      <point x="964" y="782"/>
      <point x="957" y="776" type="qcurve"/>
      <point x="939" y="760"/>
      <point x="895" y="721"/>
      <point x="875" y="701" type="qcurve"/>
      <point x="184" y="6" type="line"/>
      <point x="145" y="-33"/>
      <point x="102" y="-85" type="qcurve"/>
      <point x="94" y="-93"/>
    </contour>
    <contour>
      <point x="848" y="-65" type="qcurve"/>
      <point x="798" y="-65"/>
      <point x="798" y="-37" type="qcurve"/>
      <point x="799" y="30" type="line"/>
      <point x="646" y="23" type="line"/>
      <point x="618" y="18" type="line"/>
      <point x="601" y="18"/>
      <point x="569" y="46"/>
      <point x="569" y="63" type="qcurve"/>
      <point x="569" y="78"/>
      <point x="585" y="98"/>
      <point x="640" y="173"/>
      <point x="761" y="357"/>
      <point x="771" y="386" type="qcurve"/>
      <point x="776" y="397"/>
      <point x="790" y="397" type="qcurve"/>
      <point x="802" y="397"/>
      <point x="837" y="366"/>
      <point x="837" y="354" type="qcurve"/>
      <point x="837" y="342"/>
      <point x="831" y="333" type="qcurve"/>
      <point x="817" y="313" type="line"/>
      <point x="808" y="299"/>
      <point x="713" y="155"/>
      <point x="667" y="92" type="qcurve"/>
      <point x="799" y="98" type="line"/>
      <point x="799" y="206" type="line"/>
      <point x="798" y="270" type="line"/>
      <point x="798" y="288"/>
      <point x="822" y="288" type="qcurve"/>
      <point x="841" y="288"/>
      <point x="872" y="274"/>
      <point x="872" y="259" type="qcurve"/>
      <point x="871" y="206" type="line"/>
      <point x="871" y="100" type="line"/>
      <point x="902" y="104"/>
      <point x="916" y="104" type="qcurve"/>
      <point x="933" y="104"/>
      <point x="950" y="72"/>
      <point x="950" y="54" type="qcurve"/>
      <point x="950" y="31"/>
      <point x="931" y="31" type="qcurve"/>
      <point x="871" y="31" type="line"/>
      <point x="873" y="-47" type="line"/>
      <point x="873" y="-65"/>
    </contour>
  </outline>
</glyph>
<glyph name="onehalf" format="2">
  <advance height="1000" width="1000"/>
  <unicode hex="00BD"/>
  <outline>
    <contour>
      <point x="259" y="336" type="qcurve"/>
      <point x="246" y="336"/>
      <point x="213" y="356"/>
      <point x="213" y="372" type="qcurve"/>
      <point x="215" y="443" type="line"/>
      <point x="215" y="683" type="line"/>
      <point x="183" y="664"/>
      <point x="164" y="664" type="qcurve"/>
      <point x="144" y="664"/>
      <point x="116" y="684"/>
      <point x="116" y="695" type="qcurve"/>
      <point x="116" y="706"/>
      <point x="130" y="712" type="qcurve"/>
      <point x="156" y="721"/>
      <point x="212" y="762"/>
      <point x="235" y="790"/>
      <point x="249" y="790" type="qcurve"/>
      <point x="261" y="790"/>
      <point x="291" y="766"/>
      <point x="291" y="750" type="qcurve"/>
      <point x="287" y="693" type="line"/>
      <point x="287" y="402"/>
      <point x="289" y="358" type="qcurve"/>
      <point x="289" y="336"/>
    </contour>
    <contour>
      <point x="83" y="-93" type="qcurve"/>
      <point x="71" y="-93"/>
      <point x="48" y="-55"/>
      <point x="48" y="-41" type="qcurve"/>
      <point x="48" y="-26"/>
      <point x="55" y="-20" type="qcurve"/>
      <point x="90" y="7"/>
      <point x="137" y="54" type="qcurve"/>
      <point x="828" y="749" type="line"/>
      <point x="887" y="812"/>
      <point x="909" y="840" type="qcurve"/>
      <point x="917" y="849"/>
      <point x="929" y="849" type="qcurve"/>
      <point x="941" y="849"/>
      <point x="964" y="811"/>
      <point x="964" y="797" type="qcurve"/>
      <point x="964" y="782"/>
      <point x="957" y="776" type="qcurve"/>
      <point x="939" y="760"/>
      <point x="895" y="721"/>
      <point x="875" y="701" type="qcurve"/>
      <point x="184" y="6" type="line"/>
      <point x="145" y="-33"/>
      <point x="102" y="-85" type="qcurve"/>
      <point x="94" y="-93"/>
    </contour>
    <contour>
      <point x="640" y="-69" type="qcurve"/>
      <point x="636" y="-69" type="line"/>
      <point x="617" y="-69"/>
      <point x="591" y="-34"/>
      <point x="591" y="-22" type="qcurve"/>
      <point x="591" y="-11"/>
      <point x="600" y="3"/>
      <point x="609" y="11"/>
      <point x="612" y="15" type="qcurve"/>
      <point x="631" y="44"/>
      <point x="712" y="130"/>
      <point x="806" y="199"/>
      <point x="855" y="244"/>
      <point x="855" y="269" type="qcurve"/>
      <point x="855" y="293"/>
      <point x="819" y="320"/>
      <point x="783" y="320" type="qcurve"/>
      <point x="714" y="320"/>
      <point x="687" y="270" type="qcurve"/>
      <point x="675" y="243"/>
      <point x="658" y="243" type="qcurve"/>
      <point x="646" y="243"/>
      <point x="617" y="268"/>
      <point x="617" y="284" type="qcurve"/>
      <point x="617" y="298"/>
      <point x="624" y="308" type="qcurve"/>
      <point x="679" y="388"/>
      <point x="784" y="388" type="qcurve"/>
      <point x="856" y="388"/>
      <point x="928" y="323"/>
      <point x="928" y="274" type="qcurve"/>
      <point x="928" y="226"/>
      <point x="867" y="155"/>
      <point x="819" y="119" type="qcurve"/>
      <point x="736" y="60"/>
      <point x="694" y="5" type="qcurve"/>
      <point x="721" y="6"/>
      <point x="761" y="6" type="qcurve"/>
      <point x="856" y="5" type="line"/>
      <point x="898" y="6" type="line"/>
      <point x="913" y="6"/>
      <point x="933" y="-25"/>
      <point x="933" y="-44" type="qcurve"/>
      <point x="933" y="-67"/>
      <point x="910" y="-67" type="qcurve"/>
      <point x="904" y="-67"/>
      <point x="852" y="-62"/>
      <point x="809" y="-62" type="qcurve"/>
      <point x="729" y="-62" type="line"/>
      <point x="677" y="-62"/>
    </contour>
  </outline>
</glyph>
<glyph name="questiondown" format="2">
  <advance height="1000" width="600"/>
  <unicode hex="00BF"/>
  <outline>
    <contour>
      <point x="258" y="-220" type="qcurve"/>
      <point x="174" y="-220"/>
      <point x="79" y="-143"/>
      <point x="79" y="-81" type="qcurve"/>
      <point x="79" y="-22"/>
      <point x="99" y="16" type="qcurve"/>
      <point x="127" y="69"/>
      <point x="205" y="130" type="qcurve"/>
      <point x="235" y="153"/>
      <point x="281" y="208"/>
      <point x="281" y="245" type="qcurve"/>
      <point x="281" y="274"/>
      <point x="271" y="314" type="qcurve"/>
      <point x="271" y="337"/>
      <point x="310" y="337" type="qcurve"/>
      <point x="346" y="337"/>
      <point x="360" y="300"/>
      <point x="360" y="252"/>
      <point x="350" y="183"/>
      <point x="306" y="124"/>
      <point x="251" y="76"/>
      <point x="224" y="53" type="qcurve"/>
      <point x="164" y="-1"/>
      <point x="164" y="-69" type="qcurve"/>
      <point x="164" y="-103"/>
      <point x="207" y="-149"/>
      <point x="254" y="-149" type="qcurve"/>
      <point x="303" y="-149"/>
      <point x="384" y="-112"/>
      <point x="434" y="-60"/>
      <point x="446" y="-18" type="qcurve"/>
      <point x="452" y="-1"/>
      <point x="471" y="-1" type="qcurve"/>
      <point x="487" y="-1"/>
      <point x="523" y="-31"/>
      <point x="523" y="-57"/>
      <point x="520" y="-61" type="qcurve"/>
      <point x="429" y="-220"/>
    </contour>
    <contour>
      <point x="346" y="392"/>
      <point x="294" y="392"/>
      <point x="258" y="437"/>
      <point x="258" y="461" type="qcurve"/>
      <point x="258" y="484"/>
      <point x="286" y="514"/>
      <point x="340" y="514"/>
      <point x="375" y="472"/>
      <point x="375" y="449" type="qcurve"/>
      <point x="375" y="425"/>
    </contour>
  </outline>
</glyph>
<glyph name="Agrave" format="2">
  <advance height="1000" width="690"/>
  <unicode hex="00C0"/>
  <outline>
    <contour>
      <point x="220" y="291" type="qcurve"/>
      <point x="473" y="302" type="line"/>
      <point x="391" y="491"/>
      <point x="356" y="585" type="qcurve"/>
      <point x="278" y="413"/>
    </contour>
    <contour>
      <point x="633" y="-15" type="qcurve"/>
      <point x="607" y="-15"/>
      <point x="601" y="1" type="qcurve"/>
      <point x="582" y="57"/>
      <point x="561" y="107" type="qcurve"/>
      <point x="503" y="233" type="line"/>
      <point x="345" y="226" type="line"/>
      <point x="199" y="219"/>
      <point x="184" y="219" type="qcurve"/>
      <point x="101" y="47"/>
      <point x="87" y="8" type="qcurve"/>
      <point x="79" y="-13"/>
      <point x="37" y="-13" type="qcurve"/>
      <point x="-7" y="-13"/>
      <point x="-7" y="12" type="qcurve"/>
      <point x="-7" y="20"/>
      <point x="2" y="32"/>
      <point x="10" y="47"/>
      <point x="29" y="83"/>
      <point x="68" y="156"/>
      <point x="96" y="212" type="qcurve"/>
      <point x="99" y="212" type="line"/>
      <point x="83" y="212"/>
      <point x="61" y="253"/>
      <point x="61" y="270" type="qcurve"/>
      <point x="61" y="291"/>
      <point x="79" y="291" type="qcurve"/>
      <point x="98" y="289"/>
      <point x="134" y="289" type="qcurve"/>
      <point x="307" y="634"/>
      <point x="312" y="681" type="qcurve"/>
      <point x="314" y="701"/>
      <point x="327" y="717"/>
      <point x="346" y="717" type="qcurve"/>
      <point x="362" y="717"/>
      <point x="404" y="697"/>
      <point x="408" y="680" type="qcurve"/>
      <point x="405" y="660" type="line"/>
      <point x="405" y="648"/>
      <point x="458" y="522" type="qcurve"/>
      <point x="624" y="127"/>
      <point x="685" y="39" type="qcurve"/>
      <point x="697" y="22"/>
      <point x="697" y="16" type="qcurve"/>
      <point x="697" y="0"/>
      <point x="656" y="-15"/>
    </contour>
    <contour>
      <point x="433" y="735" type="qcurve"/>
      <point x="426" y="735"/>
      <point x="385" y="759"/>
      <point x="290" y="792"/>
      <point x="240" y="810" type="qcurve"/>
      <point x="229" y="815"/>
      <point x="229" y="828" type="qcurve"/>
      <point x="229" y="838"/>
      <point x="253" y="866"/>
      <point x="283" y="886"/>
      <point x="292" y="886" type="qcurve"/>
      <point x="299" y="886"/>
      <point x="303" y="884" type="qcurve"/>
      <point x="456" y="783"/>
      <point x="456" y="758" type="qcurve"/>
      <point x="456" y="735"/>
    </contour>
  </outline>
</glyph>
<glyph name="Atilde" format="2">
  <advance height="1000" width="690"/>
  <unicode hex="00C3"/>
  <outline>
    <contour>
      <point x="220" y="291" type="qcurve"/>
      <point x="473" y="302" type="line"/>
      <point x="391" y="491"/>
      <point x="356" y="585" type="qcurve"/>
      <point x="278" y="413"/>
    </contour>
    <contour>
      <point x="633" y="-15" type="qcurve"/>
      <point x="607" y="-15"/>
      <point x="601" y="1" type="qcurve"/>
      <point x="582" y="57"/>
      <point x="561" y="107" type="qcurve"/>
      <point x="503" y="233" type="line"/>
      <point x="345" y="226" type="line"/>
      <point x="199" y="219"/>
      <point x="184" y="219" type="qcurve"/>
      <point x="101" y="47"/>
      <point x="87" y="8" type="qcurve"/>
      <point x="79" y="-13"/>
      <point x="37" y="-13" type="qcurve"/>
      <point x="-7" y="-13"/>
      <point x="-7" y="12" type="qcurve"/>
      <point x="-7" y="20"/>
      <point x="2" y="32"/>
      <point x="10" y="47"/>
      <point x="29" y="83"/>
      <point x="68" y="156"/>
      <point x="96" y="212" type="qcurve"/>
      <point x="99" y="212" type="line"/>
      <point x="83" y="212"/>
      <point x="61" y="253"/>
      <point x="61" y="270" type="qcurve"/>
      <point x="61" y="291"/>
      <point x="79" y="291" type="qcurve"/>
      <point x="98" y="289"/>
      <point x="134" y="289" type="qcurve"/>
      <point x="307" y="634"/>
      <point x="312" y="681" type="qcurve"/>
      <point x="314" y="701"/>
      <point x="327" y="717"/>
      <point x="346" y="717" type="qcurve"/>
      <point x="362" y="717"/>
      <point x="404" y="697"/>
      <point x="408" y="680" type="qcurve"/>
      <point x="405" y="660" type="line"/>
      <point x="405" y="648"/>
      <point x="458" y="522" type="qcurve"/>
      <point x="624" y="127"/>
      <point x="685" y="39" type="qcurve"/>
      <point x="697" y="22"/>
      <point x="697" y="16" type="qcurve"/>
      <point x="697" y="0"/>
      <point x="656" y="-15"/>
    </contour>
    <contour>
      <point x="223" y="750" type="qcurve"/>
      <point x="199" y="750"/>
      <point x="199" y="771" type="qcurve"/>
      <point x="199" y="777"/>
      <point x="200" y="780" type="qcurve"/>
      <point x="209" y="813"/>
      <point x="260" y="869"/>
      <point x="298" y="869" type="qcurve"/>
      <point x="334" y="869"/>
      <point x="374" y="847"/>
      <point x="404" y="826"/>
      <point x="421" y="826" type="qcurve"/>
      <point x="439" y="826"/>
      <point x="467" y="837"/>
      <point x="482" y="872"/>
      <point x="494" y="872" type="qcurve"/>
      <point x="518" y="872"/>
      <point x="518" y="850" type="qcurve"/>
      <point x="518" y="845"/>
      <point x="517" y="842" type="qcurve"/>
      <point x="509" y="810"/>
      <point x="457" y="753"/>
      <point x="383" y="753"/>
      <point x="343" y="776"/>
      <point x="313" y="796"/>
      <point x="296" y="796" type="qcurve"/>
      <point x="278" y="796"/>
      <point x="250" y="785"/>
      <point x="235" y="750"/>
    </contour>
  </outline>
</glyph>
<glyph name="Aring" format="2">
  <advance height="1000" width="690"/>
  <unicode hex="00C5"/>
  <outline>
    <contour>
      <point x="220" y="291" type="qcurve"/>
      <point x="473" y="302" type="line"/>
      <point x="391" y="491"/>
      <point x="356" y="585" type="qcurve"/>
      <point x="278" y="413"/>
    </contour>
    <contour>
      <point x="633" y="-15" type="qcurve"/>
      <point x="607" y="-15"/>
      <point x="601" y="1" type="qcurve"/>
      <point x="582" y="57"/>
      <point x="561" y="107" type="qcurve"/>
      <point x="503" y="233" type="line"/>
      <point x="345" y="226" type="line"/>
      <point x="199" y="219"/>
      <point x="184" y="219" type="qcurve"/>
      <point x="101" y="47"/>
      <point x="87" y="8" type="qcurve"/>
      <point x="79" y="-13"/>
      <point x="37" y="-13" type="qcurve"/>
      <point x="-7" y="-13"/>
      <point x="-7" y="12" type="qcurve"/>
      <point x="-7" y="20"/>
      <point x="2" y="32"/>
      <point x="10" y="47"/>
      <point x="29" y="83"/>
      <point x="68" y="156"/>
      <point x="96" y="212" type="qcurve"/>
      <point x="99" y="212" type="line"/>
      <point x="83" y="212"/>
      <point x="61" y="253"/>
      <point x="61" y="270" type="qcurve"/>
      <point x="61" y="291"/>
      <point x="79" y="291" type="qcurve"/>
      <point x="98" y="289"/>
      <point x="134" y="289" type="qcurve"/>
      <point x="307" y="634"/>
      <point x="312" y="681" type="qcurve"/>
      <point x="314" y="701"/>
      <point x="320" y="709" type="qcurve"/>
      <point x="326" y="715"/>
      <point x="338" y="717" type="qcurve"/>
      <point x="309" y="722"/>
      <point x="286" y="745" type="qcurve"/>
      <point x="256" y="775"/>
      <point x="256" y="855"/>
      <point x="316" y="915"/>
      <point x="396" y="915"/>
      <point x="456" y="855"/>
      <point x="456" y="775"/>
      <point x="426" y="745" type="qcurve"/>
      <point x="398" y="717"/>
      <point x="361" y="715" type="qcurve"/>
      <point x="371" y="713"/>
      <point x="383" y="707" type="qcurve"/>
      <point x="404" y="697"/>
      <point x="408" y="680" type="qcurve"/>
      <point x="405" y="660" type="line"/>
      <point x="405" y="648"/>
      <point x="458" y="522" type="qcurve"/>
      <point x="624" y="127"/>
      <point x="685" y="39" type="qcurve"/>
      <point x="697" y="22"/>
      <point x="697" y="16" type="qcurve"/>
      <point x="697" y="0"/>
      <point x="656" y="-15"/>
    </contour>
    <contour>
      <point x="357" y="775" type="qcurve"/>
      <point x="373" y="775"/>
      <point x="396" y="798"/>
      <point x="396" y="816" type="qcurve"/>
      <point x="396" y="833"/>
      <point x="374" y="855"/>
      <point x="357" y="855" type="qcurve"/>
      <point x="339" y="855"/>
      <point x="316" y="832"/>
      <point x="316" y="816" type="qcurve"/>
      <point x="316" y="798"/>
      <point x="339" y="775"/>
    </contour>
  </outline>
</glyph>
<glyph name="AE" format="2">
  <advance height="1000" width="900"/>
  <unicode hex="00C6"/>
  <outline>
    <contour>
      <point x="247" y="285" type="qcurve"/>
      <point x="420" y="295" type="line"/>
      <point x="420" y="594" type="line"/>
      <point x="350" y="464"/>
    </contour>
    <contour>
      <point x="462" y="-16" type="qcurve"/>
      <point x="444" y="-16"/>
      <point x="413" y="23"/>
      <point x="413" y="37" type="qcurve"/>
      <point x="420" y="84" type="line"/>
      <point x="420" y="224" type="line"/>
      <point x="204" y="211" type="line"/>
      <point x="111" y="52"/>
      <point x="89" y="9" type="qcurve"/>
      <point x="79" y="-10"/>
      <point x="54" y="-10" type="qcurve"/>
      <point x="-2" y="-10"/>
      <point x="-2" y="18" type="qcurve"/>
      <point x="-2" y="31"/>
      <point x="11" y="50" type="qcurve"/>
      <point x="65" y="122"/>
      <point x="110" y="203" type="qcurve"/>
      <point x="99" y="202" type="line"/>
      <point x="82" y="202"/>
      <point x="54" y="241"/>
      <point x="54" y="259" type="qcurve"/>
      <point x="54" y="281"/>
      <point x="83" y="281" type="qcurve"/>
      <point x="147" y="281"/>
      <point x="156" y="282" type="qcurve"/>
      <point x="225" y="396"/>
      <point x="287" y="509" type="qcurve"/>
      <point x="374" y="667"/>
      <point x="381" y="693" type="qcurve"/>
      <point x="386" y="714"/>
      <point x="412" y="714" type="qcurve"/>
      <point x="433" y="714"/>
      <point x="488" y="692" type="qcurve"/>
      <point x="710" y="708"/>
      <point x="801" y="716" type="qcurve"/>
      <point x="819" y="716"/>
      <point x="839" y="675"/>
      <point x="839" y="658" type="qcurve"/>
      <point x="839" y="635"/>
      <point x="821" y="635" type="qcurve"/>
      <point x="785" y="636" type="line"/>
      <point x="746" y="636"/>
      <point x="504" y="618" type="qcurve"/>
      <point x="504" y="409" type="line"/>
      <point x="676" y="418"/>
      <point x="724" y="424"/>
      <point x="738" y="425" type="qcurve"/>
      <point x="756" y="425"/>
      <point x="778" y="385"/>
      <point x="778" y="367" type="qcurve"/>
      <point x="778" y="344"/>
      <point x="759" y="344" type="qcurve"/>
      <point x="679" y="344"/>
      <point x="504" y="336" type="qcurve"/>
      <point x="504" y="67" type="line"/>
      <point x="788" y="71"/>
      <point x="825" y="73" type="qcurve"/>
      <point x="843" y="73"/>
      <point x="864" y="31"/>
      <point x="864" y="13" type="qcurve"/>
      <point x="864" y="-10"/>
      <point x="846" y="-10" type="qcurve"/>
      <point x="792" y="-7"/>
      <point x="743" y="-7" type="qcurve"/>
      <point x="499" y="-9"/>
      <point x="477" y="-16"/>
    </contour>
  </outline>
</glyph>
<glyph name="Ccedilla" format="2">
  <advance height="1000" width="703"/>
  <unicode hex="00C7"/>
  <outline>
    <contour>
      <point x="432" y="-186"/>
      <point x="334" y="-186"/>
      <point x="288" y="-163" type="qcurve"/>
      <point x="275" y="-155"/>
      <point x="275" y="-136" type="qcurve"/>
      <point x="275" y="-120"/>
      <point x="287" y="-91"/>
      <point x="297" y="-91" type="qcurve"/>
      <point x="304" y="-91"/>
      <point x="317" y="-100" type="qcurve"/>
      <point x="344" y="-119"/>
      <point x="400" y="-119"/>
      <point x="417" y="-110"/>
      <point x="417" y="-98" type="qcurve"/>
      <point x="417" y="-78"/>
      <point x="386" y="-78" type="qcurve"/>
      <point x="373" y="-78"/>
      <point x="350" y="-82" type="qcurve"/>
      <point x="332" y="-82"/>
      <point x="309" y="-61"/>
      <point x="309" y="-49" type="qcurve"/>
      <point x="309" y="-40"/>
      <point x="316" y="-20" type="qcurve"/>
      <point x="150" y="-8"/>
      <point x="81" y="121" type="qcurve"/>
      <point x="45" y="189"/>
      <point x="45" y="286" type="qcurve"/>
      <point x="45" y="472"/>
      <point x="253" y="719"/>
      <point x="408" y="719" type="qcurve"/>
      <point x="560" y="719"/>
      <point x="633" y="632" type="qcurve"/>
      <point x="637" y="626"/>
      <point x="637" y="614" type="qcurve"/>
      <point x="637" y="601"/>
      <point x="608" y="563"/>
      <point x="594" y="563" type="qcurve"/>
      <point x="579" y="563"/>
      <point x="571" y="575" type="qcurve"/>
      <point x="527" y="643"/>
      <point x="410" y="643" type="qcurve"/>
      <point x="292" y="643"/>
      <point x="213" y="546" type="qcurve"/>
      <point x="129" y="447"/>
      <point x="129" y="289" type="qcurve"/>
      <point x="129" y="132"/>
      <point x="241" y="77" type="qcurve"/>
      <point x="293" y="51"/>
      <point x="351" y="51" type="qcurve"/>
      <point x="408" y="51"/>
      <point x="508" y="85"/>
      <point x="601" y="148"/>
      <point x="631" y="189" type="qcurve"/>
      <point x="645" y="206"/>
      <point x="661" y="206" type="qcurve"/>
      <point x="680" y="206"/>
      <point x="680" y="186" type="qcurve"/>
      <point x="680" y="169"/>
      <point x="641" y="107"/>
      <point x="604" y="74" type="qcurve"/>
      <point x="515" y="-10"/>
      <point x="392" y="-21" type="qcurve"/>
      <point x="391" y="-21" type="line"/>
      <point x="391" y="-22"/>
      <point x="404" y="-22" type="qcurve"/>
      <point x="492" y="-22"/>
      <point x="492" y="-99" type="qcurve"/>
      <point x="492" y="-139"/>
    </contour>
  </outline>
</glyph>
<glyph name="Egrave" format="2">
  <advance height="1000" width="638"/>
  <unicode hex="00C8"/>
  <outline>
    <contour>
      <point x="142" y="-16" type="qcurve"/>
      <point x="124" y="-16"/>
      <point x="93" y="23"/>
      <point x="93" y="37" type="qcurve"/>
      <point x="100" y="84" type="line"/>
      <point x="100" y="340" type="line"/>
      <point x="90" y="346"/>
      <point x="73" y="381"/>
      <point x="73" y="393" type="qcurve"/>
      <point x="73" y="410"/>
      <point x="89" y="410" type="qcurve"/>
      <point x="100" y="408" type="line"/>
      <point x="100" y="634" type="line"/>
      <point x="96" y="685" type="line"/>
      <point x="96" y="705"/>
      <point x="116" y="705" type="qcurve"/>
      <point x="144" y="705"/>
      <point x="170" y="692" type="qcurve"/>
      <point x="265" y="699"/>
      <point x="430" y="709" type="qcurve"/>
      <point x="462" y="712"/>
      <point x="514" y="718"/>
      <point x="526" y="718" type="qcurve"/>
      <point x="540" y="718"/>
      <point x="563" y="679"/>
      <point x="563" y="662" type="qcurve"/>
      <point x="563" y="640"/>
      <point x="544" y="640" type="qcurve"/>
      <point x="456" y="640"/>
      <point x="180" y="621" type="qcurve"/>
      <point x="180" y="409" type="line"/>
      <point x="397" y="423"/>
      <point x="433" y="427" type="qcurve"/>
      <point x="459" y="430"/>
      <point x="471" y="430" type="qcurve"/>
      <point x="485" y="430"/>
      <point x="508" y="391"/>
      <point x="508" y="373" type="qcurve"/>
      <point x="508" y="351"/>
      <point x="489" y="351" type="qcurve"/>
      <point x="404" y="351"/>
      <point x="180" y="338" type="qcurve"/>
      <point x="180" y="65" type="line"/>
      <point x="523" y="71"/>
      <point x="555" y="73" type="qcurve"/>
      <point x="573" y="73"/>
      <point x="594" y="31"/>
      <point x="594" y="14" type="qcurve"/>
      <point x="594" y="-8"/>
      <point x="576" y="-8" type="qcurve"/>
      <point x="552" y="-5"/>
      <point x="473" y="-5" type="qcurve"/>
      <point x="179" y="-9"/>
      <point x="157" y="-16"/>
    </contour>
    <contour>
      <point x="407" y="735" type="qcurve"/>
      <point x="400" y="735"/>
      <point x="359" y="759"/>
      <point x="264" y="792"/>
      <point x="214" y="810" type="qcurve"/>
      <point x="203" y="815"/>
      <point x="203" y="828" type="qcurve"/>
      <point x="203" y="838"/>
      <point x="227" y="866"/>
      <point x="257" y="886"/>
      <point x="266" y="886" type="qcurve"/>
      <point x="273" y="886"/>
      <point x="277" y="884" type="qcurve"/>
      <point x="430" y="783"/>
      <point x="430" y="758" type="qcurve"/>
      <point x="430" y="735"/>
    </contour>
  </outline>
</glyph>
<glyph name="Eacute" format="2">
  <advance height="1000" width="638"/>
  <unicode hex="00C9"/>
  <outline>
    <contour>
      <point x="142" y="-16" type="qcurve"/>
      <point x="124" y="-16"/>
      <point x="93" y="23"/>
      <point x="93" y="37" type="qcurve"/>
      <point x="100" y="84" type="line"/>
      <point x="100" y="340" type="line"/>
      <point x="90" y="346"/>
      <point x="73" y="381"/>
      <point x="73" y="393" type="qcurve"/>
      <point x="73" y="410"/>
      <point x="89" y="410" type="qcurve"/>
      <point x="100" y="408" type="line"/>
      <point x="100" y="634" type="line"/>
      <point x="96" y="685" type="line"/>
      <point x="96" y="705"/>
      <point x="116" y="705" type="qcurve"/>
      <point x="144" y="705"/>
      <point x="170" y="692" type="qcurve"/>
      <point x="265" y="699"/>
      <point x="430" y="709" type="qcurve"/>
      <point x="462" y="712"/>
      <point x="514" y="718"/>
      <point x="526" y="718" type="qcurve"/>
      <point x="540" y="718"/>
      <point x="563" y="679"/>
      <point x="563" y="662" type="qcurve"/>
      <point x="563" y="640"/>
      <point x="544" y="640" type="qcurve"/>
      <point x="456" y="640"/>
      <point x="180" y="621" type="qcurve"/>
      <point x="180" y="409" type="line"/>
      <point x="397" y="423"/>
      <point x="433" y="427" type="qcurve"/>
      <point x="459" y="430"/>
      <point x="471" y="430" type="qcurve"/>
      <point x="485" y="430"/>
      <point x="508" y="391"/>
      <point x="508" y="373" type="qcurve"/>
      <point x="508" y="351"/>
      <point x="489" y="351" type="qcurve"/>
      <point x="404" y="351"/>
      <point x="180" y="338" type="qcurve"/>
      <point x="180" y="65" type="line"/>
      <point x="523" y="71"/>
      <point x="555" y="73" type="qcurve"/>
      <point x="573" y="73"/>
      <point x="594" y="31"/>
      <point x="594" y="14" type="qcurve"/>
      <point x="594" y="-8"/>
      <point x="576" y="-8" type="qcurve"/>
      <point x="552" y="-5"/>
      <point x="473" y="-5" type="qcurve"/>
      <point x="179" y="-9"/>
      <point x="157" y="-16"/>
    </contour>
    <contour>
      <point x="250" y="735"/>
      <point x="234" y="735"/>
      <point x="220" y="749"/>
      <point x="220" y="758" type="qcurve"/>
      <point x="220" y="782"/>
      <point x="373" y="884" type="qcurve"/>
      <point x="377" y="886"/>
      <point x="385" y="886" type="qcurve"/>
      <point x="394" y="886"/>
      <point x="409" y="875" type="qcurve"/>
      <point x="447" y="849"/>
      <point x="447" y="826" type="qcurve"/>
      <point x="447" y="815"/>
      <point x="436" y="810" type="qcurve"/>
      <point x="387" y="792"/>
      <point x="291" y="759"/>
    </contour>
  </outline>
</glyph>
<glyph name="Ecircumflex" format="2">
  <advance height="1000" width="638"/>
  <unicode hex="00CA"/>
  <outline>
    <contour>
      <point x="142" y="-16" type="qcurve"/>
      <point x="124" y="-16"/>
      <point x="93" y="23"/>
      <point x="93" y="37" type="qcurve"/>
      <point x="100" y="84" type="line"/>
      <point x="100" y="340" type="line"/>
      <point x="90" y="346"/>
      <point x="73" y="381"/>
      <point x="73" y="393" type="qcurve"/>
      <point x="73" y="410"/>
      <point x="89" y="410" type="qcurve"/>
      <point x="100" y="408" type="line"/>
      <point x="100" y="634" type="line"/>
      <point x="96" y="685" type="line"/>
      <point x="96" y="705"/>
      <point x="116" y="705" type="qcurve"/>
      <point x="144" y="705"/>
      <point x="170" y="692" type="qcurve"/>
      <point x="265" y="699"/>
      <point x="430" y="709" type="qcurve"/>
      <point x="462" y="712"/>
      <point x="514" y="718"/>
      <point x="526" y="718" type="qcurve"/>
      <point x="540" y="718"/>
      <point x="563" y="679"/>
      <point x="563" y="662" type="qcurve"/>
      <point x="563" y="640"/>
      <point x="544" y="640" type="qcurve"/>
      <point x="456" y="640"/>
      <point x="180" y="621" type="qcurve"/>
      <point x="180" y="409" type="line"/>
      <point x="397" y="423"/>
      <point x="433" y="427" type="qcurve"/>
      <point x="459" y="430"/>
      <point x="471" y="430" type="qcurve"/>
      <point x="485" y="430"/>
      <point x="508" y="391"/>
      <point x="508" y="373" type="qcurve"/>
      <point x="508" y="351"/>
      <point x="489" y="351" type="qcurve"/>
      <point x="404" y="351"/>
      <point x="180" y="338" type="qcurve"/>
      <point x="180" y="65" type="line"/>
      <point x="523" y="71"/>
      <point x="555" y="73" type="qcurve"/>
      <point x="573" y="73"/>
      <point x="594" y="31"/>
      <point x="594" y="14" type="qcurve"/>
      <point x="594" y="-8"/>
      <point x="576" y="-8" type="qcurve"/>
      <point x="552" y="-5"/>
      <point x="473" y="-5" type="qcurve"/>
      <point x="179" y="-9"/>
      <point x="157" y="-16"/>
    </contour>
    <contour>
      <point x="472" y="726" type="qcurve"/>
      <point x="462" y="726"/>
      <point x="425" y="758"/>
      <point x="331" y="817" type="qcurve"/>
      <point x="234" y="755"/>
      <point x="199" y="726"/>
      <point x="189" y="726" type="qcurve"/>
      <point x="165" y="726"/>
      <point x="165" y="748" type="qcurve"/>
      <point x="165" y="765"/>
      <point x="248" y="849" type="qcurve"/>
      <point x="268" y="870"/>
      <point x="292" y="894"/>
      <point x="315" y="898"/>
      <point x="338" y="898" type="qcurve"/>
      <point x="362" y="898"/>
      <point x="388" y="872"/>
      <point x="408" y="853" type="qcurve"/>
      <point x="496" y="768"/>
      <point x="496" y="749" type="qcurve"/>
      <point x="496" y="726"/>
    </contour>
  </outline>
</glyph>
<glyph name="Edieresis" format="2">
  <advance height="1000" width="638"/>
  <unicode hex="00CB"/>
  <outline>
    <contour>
      <point x="142" y="-16" type="qcurve"/>
      <point x="124" y="-16"/>
      <point x="93" y="23"/>
      <point x="93" y="37" type="qcurve"/>
      <point x="100" y="84" type="line"/>
      <point x="100" y="340" type="line"/>
      <point x="90" y="346"/>
      <point x="73" y="381"/>
      <point x="73" y="393" type="qcurve"/>
      <point x="73" y="410"/>
      <point x="89" y="410" type="qcurve"/>
      <point x="100" y="408" type="line"/>
      <point x="100" y="634" type="line"/>
      <point x="96" y="685" type="line"/>
      <point x="96" y="705"/>
      <point x="116" y="705" type="qcurve"/>
      <point x="144" y="705"/>
      <point x="170" y="692" type="qcurve"/>
      <point x="265" y="699"/>
      <point x="430" y="709" type="qcurve"/>
      <point x="462" y="712"/>
      <point x="514" y="718"/>
      <point x="526" y="718" type="qcurve"/>
      <point x="540" y="718"/>
      <point x="563" y="679"/>
      <point x="563" y="662" type="qcurve"/>
      <point x="563" y="640"/>
      <point x="544" y="640" type="qcurve"/>
      <point x="456" y="640"/>
      <point x="180" y="621" type="qcurve"/>
      <point x="180" y="409" type="line"/>
      <point x="397" y="423"/>
      <point x="433" y="427" type="qcurve"/>
      <point x="459" y="430"/>
      <point x="471" y="430" type="qcurve"/>
      <point x="485" y="430"/>
      <point x="508" y="391"/>
      <point x="508" y="373" type="qcurve"/>
      <point x="508" y="351"/>
      <point x="489" y="351" type="qcurve"/>
      <point x="404" y="351"/>
      <point x="180" y="338" type="qcurve"/>
      <point x="180" y="65" type="line"/>
      <point x="523" y="71"/>
      <point x="555" y="73" type="qcurve"/>
      <point x="573" y="73"/>
      <point x="594" y="31"/>
      <point x="594" y="14" type="qcurve"/>
      <point x="594" y="-8"/>
      <point x="576" y="-8" type="qcurve"/>
      <point x="552" y="-5"/>
      <point x="473" y="-5" type="qcurve"/>
      <point x="179" y="-9"/>
      <point x="157" y="-16"/>
    </contour>
    <contour>
      <point x="262" y="753"/>
      <point x="214" y="753"/>
      <point x="177" y="798"/>
      <point x="177" y="844"/>
      <point x="204" y="874"/>
      <point x="252" y="874"/>
      <point x="290" y="831"/>
      <point x="290" y="783"/>
    </contour>
    <contour>
      <point x="445" y="753"/>
      <point x="397" y="753"/>
      <point x="360" y="798"/>
      <point x="360" y="844"/>
      <point x="387" y="874"/>
      <point x="435" y="874"/>
      <point x="473" y="831"/>
      <point x="473" y="783"/>
    </contour>
  </outline>
</glyph>
<glyph name="Igrave" format="2">
  <advance height="1000" width="304"/>
  <unicode hex="00CC"/>
  <outline>
    <contour>
      <point x="173" y="-16" type="qcurve"/>
      <point x="152" y="-16"/>
      <point x="107" y="1"/>
      <point x="107" y="18" type="qcurve"/>
      <point x="109" y="107" type="line"/>
      <point x="109" y="589"/>
      <point x="106" y="695" type="qcurve"/>
      <point x="106" y="711"/>
      <point x="132" y="711" type="qcurve"/>
      <point x="152" y="711"/>
      <point x="197" y="694"/>
      <point x="197" y="677" type="qcurve"/>
      <point x="195" y="588" type="line"/>
      <point x="195" y="106"/>
      <point x="198" y="0" type="qcurve"/>
      <point x="198" y="-16"/>
    </contour>
    <contour>
      <point x="240" y="735" type="qcurve"/>
      <point x="233" y="735"/>
      <point x="192" y="759"/>
      <point x="97" y="792"/>
      <point x="47" y="810" type="qcurve"/>
      <point x="36" y="815"/>
      <point x="36" y="828" type="qcurve"/>
      <point x="36" y="838"/>
      <point x="60" y="866"/>
      <point x="90" y="886"/>
      <point x="99" y="886" type="qcurve"/>
      <point x="106" y="886"/>
      <point x="110" y="884" type="qcurve"/>
      <point x="223" y="809"/>
      <point x="263" y="766"/>
      <point x="263" y="758" type="qcurve"/>
      <point x="263" y="735"/>
    </contour>
  </outline>
</glyph>
<glyph name="Iacute" format="2">
  <advance height="1000" width="304"/>
  <unicode hex="00CD"/>
  <outline>
    <contour>
      <point x="173" y="-16" type="qcurve"/>
      <point x="152" y="-16"/>
      <point x="107" y="1"/>
      <point x="107" y="18" type="qcurve"/>
      <point x="109" y="107" type="line"/>
      <point x="109" y="589"/>
      <point x="106" y="695" type="qcurve"/>
      <point x="106" y="711"/>
      <point x="132" y="711" type="qcurve"/>
      <point x="152" y="711"/>
      <point x="197" y="694"/>
      <point x="197" y="677" type="qcurve"/>
      <point x="195" y="588" type="line"/>
      <point x="195" y="106"/>
      <point x="198" y="0" type="qcurve"/>
      <point x="198" y="-16"/>
    </contour>
    <contour>
      <point x="83" y="735"/>
      <point x="67" y="735"/>
      <point x="53" y="749"/>
      <point x="53" y="758" type="qcurve"/>
      <point x="53" y="782"/>
      <point x="206" y="884" type="qcurve"/>
      <point x="210" y="886"/>
      <point x="218" y="886" type="qcurve"/>
      <point x="227" y="886"/>
      <point x="241" y="875" type="qcurve"/>
      <point x="280" y="849"/>
      <point x="280" y="826" type="qcurve"/>
      <point x="280" y="815"/>
      <point x="269" y="810" type="qcurve"/>
      <point x="220" y="792"/>
      <point x="124" y="759"/>
    </contour>
  </outline>
</glyph>
<glyph name="Icircumflex" format="2">
  <advance height="1000" width="304"/>
  <unicode hex="00CE"/>
  <outline>
    <contour>
      <point x="173" y="-16" type="qcurve"/>
      <point x="152" y="-16"/>
      <point x="107" y="1"/>
      <point x="107" y="18" type="qcurve"/>
      <point x="109" y="107" type="line"/>
      <point x="109" y="589"/>
      <point x="106" y="695" type="qcurve"/>
      <point x="106" y="711"/>
      <point x="132" y="711" type="qcurve"/>
      <point x="152" y="711"/>
      <point x="197" y="694"/>
      <point x="197" y="677" type="qcurve"/>
      <point x="195" y="588" type="line"/>
      <point x="195" y="106"/>
      <point x="198" y="0" type="qcurve"/>
      <point x="198" y="-16"/>
    </contour>
    <contour>
      <point x="293" y="726" type="qcurve"/>
      <point x="283" y="726"/>
      <point x="246" y="758"/>
      <point x="152" y="817" type="qcurve"/>
      <point x="55" y="755"/>
      <point x="20" y="726"/>
      <point x="10" y="726" type="qcurve"/>
      <point x="-14" y="726"/>
      <point x="-14" y="748" type="qcurve"/>
      <point x="-14" y="772"/>
      <point x="101" y="882" type="qcurve"/>
      <point x="113" y="894"/>
      <point x="136" y="898"/>
      <point x="159" y="898" type="qcurve"/>
      <point x="183" y="898"/>
      <point x="213" y="869"/>
      <point x="228" y="853" type="qcurve"/>
      <point x="317" y="768"/>
      <point x="317" y="749" type="qcurve"/>
      <point x="317" y="726"/>
    </contour>
  </outline>
</glyph>
<glyph name="Eth" format="2">
  <advance height="1000" width="728"/>
  <unicode hex="00D0"/>
  <outline>
    <contour>
      <point x="182" y="46" type="line"/>
      <point x="322" y="49"/>
      <point x="508" y="132"/>
      <point x="596" y="271"/>
      <point x="596" y="348" type="qcurve"/>
      <point x="596" y="489"/>
      <point x="413" y="645"/>
      <point x="298" y="645" type="qcurve"/>
      <point x="235" y="645"/>
      <point x="182" y="630" type="qcurve"/>
      <point x="182" y="369" type="line"/>
      <point x="355" y="372"/>
      <point x="403" y="375" type="qcurve"/>
      <point x="416" y="375"/>
      <point x="430" y="344"/>
      <point x="430" y="325" type="qcurve"/>
      <point x="430" y="300"/>
      <point x="410" y="300" type="qcurve"/>
      <point x="293" y="300"/>
      <point x="182" y="297" type="qcurve"/>
    </contour>
    <contour>
      <point x="176" y="-14" type="qcurve"/>
      <point x="45" y="-14"/>
      <point x="45" y="15" type="qcurve"/>
      <point x="45" y="40"/>
      <point x="100" y="40" type="qcurve"/>
      <point x="100" y="296" type="line"/>
      <point x="47" y="293" type="line"/>
      <point x="34" y="293"/>
      <point x="20" y="325"/>
      <point x="20" y="344" type="qcurve"/>
      <point x="20" y="368"/>
      <point x="41" y="368" type="qcurve"/>
      <point x="100" y="368" type="line"/>
      <point x="100" y="621" type="line"/>
      <point x="89" y="624"/>
      <point x="60" y="656"/>
      <point x="60" y="668" type="qcurve"/>
      <point x="60" y="701"/>
      <point x="244" y="716" type="qcurve"/>
      <point x="277" y="718"/>
      <point x="303" y="718" type="qcurve"/>
      <point x="458" y="718"/>
      <point x="679" y="519"/>
      <point x="679" y="201"/>
      <point x="582" y="106" type="qcurve"/>
      <point x="500" y="24"/>
      <point x="375" y="2" type="qcurve"/>
      <point x="298" y="-12"/>
    </contour>
  </outline>
</glyph>
<glyph name="Ntilde" format="2">
  <advance height="1000" width="738"/>
  <unicode hex="00D1"/>
  <outline>
    <contour>
      <point x="586" y="-19" type="qcurve"/>
      <point x="561" y="-19"/>
      <point x="540" y="12"/>
      <point x="515" y="48" type="qcurve"/>
      <point x="323" y="318"/>
      <point x="181" y="557" type="qcurve"/>
      <point x="181" y="105"/>
      <point x="184" y="-1" type="qcurve"/>
      <point x="184" y="-17"/>
      <point x="160" y="-17" type="qcurve"/>
      <point x="141" y="-17"/>
      <point x="98" y="0"/>
      <point x="98" y="17" type="qcurve"/>
      <point x="100" y="106"/>
      <point x="100" y="640" type="qcurve"/>
      <point x="93" y="677" type="line"/>
      <point x="93" y="696"/>
      <point x="143" y="714"/>
      <point x="155" y="714" type="qcurve"/>
      <point x="165" y="714"/>
      <point x="181" y="711"/>
      <point x="187" y="701" type="qcurve"/>
      <point x="212" y="655"/>
      <point x="447" y="279"/>
      <point x="560" y="123" type="qcurve"/>
      <point x="560" y="589" type="line"/>
      <point x="556" y="695" type="line"/>
      <point x="556" y="711"/>
      <point x="581" y="711" type="qcurve"/>
      <point x="601" y="711"/>
      <point x="643" y="694"/>
      <point x="643" y="677" type="qcurve"/>
      <point x="641" y="588"/>
      <point x="641" y="87" type="qcurve"/>
      <point x="645" y="32" type="line"/>
      <point x="645" y="20"/>
      <point x="634" y="8" type="qcurve"/>
      <point x="610" y="-19"/>
    </contour>
    <contour>
      <point x="234" y="750" type="qcurve"/>
      <point x="210" y="750"/>
      <point x="210" y="773" type="qcurve"/>
      <point x="210" y="788"/>
      <point x="234" y="835"/>
      <point x="280" y="873"/>
      <point x="344" y="873"/>
      <point x="385" y="846"/>
      <point x="416" y="822"/>
      <point x="433" y="822" type="qcurve"/>
      <point x="470" y="822"/>
      <point x="489" y="861" type="qcurve"/>
      <point x="496" y="876"/>
      <point x="508" y="876" type="qcurve"/>
      <point x="531" y="876"/>
      <point x="531" y="853" type="qcurve"/>
      <point x="531" y="822"/>
      <point x="496" y="783" type="qcurve"/>
      <point x="470" y="753"/>
      <point x="433" y="753" type="qcurve"/>
      <point x="397" y="753"/>
      <point x="356" y="779"/>
      <point x="325" y="804"/>
      <point x="308" y="804" type="qcurve"/>
      <point x="271" y="804"/>
      <point x="252" y="765" type="qcurve"/>
      <point x="245" y="750"/>
    </contour>
  </outline>
</glyph>
<glyph name="Ograve" format="2">
  <advance height="1000" width="745"/>
  <unicode hex="00D2"/>
  <outline>
    <contour>
      <point x="354" y="52" type="qcurve"/>
      <point x="495" y="52"/>
      <point x="560" y="148" type="qcurve"/>
      <point x="619" y="236"/>
      <point x="619" y="371" type="qcurve"/>
      <point x="619" y="481"/>
      <point x="503" y="647"/>
      <point x="399" y="647" type="qcurve"/>
      <point x="357" y="647"/>
      <point x="262" y="608"/>
      <point x="180" y="530"/>
      <point x="128" y="415"/>
      <point x="128" y="338" type="qcurve"/>
      <point x="128" y="260"/>
      <point x="177" y="130"/>
      <point x="278" y="52"/>
    </contour>
    <contour>
      <point x="366" y="-24" type="qcurve"/>
      <point x="257" y="-24"/>
      <point x="115" y="71"/>
      <point x="47" y="234"/>
      <point x="47" y="320" type="qcurve"/>
      <point x="47" y="405"/>
      <point x="80" y="523"/>
      <point x="129" y="613"/>
      <point x="179" y="664"/>
      <point x="198" y="664" type="qcurve"/>
      <point x="216" y="664"/>
      <point x="224" y="655" type="qcurve"/>
      <point x="297" y="719"/>
      <point x="497" y="719"/>
      <point x="630" y="626"/>
      <point x="701" y="465"/>
      <point x="701" y="375" type="qcurve"/>
      <point x="701" y="198"/>
      <point x="621" y="91" type="qcurve"/>
      <point x="532" y="-24"/>
    </contour>
    <contour>
      <point x="461" y="735" type="qcurve"/>
      <point x="454" y="735"/>
      <point x="413" y="759"/>
      <point x="318" y="792"/>
      <point x="268" y="810" type="qcurve"/>
      <point x="257" y="815"/>
      <point x="257" y="828" type="qcurve"/>
      <point x="257" y="838"/>
      <point x="281" y="866"/>
      <point x="311" y="886"/>
      <point x="320" y="886" type="qcurve"/>
      <point x="327" y="886"/>
      <point x="331" y="884" type="qcurve"/>
      <point x="484" y="783"/>
      <point x="484" y="758" type="qcurve"/>
      <point x="484" y="735"/>
    </contour>
  </outline>
</glyph>
<glyph name="Oacute" format="2">
  <advance height="1000" width="745"/>
  <unicode hex="00D3"/>
  <outline>
    <contour>
      <point x="354" y="52" type="qcurve"/>
      <point x="495" y="52"/>
      <point x="560" y="148" type="qcurve"/>
      <point x="619" y="236"/>
      <point x="619" y="371" type="qcurve"/>
      <point x="619" y="481"/>
      <point x="503" y="647"/>
      <point x="399" y="647" type="qcurve"/>
      <point x="357" y="647"/>
      <point x="262" y="608"/>
      <point x="180" y="530"/>
      <point x="128" y="415"/>
      <point x="128" y="338" type="qcurve"/>
      <point x="128" y="260"/>
      <point x="177" y="130"/>
      <point x="278" y="52"/>
    </contour>
    <contour>
      <point x="366" y="-24" type="qcurve"/>
      <point x="257" y="-24"/>
      <point x="115" y="71"/>
      <point x="47" y="234"/>
      <point x="47" y="320" type="qcurve"/>
      <point x="47" y="405"/>
      <point x="80" y="523"/>
      <point x="129" y="613"/>
      <point x="179" y="664"/>
      <point x="198" y="664" type="qcurve"/>
      <point x="216" y="664"/>
      <point x="224" y="655" type="qcurve"/>
      <point x="297" y="719"/>
      <point x="497" y="719"/>
      <point x="630" y="626"/>
      <point x="701" y="465"/>
      <point x="701" y="375" type="qcurve"/>
      <point x="701" y="198"/>
      <point x="621" y="91" type="qcurve"/>
      <point x="532" y="-24"/>
    </contour>
    <contour>
      <point x="304" y="735"/>
      <point x="288" y="735"/>
      <point x="274" y="749"/>
      <point x="274" y="758" type="qcurve"/>
      <point x="274" y="782"/>
      <point x="427" y="884" type="qcurve"/>
      <point x="431" y="886"/>
      <point x="439" y="886" type="qcurve"/>
      <point x="448" y="886"/>
      <point x="463" y="875" type="qcurve"/>
      <point x="501" y="849"/>
      <point x="501" y="826" type="qcurve"/>
      <point x="501" y="815"/>
      <point x="490" y="810" type="qcurve"/>
      <point x="441" y="792"/>
      <point x="345" y="759"/>
    </contour>
  </outline>
</glyph>
